<svg width="176" height="176" viewBox="0 0 176 176" fill="none" xmlns="http://www.w3.org/2000/svg">
<g clip-path="url(#clip0_5340_51186)">
<g clip-path="url(#clip1_5340_51186)">
<mask id="mask0_5340_51186" style="mask-type:luminance" maskUnits="userSpaceOnUse" x="0" y="0" width="176" height="176">
<path d="M176 88C176 39.3989 136.601 0 88 0C39.3989 0 0 39.3989 0 88C0 136.601 39.3989 176 88 176C136.601 176 176 136.601 176 88Z" fill="white"/>
</mask>
<g mask="url(#mask0_5340_51186)">
<path d="M176 88C176 39.3989 136.601 0 88 0C39.3989 0 0 39.3989 0 88C0 136.601 39.3989 176 88 176C136.601 176 176 136.601 176 88Z" fill="#BCF5D7"/>
<mask id="mask1_5340_51186" style="mask-type:luminance" maskUnits="userSpaceOnUse" x="-22" y="17" width="230" height="131">
<path d="M207.721 17.3955H-21.4883V147.349H207.721V17.3955Z" fill="white"/>
</mask>
<g mask="url(#mask1_5340_51186)">
<path d="M107.819 128.859L105.602 131.743L108.493 133.954L110.711 131.071L107.819 128.859Z" fill="#062D18"/>
<path d="M167.216 40.2993C167.176 40.2993 167.155 40.2792 167.115 40.2592C167.074 40.2391 167.055 40.1989 167.055 40.1588L166.793 38.3522C166.773 38.2719 166.833 38.1916 166.914 38.1916L168.725 37.9307C168.766 37.9307 168.806 37.9307 168.846 37.9507C168.887 37.9708 168.907 38.011 168.907 38.0511L169.168 39.8577C169.189 39.938 169.128 40.0183 169.047 40.0183L167.236 40.2792C167.216 40.2993 167.216 40.2993 167.216 40.2993ZM167.115 38.4727L167.336 39.9781L168.846 39.7574L168.625 38.2519L167.115 38.4727Z" fill="#062D18"/>
<path d="M70.9296 56.5981C70.9094 56.5981 70.8894 56.5981 70.8692 56.5981L69.1581 55.9356C69.1178 55.9156 69.0977 55.8955 69.0776 55.8553C69.0575 55.8152 69.0575 55.7751 69.0776 55.7349L69.7419 54.0287C69.7621 53.9484 69.8627 53.9082 69.9432 53.9484L71.6544 54.6108C71.7348 54.6309 71.7751 54.7312 71.7348 54.8115L71.0705 56.5177C71.0504 56.5579 71.0303 56.5779 70.99 56.5981C70.9699 56.5981 70.9498 56.5981 70.9296 56.5981ZM69.4198 55.7148L70.8491 56.2568L71.3926 54.8316L69.9633 54.2896L69.4198 55.7148Z" fill="#062D18"/>
<path d="M137.625 22.8955C139.148 22.8955 140.383 21.6643 140.383 20.1455C140.383 18.6267 139.148 17.3955 137.625 17.3955C136.101 17.3955 134.867 18.6267 134.867 20.1455C134.867 21.6643 136.101 22.8955 137.625 22.8955Z" fill="#062D18"/>
<path d="M41.6994 147.349C42.3553 147.349 42.8871 146.819 42.8871 146.165C42.8871 145.511 42.3553 144.98 41.6994 144.98C41.0434 144.98 40.5117 145.511 40.5117 146.165C40.5117 146.819 41.0434 147.349 41.6994 147.349Z" fill="#062D18"/>
<path d="M42.8682 47.8666C42.8279 47.8666 42.8079 47.8465 42.7675 47.8265C42.7072 47.7662 42.687 47.6859 42.7474 47.6056L44.9014 44.9158C44.9618 44.8556 45.0423 44.8355 45.1229 44.8957C45.1832 44.9559 45.2034 45.0362 45.143 45.1166L42.989 47.8063C42.9688 47.8465 42.9286 47.8666 42.8682 47.8666Z" fill="#062D18"/>
<path d="M73.9926 27.793C73.9724 27.793 73.9322 27.793 73.912 27.7729L70.9126 26.0467C70.832 26.0065 70.8119 25.9062 70.8522 25.8459C70.8924 25.7656 70.9931 25.7455 71.0535 25.7857L74.0529 27.4919C74.1335 27.532 74.1536 27.6324 74.1133 27.6927C74.0931 27.7529 74.0328 27.793 73.9926 27.793Z" fill="#062D18"/>
<path d="M77.091 140.384C77.0506 140.384 76.9903 140.363 76.9701 140.323C76.9299 140.263 76.9501 140.163 77.0104 140.123L79.9092 138.236C79.9697 138.196 80.0703 138.215 80.1106 138.276C80.1508 138.336 80.1306 138.436 80.0703 138.476L77.1715 140.363C77.1513 140.384 77.1111 140.384 77.091 140.384Z" fill="#062D18"/>
<path d="M5.56402 124.686C5.54388 124.686 5.52375 124.686 5.52375 124.686C5.44323 124.666 5.40297 124.586 5.4231 124.506L6.46991 121.214C6.49004 121.133 6.57056 121.093 6.65109 121.114C6.73161 121.133 6.77187 121.214 6.75173 121.294L5.70493 124.586C5.68481 124.646 5.62441 124.686 5.56402 124.686Z" fill="#062D18"/>
<path d="M146.481 122.98C146.46 122.98 146.44 122.98 146.42 122.96C146.339 122.92 146.319 122.84 146.339 122.759L147.748 119.608C147.788 119.528 147.869 119.507 147.95 119.528C148.03 119.568 148.05 119.649 148.03 119.728L146.621 122.88C146.601 122.94 146.541 122.98 146.481 122.98Z" fill="#062D18"/>
<path d="M134.344 142.19C134.284 142.19 134.244 142.17 134.223 142.11C134.183 142.03 134.203 141.949 134.284 141.909L137.263 140.183C137.343 140.143 137.424 140.163 137.464 140.244C137.505 140.323 137.484 140.404 137.403 140.444L134.425 142.17C134.384 142.17 134.364 142.19 134.344 142.19Z" fill="#062D18"/>
<path d="M85.4447 106.399C85.4044 106.399 85.3642 106.38 85.3238 106.34L83.1497 103.65C83.0893 103.59 83.1095 103.489 83.1699 103.429C83.2303 103.369 83.3309 103.389 83.3913 103.449L85.5654 106.138C85.6258 106.199 85.6057 106.299 85.5453 106.36C85.5051 106.38 85.4849 106.399 85.4447 106.399Z" fill="#062D18"/>
<path d="M151.395 98.8322C151.335 98.8322 151.274 98.792 151.254 98.7519C151.214 98.6716 151.254 98.5914 151.335 98.5511L154.496 97.1662C154.575 97.126 154.656 97.1662 154.696 97.2464C154.737 97.3267 154.696 97.407 154.616 97.4472L151.456 98.8322C151.435 98.8121 151.416 98.8322 151.395 98.8322Z" fill="#062D18"/>
<path d="M141.266 48.0874C141.206 48.0874 141.146 48.0473 141.125 48.007L139.676 44.8757C139.635 44.7953 139.676 44.7151 139.756 44.6749C139.837 44.6348 139.918 44.6749 139.958 44.7552L141.408 47.8866C141.448 47.9669 141.408 48.0473 141.327 48.0874C141.306 48.0673 141.287 48.0874 141.266 48.0874Z" fill="#062D18"/>
<path d="M12.8127 39.7975C13.1797 39.7975 13.4771 39.5009 13.4771 39.135C13.4771 38.7692 13.1797 38.4727 12.8127 38.4727C12.4459 38.4727 12.1484 38.7692 12.1484 39.135C12.1484 39.5009 12.4459 39.7975 12.8127 39.7975Z" fill="#062D18"/>
<path d="M109.481 40.5999C109.038 40.5999 108.676 40.2386 108.676 39.7971C108.676 39.3555 109.038 38.9941 109.481 38.9941C109.924 38.9941 110.286 39.3555 110.286 39.7971C110.286 40.2386 109.924 40.5999 109.481 40.5999ZM109.481 39.2751C109.2 39.2751 108.978 39.4959 108.978 39.7769C108.978 40.058 109.2 40.2788 109.481 40.2788C109.762 40.2788 109.985 40.058 109.985 39.7769C109.985 39.4959 109.762 39.2751 109.481 39.2751Z" fill="#062D18"/>
<path d="M61.9536 128.58C61.5108 128.58 61.1484 128.219 61.1484 127.777C61.1484 127.336 61.5108 126.975 61.9536 126.975C62.3965 126.975 62.7589 127.336 62.7589 127.777C62.7589 128.219 62.3965 128.58 61.9536 128.58ZM61.9536 127.255C61.6718 127.255 61.4504 127.476 61.4504 127.757C61.4504 128.038 61.6718 128.259 61.9536 128.259C62.2354 128.259 62.457 128.038 62.457 127.757C62.457 127.476 62.2354 127.255 61.9536 127.255Z" fill="#062D18"/>
<path d="M55.1698 118.946C39.8705 118.946 27.4297 106.52 27.4297 91.2649C27.4297 76.0093 39.8705 63.584 55.19 63.584C70.5096 63.584 82.9303 76.0093 82.9303 91.2649C82.9303 106.52 70.4693 118.946 55.1698 118.946ZM55.1698 63.9052C40.0315 63.9052 27.7115 76.19 27.7115 91.285C27.7115 106.38 40.0315 118.664 55.1698 118.664C70.3083 118.664 82.6283 106.36 82.6283 91.2649C82.6283 76.1699 70.3083 63.9052 55.1698 63.9052Z" fill="#062D18"/>
<path d="M55.1687 115.353C41.8421 115.353 31.0117 104.553 31.0117 91.2645C31.0117 77.9761 41.8421 67.1768 55.1687 67.1768C68.4953 67.1768 79.3257 77.9761 79.3257 91.2645C79.3257 104.553 68.4953 115.353 55.1687 115.353ZM55.1687 67.4778C42.0233 67.4778 31.3137 78.1568 31.3137 91.2645C31.3137 104.372 42.0233 115.051 55.1687 115.051C68.3141 115.051 79.0237 104.393 79.0237 91.2645C79.0237 78.1568 68.3343 67.4778 55.1687 67.4778Z" fill="#062D18"/>
<path d="M56.154 96.7848C54.4027 96.7848 52.6714 96.6242 50.9603 96.3031C46.0886 95.3797 41.3981 93.1716 37.0097 89.699C36.9694 89.6789 36.9492 89.6187 36.9492 89.5786C36.9492 89.5383 36.9694 89.4782 37.0097 89.4581C37.0499 89.4179 41.7001 86.146 48.5849 84.6807C54.9461 83.3157 64.5687 83.2554 74.312 90.6625C74.3523 90.6825 74.3724 90.7428 74.3724 90.7829C74.3724 90.823 74.3523 90.8833 74.312 90.9034C74.2718 90.9435 69.7222 94.4363 62.8777 96.0019C60.6231 96.5238 58.3684 96.7848 56.154 96.7848ZM37.3519 89.5986C41.6599 92.9708 46.2497 95.1188 51.0006 96.022C54.8456 96.7446 58.8314 96.6442 62.7972 95.721C68.8566 94.3158 73.1041 91.4052 73.9496 90.7829C64.3473 83.5566 54.8858 83.6169 48.6251 84.9617C42.5456 86.2865 38.2376 88.9964 37.3519 89.5986Z" fill="#062D18"/>
<path d="M55.6519 96.6447C59.1207 96.6447 61.9327 93.8408 61.9327 90.3819C61.9327 86.9231 59.1207 84.1191 55.6519 84.1191C52.1831 84.1191 49.3711 86.9231 49.3711 90.3819C49.3711 93.8408 52.1831 96.6447 55.6519 96.6447Z" fill="#062D18"/>
<path d="M118.903 115.353C105.576 115.353 94.7461 104.553 94.7461 91.2645C94.7461 77.9761 105.576 67.1768 118.903 67.1768C124.66 67.1768 130.237 69.2242 134.585 72.9378C134.826 73.1384 135.048 73.3392 135.249 73.54C135.49 73.7607 135.692 73.9615 135.893 74.1422C135.933 74.1823 135.954 74.2224 135.933 74.2827C135.933 74.3228 135.893 74.363 135.854 74.383C135.773 74.4231 135.692 74.4633 135.632 74.4834C135.088 74.7444 134.847 74.8648 134.807 75.0654C134.786 75.1658 134.807 75.3465 134.907 75.4269C135.068 75.5674 135.612 75.4269 136.578 74.9852C136.638 74.9652 136.699 74.9652 136.759 75.0253C136.84 75.1057 136.9 75.1859 136.98 75.2662C137.001 75.3063 137.021 75.3465 137.021 75.3866C137.021 75.4269 136.98 75.467 136.961 75.487L136.678 75.6677C136.397 75.8483 136.014 76.1093 136.014 76.4104C136.014 76.5509 136.075 76.7115 136.195 76.7918C136.416 76.9122 136.84 76.6312 137.323 76.31C137.403 76.2498 137.484 76.1896 137.564 76.1495C137.625 76.1093 137.725 76.1093 137.766 76.1695C137.906 76.3501 138.068 76.5509 138.249 76.7918C138.289 76.8521 138.289 76.9323 138.249 76.9925C137.826 77.4542 137.625 77.6951 137.665 77.8757C137.706 77.9761 137.785 78.0765 137.906 78.0965C138.087 78.1366 138.309 77.956 138.632 77.6148C138.672 77.5747 138.712 77.5747 138.752 77.5747C138.792 77.5747 138.832 77.5947 138.873 77.6348C141.631 81.6495 143.1 86.3667 143.1 91.2444C143.06 104.553 132.229 115.353 118.903 115.353ZM118.903 67.4778C105.758 67.4778 95.048 78.1568 95.048 91.2645C95.048 104.372 105.758 115.051 118.903 115.051C132.048 115.051 142.758 104.393 142.758 91.2645C142.758 86.4871 141.348 81.9104 138.692 77.9761C138.389 78.2772 138.108 78.4779 137.806 78.3977C137.604 78.3374 137.423 78.1769 137.363 77.9761C137.263 77.6348 137.504 77.3539 137.927 76.8922C137.806 76.7517 137.706 76.6111 137.604 76.4906C137.564 76.5108 137.524 76.5509 137.484 76.571C136.9 76.9725 136.437 77.2735 136.054 77.0728C135.813 76.9523 135.712 76.6513 135.712 76.4305C135.712 75.9487 136.195 75.6476 136.518 75.4269L136.659 75.3265L136.638 75.3064C135.37 75.8684 134.988 75.8483 134.746 75.6476C134.545 75.487 134.504 75.206 134.545 75.0053C134.605 74.664 134.928 74.5035 135.531 74.2023C135.531 74.2023 135.551 74.2023 135.551 74.1823C135.41 74.0418 135.249 73.9013 135.088 73.7406C134.887 73.56 134.666 73.3593 134.424 73.1585C130.096 69.5053 124.58 67.4778 118.903 67.4778Z" fill="#062D18"/>
<path d="M118.901 118.946C103.602 118.946 91.1406 106.541 91.1406 91.2649C91.1406 75.9892 103.581 63.584 118.901 63.584C126.43 63.584 133.475 66.5347 138.75 71.9144C138.79 71.9545 138.811 72.0148 138.79 72.075C138.77 72.1352 138.73 72.1753 138.67 72.1753C137.18 72.4162 136.274 72.5567 135.65 72.617C135.408 72.6571 134.805 72.7174 134.663 72.9983C134.865 73.1789 135.046 73.3396 135.227 73.5002C135.731 73.5002 136.495 73.3396 137.28 73.1589C137.643 73.0787 137.965 72.9983 138.287 72.898C138.368 72.8779 138.447 72.918 138.468 72.9783C138.488 73.0585 138.468 73.1388 138.408 73.1589C137.965 73.3998 136.978 73.8615 136.274 74.1827L135.851 74.3834C135.771 74.4235 135.69 74.4636 135.629 74.4837C135.086 74.7447 134.845 74.8652 134.805 75.0658C134.784 75.1662 134.805 75.3469 134.905 75.4271C135.066 75.5677 135.61 75.4271 136.576 74.9856C136.838 74.8652 137.119 74.7447 137.401 74.6041C137.985 74.3232 138.468 74.0622 138.75 73.9016C138.83 73.8615 138.911 73.8815 138.951 73.9618C138.992 74.022 138.971 74.1224 138.911 74.1626L138.589 74.3834C137.985 74.7848 137.442 75.1462 136.938 75.4874L136.657 75.668C136.374 75.8487 135.992 76.1097 135.992 76.4108C135.992 76.5513 136.052 76.7118 136.173 76.7922C136.395 76.9126 136.817 76.6316 137.3 76.3104C137.381 76.2502 137.461 76.19 137.542 76.1498C137.904 75.8888 138.226 75.6882 138.468 75.5075C139.394 74.8652 139.494 74.8049 139.616 74.9253C139.716 75.0057 139.817 75.106 138.83 76.2702C138.63 76.5111 138.447 76.7118 138.287 76.8926L138.206 76.9728C137.783 77.4345 137.583 77.6753 137.623 77.8761C137.663 77.9765 137.743 78.0769 137.864 78.0969C138.045 78.137 138.266 77.9564 138.589 77.6152C138.67 77.5348 138.75 77.4345 138.851 77.3341C139.011 77.1735 139.173 76.9929 139.374 76.7922C139.756 76.3906 140.139 76.0293 140.542 75.6882C140.562 75.668 140.622 75.648 140.642 75.648C140.984 75.648 141.327 75.6279 141.649 75.5878C141.71 75.5878 141.77 75.6079 141.789 75.648C144.95 80.2447 146.621 85.6445 146.621 91.2448C146.661 106.52 134.2 118.946 118.901 118.946ZM118.901 63.9052C103.762 63.9052 91.4426 76.1699 91.4426 91.2649C91.4426 106.36 103.762 118.645 118.901 118.645C134.039 118.645 146.359 106.36 146.359 91.2649C146.359 85.7649 144.729 80.4455 141.629 75.9089C141.327 75.9491 141.025 75.9692 140.723 75.9692C140.34 76.2904 139.978 76.6517 139.616 77.013C139.414 77.2136 139.253 77.3944 139.092 77.5549C138.992 77.6553 138.911 77.7557 138.83 77.836C138.468 78.2174 138.166 78.4983 137.804 78.398C137.602 78.3378 137.421 78.1773 137.361 77.9765C137.24 77.6152 137.542 77.314 138.005 76.7922L138.085 76.7118C138.247 76.5312 138.428 76.3305 138.63 76.0896C138.79 75.8888 139.011 75.6279 139.173 75.4071C139.032 75.5075 138.851 75.6279 138.67 75.7483C138.408 75.9291 138.106 76.1498 137.723 76.3906C137.643 76.4509 137.562 76.491 137.482 76.5513C136.898 76.9527 136.435 77.2539 136.052 77.0531C135.811 76.9327 135.71 76.6316 135.71 76.4108C135.71 75.9291 136.193 75.6279 136.516 75.4071L136.797 75.2265C136.778 75.2265 136.757 75.2465 136.737 75.2465C135.388 75.8487 134.986 75.8487 134.744 75.6279C134.543 75.4674 134.503 75.1863 134.543 74.9856C134.603 74.6444 134.925 74.4837 135.529 74.1827C135.59 74.1626 135.67 74.1224 135.75 74.0823L136.173 73.8815C136.435 73.7611 136.737 73.6206 137.019 73.5002C136.294 73.6607 135.65 73.7811 135.167 73.7611C135.126 73.7611 135.107 73.741 135.066 73.721C134.865 73.5403 134.643 73.3396 134.402 73.1388C134.362 73.0987 134.341 73.0585 134.341 72.9983C134.341 72.9582 134.362 72.9381 134.362 72.898C134.522 72.4162 135.247 72.3359 135.59 72.2958C136.173 72.2155 136.999 72.095 138.327 71.8944C133.153 66.7556 126.248 63.9052 118.901 63.9052Z" fill="#062D18"/>
<path d="M119.889 96.7848C118.137 96.7848 116.405 96.6242 114.695 96.3031C109.823 95.3797 105.132 93.1716 100.744 89.699C100.704 89.6789 100.684 89.6187 100.684 89.5786C100.684 89.5383 100.704 89.4782 100.744 89.4581C100.784 89.4179 105.434 86.146 112.32 84.6807C118.68 83.3157 128.303 83.2554 138.046 90.6625C138.086 90.6825 138.107 90.7428 138.107 90.7829C138.107 90.823 138.086 90.8833 138.046 90.9034C138.006 90.9435 133.457 94.4363 126.612 96.0019C124.357 96.5238 122.103 96.7848 119.889 96.7848ZM101.086 89.5986C105.394 92.9708 109.984 95.1188 114.734 96.022C118.58 96.7446 122.565 96.6442 126.532 95.721C132.591 94.3158 136.839 91.4052 137.684 90.7829C128.082 83.5566 118.62 83.6169 112.359 84.9617C106.28 86.2665 101.972 88.9964 101.086 89.5986Z" fill="#062D18"/>
<path d="M119.386 96.6437C122.855 96.6437 125.667 93.8398 125.667 90.3809C125.667 86.9221 122.855 84.1182 119.386 84.1182C115.917 84.1182 113.105 86.9221 113.105 90.3809C113.105 93.8398 115.917 96.6437 119.386 96.6437Z" fill="#062D18"/>
<path d="M86.3126 59.0878C80.8572 60.4126 77.4751 65.9929 78.824 71.4127C79.9311 71.1316 81.0383 70.8707 82.1656 70.5897C81.3001 67.0367 83.454 63.4035 86.9568 62.5604C90.4595 61.6973 94.0629 63.9253 94.9286 67.4783C96.1767 67.1772 97.4449 66.856 98.6931 66.555C97.3443 61.1151 91.7681 57.7428 86.3126 59.0878Z" fill="#062D18"/>
<path d="M10.8187 67.9595C10.8187 67.9595 10.1947 72.4559 10.4967 76.7315C10.7584 80.4651 10.9999 82.332 12.0869 83.2955C12.248 83.436 12.4292 83.5765 12.6103 83.6768C13.9189 84.4597 15.791 84.8009 22.0719 82.8739C23.1992 82.5326 24.709 82.0308 26.5006 81.3685C26.7221 80.4651 27.9903 76.7114 28.3326 75.9286C26.5812 76.2497 24.8298 76.5709 23.0583 76.8921C20.9647 77.2735 18.8912 77.6348 16.8178 77.9761C16.8781 77.4943 16.9385 76.8721 17.0392 76.1293C17.1599 75.1658 17.2606 74.4031 17.3008 73.9614C17.3008 73.9614 17.321 73.7808 17.3412 73.6202C17.8846 69.5654 18.8912 66.2734 17.2808 63.5635C17.2203 63.4833 17.0996 63.2825 16.9184 63.0417C17.0392 62.7607 17.1801 62.4595 17.3008 62.1785C16.1333 61.476 14.9455 60.7533 13.778 60.0508C13.6371 60.2917 13.4962 60.5526 13.3553 60.7935C12.5098 60.8537 11.3221 61.0143 9.99339 61.5361C5.64513 63.2424 3.63206 67.3573 2.24303 70.1074C-0.454495 75.4669 -3.47411 81.2279 -7.09766 88.0528C-4.54105 88.4542 -1.98444 88.8356 0.612437 89.2171C4.01454 89.7189 7.37639 90.2006 10.7181 90.6422C11.0402 89.3977 11.3824 88.1532 11.7246 86.8885C12.0266 85.8046 12.3084 84.7207 12.6103 83.6367" fill="#138648"/>
<path d="M30.99 135.888C28.8561 136.61 16.1133 136.47 16.1133 136.47L16.6568 131.391L21.4077 131.331C21.9513 131.872 23.159 132.415 25.6754 132.696C32.0368 133.418 33.1238 135.165 30.99 135.888Z" fill="#062D18"/>
<path d="M15.7707 131.551C15.6902 131.551 15.6298 131.491 15.6298 131.431L11.4023 107.604C7.57745 104.312 4.35653 100.9 2.08175 97.7482C1.11547 96.4233 0.370633 95.1788 -0.19303 93.9342C-0.93787 92.3485 -1.4814 90.6624 -1.84376 88.916C-1.86388 88.8356 -1.8035 88.7554 -1.72297 88.7354C-1.64245 88.7152 -1.56193 88.7755 -1.54179 88.8558C-1.19957 90.562 -0.65604 92.228 0.0887998 93.7937C0.652462 95.0183 1.39731 96.2427 2.34345 97.5474C4.61823 100.699 7.81902 104.092 11.6439 107.384C11.6641 107.403 11.6841 107.444 11.6841 107.463L15.9116 131.21L22.6755 131.13C22.1119 125.71 21.4476 120.29 20.6826 114.991C19.6157 107.564 19.1527 105.837 18.1662 103.77C17.3007 101.984 15.7305 99.635 12.59 94.978L12.1069 94.2755C11.2816 93.031 10.4361 91.8065 9.61067 90.6021C9.57041 90.5419 9.59054 90.4415 9.65093 90.4014C9.71132 90.3612 9.81198 90.3813 9.85224 90.4415C10.6776 91.6459 11.5231 92.8905 12.3686 94.135L12.8518 94.8375C15.9921 99.4945 17.5623 101.843 18.448 103.67C19.4748 105.777 19.9176 107.524 21.0047 114.991C21.7696 120.35 22.4541 125.85 23.0178 131.31C23.0178 131.35 23.0178 131.391 22.9775 131.431C22.9574 131.471 22.9171 131.471 22.8567 131.492L15.7707 131.551Z" fill="#062D18"/>
<path d="M2.20452 97.648C-3.02948 108.106 -8.24336 118.564 -13.4572 129.023C-13.8196 128.942 -14.1618 128.862 -14.5242 128.781C-16.1145 128.4 -17.6847 128.039 -19.2751 127.658C-19.5569 127.597 -19.8387 127.516 -20.1406 127.457C-15.2892 114.409 -10.4174 101.341 -5.56596 88.2939C-4.27759 88.4947 -2.98922 88.6954 -1.72099 88.8961C-1.49954 90.0202 -1.13719 91.3451 -0.553396 92.7903C0.292099 94.8578 1.31877 96.4637 2.20452 97.648Z" fill="#062D18"/>
<path d="M19.8581 131.511C19.7776 131.511 19.7172 131.45 19.7172 131.371C19.0327 125.529 18.4288 120.27 17.8651 115.292L17.8451 115.111C17.3417 110.594 17.1002 108.527 15.9729 105.717C14.8858 103.007 13.3961 100.799 10.4369 96.4031L10.3765 96.3027C8.94722 94.1951 7.47766 92.1075 5.96785 90.1001C5.92759 90.04 5.92759 89.9396 6.00812 89.8994C6.06851 89.8593 6.16916 89.8593 6.20942 89.9396C7.71924 91.9469 9.18878 94.0345 10.6181 96.1422L10.6785 96.2425C13.6578 100.659 15.1475 102.867 16.2547 105.616C17.4022 108.467 17.6437 110.555 18.147 115.092L18.1671 115.272C18.7308 120.25 19.3347 125.509 20.0192 131.35C20.0192 131.411 19.9588 131.491 19.8581 131.511Z" fill="#062D18"/>
<path d="M15.2697 59.1877C14.867 59.1475 14.5249 58.9469 14.2833 58.6658C14.0417 58.3647 13.941 58.0034 13.9813 57.622C14.0215 57.2406 14.2229 56.8793 14.5449 56.6384C14.5852 56.5983 14.6254 56.5782 14.6858 56.5581C14.7261 56.538 14.7865 56.4979 14.8268 56.4779C14.867 56.4578 14.9274 56.4376 14.9677 56.4176H14.9878C15.0281 56.3975 15.0885 56.3975 15.1288 56.3775C15.1892 56.3775 15.2294 56.3574 15.2897 56.3574C15.3703 56.3574 15.4508 56.3574 15.5515 56.3574C15.934 56.3975 16.2762 56.5782 16.5177 56.8793C16.7593 57.1804 16.86 57.5417 16.8197 57.9231C16.8197 58.0034 16.7593 58.0636 16.6788 58.0636C16.5983 58.0636 16.5379 57.9833 16.5379 57.9031C16.5781 57.5819 16.4976 57.3009 16.2963 57.06C16.1151 56.8191 15.8333 56.6785 15.5313 56.6384C15.471 56.6384 15.3904 56.6384 15.3301 56.6384C15.2897 56.6384 15.2495 56.6384 15.2093 56.6585C15.169 56.6585 15.1288 56.6785 15.0885 56.6785H15.0683C15.0281 56.6987 14.9878 56.6987 14.9476 56.7187C14.9073 56.7388 14.867 56.7588 14.8268 56.7789C14.7865 56.799 14.7463 56.8191 14.7261 56.8392C14.4644 57.0198 14.3034 57.3009 14.2833 57.622C14.2429 57.9231 14.3436 58.2041 14.5249 58.445C14.706 58.6858 14.9878 58.8264 15.2897 58.8665C15.3703 58.8665 15.4307 58.9469 15.4307 59.0271C15.4106 59.1275 15.3502 59.1877 15.2697 59.1877Z" fill="#062D18"/>
<path d="M21.2272 53.8488C21.2877 53.909 21.3279 53.9491 21.3481 53.9693C21.2272 54.2503 20.8851 54.8926 20.1402 55.3743C19.2142 55.9766 18.2479 55.9163 17.9661 55.8963C17.7849 56.1371 16.9193 57.5222 16.6777 57.9237C16.7583 57.2211 16.2549 56.5988 15.5504 56.5185C15.4497 56.4985 15.3692 56.5185 15.329 56.5185C15.0069 56.5386 14.7653 56.6791 14.6445 56.7594C14.8056 54.5312 16.3758 52.8251 18.1674 52.6645C19.6974 52.4838 20.8447 53.4674 21.2272 53.8488Z" fill="#062D18"/>
<path d="M13.8988 60.2315C13.8786 60.2315 13.8585 60.2315 13.8383 60.2114C13.7578 60.1713 13.7377 60.091 13.7779 60.0107L14.4422 58.6458C14.4825 58.5654 14.5631 58.5454 14.6436 58.5855C14.7241 58.6257 14.7442 58.7059 14.704 58.7862L14.0397 60.1513C13.9994 60.1914 13.9591 60.2315 13.8988 60.2315Z" fill="#062D18"/>
<path d="M17.2613 62.259C17.2411 62.259 17.221 62.259 17.1808 62.2389C17.1002 62.1988 17.0801 62.0984 17.1204 62.0382L17.664 61.0546C17.7042 60.9944 17.7847 60.9542 17.8652 60.9944C17.9054 61.0145 17.9458 61.0345 17.986 61.0546C18.5094 61.2754 19.3147 61.4962 20.14 61.2353C21.8913 60.6933 22.9986 58.2243 22.3947 56.1367C22.1732 55.3538 21.7706 54.6312 21.227 54.0691C20.2608 53.0455 18.9724 52.6439 17.7847 52.9651C16.3756 53.3666 15.3892 54.7917 15.3288 56.5181C15.3288 56.5984 15.2683 56.6586 15.1878 56.6586C15.1073 56.6586 15.0469 56.5984 15.0469 56.5181C15.1073 54.6513 16.1742 53.1257 17.7243 52.6841C19.0127 52.3228 20.4017 52.7644 21.4485 53.8685C22.0323 54.4707 22.455 55.2334 22.6966 56.0564C23.3408 58.2845 22.1329 60.9542 20.2406 61.5363C19.3347 61.8174 18.4692 61.5766 17.8854 61.3357L17.4022 62.1988C17.362 62.2389 17.3015 62.259 17.2613 62.259Z" fill="#062D18"/>
<path d="M18.0068 61.095C17.9263 61.1753 17.8458 61.2756 17.7652 61.376C17.6445 61.5366 17.5639 61.6772 17.5035 61.7976C17.282 61.5366 17.0002 61.1954 16.7386 60.7137C16.5372 60.3322 16.4165 59.9909 16.3359 59.71C16.5574 60.0512 16.9399 60.533 17.5438 60.8742C17.725 60.9746 17.8659 61.0348 18.0068 61.095Z" fill="#062D18"/>
<path d="M28.1331 76.6316C28.0526 76.6316 27.9922 76.5713 27.9922 76.5111C27.972 76.4308 28.0324 76.3505 28.1129 76.3505C28.2538 76.3104 28.3545 76.2903 28.4753 76.2702C29.8442 75.9089 30.9513 75.3067 31.7365 74.4636C31.7969 74.4034 31.8774 74.303 31.9781 74.1826C33.1456 72.8778 33.9106 72.1552 34.3133 72.2355C34.5347 72.2757 34.6353 72.4161 34.6353 72.4161C34.7963 72.6169 34.736 72.8979 34.6957 73.0384C34.6756 73.1187 34.5749 73.1588 34.5145 73.1388C34.434 73.1187 34.3938 73.0183 34.4138 72.9582C34.434 72.8979 34.4743 72.7173 34.4138 72.6169C34.4138 72.6169 34.3535 72.5566 34.2528 72.5366C34.0313 72.4965 33.3469 73.1187 32.1995 74.3834C32.0988 74.5038 32.0183 74.584 31.9378 74.6644C31.1124 75.5476 29.9649 76.1899 28.5356 76.5512C28.4149 76.5913 28.2942 76.6115 28.1733 76.6316C28.1733 76.6316 28.1532 76.6316 28.1331 76.6316Z" fill="#062D18"/>
<path d="M33.6069 72.8574C33.5666 72.8574 33.5264 72.8374 33.5062 72.8173C33.4458 72.757 33.4458 72.6566 33.5062 72.5965C34.1101 71.9943 34.6939 71.7534 34.9959 71.9741C35.1167 72.0545 35.1771 72.1949 35.1971 72.4158C35.1971 72.4961 35.1368 72.5763 35.0562 72.5763C34.9757 72.5763 34.8952 72.5161 34.8952 72.4358C34.8952 72.3354 34.855 72.2552 34.8148 72.215C34.6939 72.1348 34.251 72.2552 33.7075 72.8173C33.6873 72.8374 33.6471 72.8574 33.6069 72.8574Z" fill="#062D18"/>
<path d="M33.8491 72.6369C33.8089 72.6369 33.7686 72.6169 33.7484 72.5968C33.688 72.5366 33.688 72.4362 33.7484 72.376C34.4128 71.7538 34.9966 71.5129 35.3187 71.7336C35.4193 71.8139 35.4797 71.9344 35.4998 72.0949C35.52 72.1752 35.4596 72.2556 35.3791 72.2556C35.2985 72.2556 35.218 72.2155 35.218 72.1351C35.218 72.0749 35.1978 72.0147 35.1576 71.9745C35.0368 71.8943 34.5939 72.0147 33.9698 72.5968C33.9296 72.6369 33.8894 72.6369 33.8491 72.6369Z" fill="#062D18"/>
<path d="M26.7626 80.7461C26.6821 80.7461 26.6016 80.6859 26.6016 80.5855C26.6016 80.5052 26.6619 80.445 26.7425 80.445H26.7626C27.125 80.425 27.5074 80.3647 27.8698 80.2643C28.1114 80.2041 28.3328 80.1238 28.5542 80.0234C29.5407 79.602 30.1849 78.9395 30.5472 78.4578C30.6076 78.3976 30.6881 78.3775 30.7687 78.4377C30.829 78.498 30.8492 78.5782 30.7888 78.6585C30.4063 79.1603 29.7219 79.8629 28.6751 80.3246C28.4335 80.425 28.2121 80.5052 27.9503 80.5855C27.5678 80.6859 27.1653 80.7461 26.7828 80.7662C26.7828 80.7461 26.7828 80.7461 26.7626 80.7461Z" fill="#062D18"/>
<path d="M28.3352 76.4102C28.0936 77.7751 27.8319 79.1401 27.5904 80.505C27.4696 80.5252 27.3287 80.5653 27.1877 80.5853C27.0468 80.6054 26.9059 80.6054 26.7852 80.6054C27.2482 79.2204 27.691 77.8554 28.1541 76.4703C28.2144 76.4503 28.2748 76.4302 28.3352 76.4102Z" fill="#062D18"/>
<path d="M173.416 132.113C172.893 132.454 172.088 132.896 171.02 133.117C169.611 133.397 168.947 133.036 168.061 133.378C167.356 133.639 166.491 134.341 165.867 136.328C168.947 136.328 171.422 136.328 173.214 136.349C173.738 136.349 175.107 136.388 176.959 136.388C178.167 136.388 179.153 136.369 179.817 136.369C179.777 135.265 179.737 134.18 179.696 133.076C177.603 132.735 175.509 132.435 173.416 132.113Z" fill="#062D18"/>
<path d="M188.09 88.1133C187.909 89.9801 187.366 92.2685 186.057 94.4966C184.709 96.785 182.897 98.451 182.011 99.2138C181.77 99.4145 181.528 99.6354 181.287 99.836C178.549 102.185 175.208 104.995 171.302 108.086C172.63 112.201 178.227 128.922 179.636 133.037C178.609 132.937 177.543 132.816 176.455 132.676C175.348 132.535 174.282 132.375 173.254 132.214C172.771 131.351 172.087 130.086 171.262 128.541C169.832 125.831 168.967 124.145 168 122.198C162.967 112.041 162.203 108.849 162.424 106.881C162.485 106.44 162.585 106.099 162.605 105.998C163.31 103.188 164.92 101.141 170.759 96.1626C171.926 95.1791 173.435 93.9144 175.227 92.4892" fill="#138648"/>
<path d="M169.027 64.2262C168.946 64.2262 168.866 64.1659 168.866 64.0656C168.866 63.9652 168.927 63.905 169.027 63.905C169.229 63.905 169.41 63.8648 169.591 63.7645C169.953 63.5637 170.194 63.1623 170.194 62.7609C170.194 62.1185 169.672 61.5966 169.027 61.5966C168.705 61.5966 168.382 61.7371 168.161 61.978C168.141 61.998 168.121 62.0381 168.101 62.0583C168.061 62.1185 167.96 62.1385 167.88 62.0783C167.799 62.0181 167.799 61.9378 167.859 61.8575C167.88 61.8174 167.92 61.7973 167.94 61.7571C168.222 61.4561 168.604 61.2754 169.027 61.2754C169.832 61.2754 170.496 61.9378 170.496 62.7407C170.496 63.2627 170.215 63.7645 169.732 64.0254C169.53 64.1458 169.268 64.2262 169.027 64.2262Z" fill="#062D18"/>
<path d="M170.861 62.3796C170.76 62.8816 170.538 63.3633 170.538 63.3633C170.297 63.9052 169.976 64.2665 169.754 64.5074C169.895 64.7483 170.055 64.9691 170.197 65.21C169.995 65.2702 169.814 65.3304 169.612 65.3907C169.472 64.949 169.31 64.5074 169.17 64.0659C169.271 64.0457 169.834 63.9454 170.136 63.4435C170.176 63.3633 170.317 63.1224 170.317 62.7611C170.317 62.0384 169.733 61.4564 169.009 61.4564C168.626 61.4564 168.264 61.6169 168.043 61.8979L167.519 60.1917C166.291 60.0312 165.083 59.8705 163.855 59.71C164.097 59.4289 164.399 59.168 164.721 58.9271C166.07 57.9636 167.962 57.5019 169.371 58.4654C170.719 59.3286 171.102 61.0749 170.861 62.3796Z" fill="#062D18"/>
<path d="M166.026 66.2739C165.886 66.2739 165.745 66.2538 165.604 66.2338C165.524 66.2137 165.423 66.1936 165.322 66.1735C165.141 66.1334 163.591 65.732 162.867 64.2666C162.081 62.7009 162.725 60.814 163.712 59.6497C163.732 59.6297 163.752 59.6096 163.772 59.5896C164.034 59.3085 164.336 59.0275 164.678 58.7866C165.906 57.9034 167.919 57.241 169.509 58.3249C170.898 59.2483 171.26 61.0951 171.019 62.4199C170.898 63.1023 170.596 63.7648 170.134 64.3469C170.053 64.4473 169.972 64.5476 169.892 64.6279C169.832 64.6881 169.731 64.6881 169.67 64.6279C169.61 64.5677 169.61 64.4673 169.67 64.4071C169.751 64.3268 169.832 64.2264 169.892 64.1461C170.334 63.6042 170.617 63.002 170.717 62.3596C170.939 61.1352 170.596 59.4289 169.328 58.5859C167.878 57.6023 166.007 58.2245 164.859 59.0475C164.537 59.2884 164.255 59.5293 164.014 59.8104C163.993 59.8304 163.974 59.8505 163.974 59.8706C163.269 60.6936 162.323 62.5203 163.148 64.1662C163.812 65.4911 165.241 65.8725 165.403 65.9126C165.483 65.9326 165.564 65.9527 165.664 65.9527C165.785 65.9728 165.926 65.9929 166.047 65.9929C166.128 65.9929 166.188 66.0731 166.188 66.1534C166.168 66.2137 166.107 66.2739 166.026 66.2739Z" fill="#062D18"/>
<path d="M167.235 68.2405C167.175 68.2405 167.135 68.2205 167.115 68.1602L165.907 66.1729C165.866 66.0927 165.887 66.0124 165.968 65.9723C166.048 65.9321 166.128 65.9521 166.169 66.0324L167.377 68.0197C167.417 68.0999 167.397 68.1803 167.316 68.2205C167.276 68.2405 167.256 68.2405 167.235 68.2405Z" fill="#062D18"/>
<path d="M170.963 66.5541C170.922 66.5541 170.862 66.534 170.842 66.4938L169.634 64.5869C169.594 64.5065 169.614 64.4263 169.675 64.3861C169.735 64.346 169.835 64.366 169.875 64.4263L171.084 66.3333C171.124 66.4136 171.103 66.4938 171.043 66.534C171.023 66.534 171.003 66.5541 170.963 66.5541Z" fill="#062D18"/>
<path d="M167.84 65.1094C167.739 65.3302 167.599 65.6113 167.356 65.8923C166.994 66.3339 166.612 66.5748 166.35 66.7153C166.188 66.4744 166.028 66.2536 165.867 66.0127C166.068 66.0127 166.37 66.0127 166.692 65.9123C167.296 65.6915 167.678 65.2901 167.84 65.1094Z" fill="#062D18"/>
<path d="M138.653 72.175C138.572 72.175 138.511 72.1147 138.511 72.0545C138.492 71.9742 138.552 71.894 138.632 71.8738C139.015 71.8137 139.417 71.7534 139.841 71.6732L140.324 71.5928C140.403 71.5728 140.465 71.5728 140.545 71.5527C140.626 71.5327 140.706 71.5928 140.726 71.6732C140.746 71.7534 140.686 71.8337 140.605 71.8538C140.525 71.8738 140.464 71.8738 140.384 71.894L139.901 71.9742C139.478 72.0345 139.075 72.1147 138.693 72.175C138.653 72.175 138.653 72.175 138.653 72.175Z" fill="#062D18"/>
<path d="M134.504 73.0586C134.483 73.159 134.504 73.2995 134.564 73.4199C134.664 73.5806 134.886 73.6407 135.168 73.6608" fill="#062D18"/>
<path d="M135.169 73.8012C134.806 73.7812 134.565 73.6808 134.444 73.5001C134.363 73.3596 134.323 73.199 134.363 73.0384C134.384 72.9582 134.465 72.8979 134.544 72.9179C134.625 72.938 134.686 73.0183 134.665 73.0986C134.646 73.1789 134.665 73.2793 134.706 73.3395C134.766 73.4399 134.948 73.5001 135.189 73.5201C135.27 73.5201 135.33 73.6005 135.33 73.6808C135.31 73.7409 135.249 73.8012 135.169 73.8012Z" fill="#062D18"/>
<path d="M141.692 75.909C141.611 75.909 141.551 75.8489 141.551 75.7886C141.53 75.7084 141.591 75.6281 141.672 75.608C141.994 75.5678 142.275 75.5076 142.577 75.4273C143.041 75.3069 143.484 75.1263 143.926 74.9054C144.088 74.8251 144.228 74.7449 144.389 74.6445L144.409 74.6245C144.49 74.5842 144.571 74.6043 144.61 74.6646C144.651 74.7449 144.631 74.8251 144.571 74.8653L144.55 74.8854C144.389 74.9858 144.228 75.066 144.067 75.1463C143.624 75.3671 143.141 75.5477 142.679 75.6882C142.376 75.7686 142.074 75.8288 141.732 75.889C141.712 75.909 141.712 75.909 141.692 75.909Z" fill="#062D18"/>
<path d="M141.689 75.7487C141.287 75.8089 140.945 75.8089 140.663 75.8089C140.22 76.1903 139.818 76.5717 139.495 76.8929C139.173 77.214 138.932 77.495 138.711 77.7159C138.509 77.4348 138.307 77.1538 138.107 76.8728C138.288 76.672 138.489 76.4512 138.73 76.1702C138.811 76.0699 139.616 75.1064 139.535 75.026C139.475 74.9658 138.912 75.3873 137.643 76.2705C137.402 75.9695 137.14 75.6483 136.879 75.3673C137.483 74.9658 138.126 74.5443 138.852 74.0425C138.549 74.203 138.086 74.4439 137.483 74.745C137.16 74.9056 136.898 75.026 136.657 75.1264C136.376 74.8253 136.114 74.5443 135.812 74.2431C136.476 73.9421 137.824 73.3399 138.368 73.0388C138.126 73.099 137.785 73.1994 137.362 73.2997C136.516 73.4804 135.731 73.661 135.188 73.6409C134.967 73.4403 134.744 73.2395 134.523 73.0588C134.523 73.0388 134.523 73.0187 134.543 72.9987C134.684 72.5971 135.389 72.5169 135.671 72.4767C136.355 72.3965 137.381 72.2358 138.67 72.0352C139.757 73.1793 140.784 74.4238 141.689 75.7487Z" fill="#062D18"/>
<path d="M136.638 75.1258C135.27 75.728 134.968 75.6678 134.806 75.5474C134.665 75.427 134.625 75.2061 134.646 75.0455C134.706 74.7846 134.987 74.624 135.551 74.3631C135.612 74.3429 135.692 74.3028 135.773 74.2627C136.075 74.5437 136.357 74.8247 136.638 75.1258Z" fill="#062D18"/>
<path d="M137.624 76.2704C137.543 76.3307 137.463 76.3708 137.382 76.4311C136.818 76.8124 136.396 77.0934 136.094 76.9329C135.913 76.8325 135.832 76.6117 135.832 76.4311C135.832 76.0295 136.275 75.7486 136.556 75.5478C136.658 75.4876 136.738 75.4274 136.839 75.3672C137.12 75.6682 137.362 75.9694 137.624 76.2704Z" fill="#062D18"/>
<path d="M138.712 77.7356C138.35 78.117 138.088 78.3178 137.826 78.2575C137.665 78.2174 137.524 78.0769 137.484 77.9363C137.403 77.6553 137.645 77.3944 138.088 76.8926C138.309 77.1736 138.511 77.4545 138.712 77.7356Z" fill="#062D18"/>
<path d="M144.551 72.4567C144.53 72.4567 144.511 72.4567 144.49 72.4366L144.309 72.3563C141.933 71.4129 140.041 70.7104 139.397 70.5497C138.834 70.4092 138.672 70.5297 138.632 70.5698C138.592 70.61 138.592 70.6702 138.572 70.6902C138.551 70.8709 139.135 71.2723 140.282 71.6538C140.363 71.6739 140.403 71.7743 140.384 71.8344C140.363 71.9147 140.263 71.9549 140.203 71.9348C139.296 71.6337 138.249 71.172 138.29 70.6702C138.29 70.63 138.31 70.4895 138.411 70.3691C138.592 70.1683 138.954 70.1282 139.477 70.2687C140.142 70.4493 142.034 71.1318 144.43 72.0953L144.611 72.1757C144.692 72.2158 144.732 72.2961 144.692 72.3764C144.671 72.4165 144.611 72.4567 144.551 72.4567Z" fill="#062D18"/>
<path d="M144.548 72.2956C144.528 73.1186 144.488 73.9416 144.467 74.7847C144.326 74.865 144.165 74.9653 143.984 75.0456L144.367 72.2354C144.427 72.2555 144.488 72.2756 144.548 72.2956Z" fill="#062D18"/>
<path d="M172.613 93.5329C172.552 93.5329 172.492 93.4928 172.472 93.4325L166.916 77.354C166.353 77.9159 165.748 78.458 165.125 78.9598C162.93 80.7865 160.857 82.4927 158.401 82.8339C157.213 82.9945 156.407 82.6934 153.005 81.4087L152.703 81.2883C149.865 80.2244 147.067 79.0401 144.369 77.8157C144.309 77.7955 144.289 77.7353 144.289 77.6751L144.389 72.2955C144.389 72.2554 144.41 72.2152 144.45 72.1751C144.49 72.155 144.531 72.1349 144.57 72.155C149.261 73.3794 153.931 74.5838 158.622 75.7883C160.172 74.2024 161.803 72.6368 163.473 71.1715L163.494 71.1513C166.916 68.1003 168.627 66.5747 169.855 66.3338C174.666 65.3904 179.699 71.9342 183.363 76.7116L183.484 76.8722C186 80.1441 188.154 83.7171 189.865 87.5109C189.885 87.5511 189.885 87.5912 189.865 87.6313C189.844 87.6716 189.825 87.6916 189.784 87.7117L184.993 89.3376C180.121 90.9836 173.237 93.3321 172.673 93.5329C172.653 93.5329 172.633 93.5329 172.613 93.5329ZM166.977 76.9324C166.996 76.9324 166.996 76.9324 167.017 76.9324C167.077 76.9524 167.117 76.9726 167.117 77.0328L172.694 93.1916C173.841 92.8102 180.263 90.6223 184.872 89.0565L189.503 87.4708C187.811 83.7573 185.698 80.2645 183.242 77.0528L183.122 76.8923C179.497 72.1751 174.525 65.7316 169.895 66.6348C168.748 66.8557 167.057 68.3612 163.675 71.3721L163.654 71.3922C161.964 72.8977 160.333 74.4634 158.763 76.0693C158.723 76.1094 158.662 76.1294 158.622 76.1094C153.972 74.905 149.321 73.7006 144.672 72.4963L144.591 77.5948C147.268 78.8193 150.026 79.9635 152.824 81.0273L153.126 81.1478C156.549 82.4525 157.253 82.7135 158.38 82.5529C160.736 82.2317 162.769 80.5456 164.943 78.7389C165.627 78.177 166.272 77.5748 166.896 76.9725C166.916 76.9524 166.956 76.9324 166.977 76.9324Z" fill="#062D18"/>
<path d="M147.187 75.4071C147.148 75.4071 147.108 75.3871 147.067 75.347L145.638 73.721C145.578 73.6608 145.597 73.5605 145.658 73.5002C145.718 73.44 145.819 73.4601 145.88 73.5203L147.309 75.1462C147.37 75.2065 147.349 75.3068 147.289 75.367C147.268 75.4071 147.228 75.4071 147.187 75.4071Z" fill="#062D18"/>
<path d="M168.544 75.2265C168.503 75.2265 168.463 75.2065 168.422 75.1663L166.994 73.5404C166.933 73.4802 166.953 73.3798 167.013 73.3196C167.074 73.2593 167.175 73.2794 167.235 73.3397L168.665 74.9656C168.725 75.0258 168.705 75.1262 168.644 75.1864C168.624 75.2065 168.584 75.2265 168.544 75.2265Z" fill="#062D18"/>
<path d="M176.657 82.6132C176.617 82.6132 176.577 82.5931 176.536 82.553L175.107 80.9271C175.046 80.8668 175.067 80.7665 175.127 80.7063C175.187 80.6461 175.288 80.6661 175.348 80.7263L176.778 82.3523C176.838 82.4124 176.819 82.5128 176.758 82.5731C176.738 82.5931 176.698 82.6132 176.657 82.6132Z" fill="#062D18"/>
<path d="M177.383 88.4941C177.344 88.4941 177.304 88.4741 177.263 88.4339L175.833 86.808C175.773 86.7477 175.793 86.6474 175.854 86.5872C175.914 86.5269 176.014 86.547 176.075 86.6072L177.504 88.2332C177.565 88.2934 177.545 88.3937 177.485 88.454C177.444 88.4741 177.404 88.4941 177.383 88.4941Z" fill="#062D18"/>
<path d="M169.754 80.2648H169.734C169.653 80.2447 169.593 80.1845 169.613 80.0841L169.935 77.9564C169.955 77.876 170.036 77.8159 170.117 77.8359C170.197 77.856 170.257 77.9162 170.238 78.0166L169.915 80.1444C169.895 80.2046 169.834 80.2648 169.754 80.2648Z" fill="#062D18"/>
<path d="M176.073 92.3682C176.032 92.3682 175.992 92.3481 175.952 92.308L175.126 91.3646C175.066 91.3043 175.086 91.204 175.147 91.1438C175.207 91.0836 175.307 91.1036 175.368 91.1638L176.193 92.1072C176.254 92.1675 176.233 92.2679 176.173 92.3281C176.133 92.3481 176.113 92.3682 176.073 92.3682Z" fill="#062D18"/>
<path d="M171.946 91.6458C171.865 91.6458 171.805 91.5857 171.805 91.5053C171.805 91.4251 171.865 91.3448 171.946 91.3448L172.63 91.3047C172.711 91.3047 172.791 91.3649 172.791 91.4452C172.791 91.5254 172.731 91.6057 172.651 91.6057L171.946 91.6458C171.966 91.6458 171.966 91.6458 171.946 91.6458Z" fill="#062D18"/>
<path d="M172.974 75.7285C172.933 75.7285 172.893 75.7084 172.853 75.6683L171.423 74.0423C171.363 73.9821 171.382 73.8818 171.443 73.8215C171.503 73.7613 171.605 73.7814 171.665 73.8416L173.094 75.4675C173.155 75.5277 173.134 75.6281 173.074 75.6884C173.053 75.7285 173.014 75.7285 172.974 75.7285Z" fill="#062D18"/>
<path d="M148.575 78.1164C148.534 78.1164 148.495 78.0963 148.455 78.0562C148.394 77.9959 148.414 77.8956 148.474 77.8354L150.166 76.4905C150.226 76.4302 150.326 76.4503 150.387 76.5106C150.447 76.5707 150.428 76.6711 150.366 76.7314L148.676 78.0763C148.636 78.0963 148.615 78.1164 148.575 78.1164Z" fill="#062D18"/>
<path d="M165.104 78.9602C165.083 78.9602 165.063 78.9602 165.023 78.9402L164.076 78.3983C163.996 78.3581 163.976 78.2577 164.016 78.1975C164.057 78.1172 164.157 78.0971 164.217 78.1372L165.164 78.6793C165.244 78.7194 165.264 78.8198 165.224 78.88C165.204 78.9201 165.144 78.9602 165.104 78.9602Z" fill="#062D18"/>
<path d="M173.419 79.0999C173.379 79.0999 173.338 79.0797 173.298 79.0396C173.238 78.9794 173.258 78.879 173.319 78.8188L175.009 77.4739C175.069 77.4136 175.17 77.4337 175.231 77.494C175.291 77.5542 175.271 77.6545 175.211 77.7148L173.519 79.0596C173.479 79.0797 173.439 79.0999 173.419 79.0999Z" fill="#062D18"/>
<path d="M161.361 77.1935C161.32 77.1935 161.28 77.1734 161.24 77.1333C161.179 77.0731 161.199 76.9728 161.259 76.9125L162.951 75.5677C163.011 75.5074 163.111 75.5274 163.172 75.5877C163.232 75.6479 163.213 75.7483 163.152 75.8085L161.461 77.1534C161.421 77.1734 161.4 77.1935 161.361 77.1935Z" fill="#062D18"/>
<path d="M170.376 84.6808C170.336 84.6808 170.296 84.6608 170.255 84.6206C170.195 84.5604 170.215 84.46 170.276 84.3997L171.966 83.0549C172.026 82.9947 172.128 83.0148 172.188 83.0749C172.248 83.1352 172.228 83.2356 172.168 83.2958L170.477 84.6406C170.457 84.6808 170.417 84.6808 170.376 84.6808Z" fill="#062D18"/>
<path d="M151.755 80.9267C151.675 80.9267 151.594 80.8464 151.594 80.7662L151.635 79.4815C151.635 79.4012 151.715 79.321 151.795 79.341C151.876 79.341 151.937 79.4212 151.937 79.5016L151.896 80.7863C151.916 80.8666 151.835 80.9267 151.755 80.9267Z" fill="#062D18"/>
<path d="M155.38 79.4611C155.32 79.4611 155.259 79.4209 155.24 79.3607L154.595 77.2931C154.575 77.2129 154.616 77.1326 154.696 77.1125C154.776 77.0925 154.857 77.1326 154.877 77.2129L155.521 79.2804C155.542 79.3607 155.501 79.441 155.421 79.4611C155.421 79.441 155.4 79.4611 155.38 79.4611Z" fill="#062D18"/>
<path d="M157.353 81.7697C157.312 81.7697 157.272 81.7496 157.232 81.7095C157.172 81.6492 157.191 81.5489 157.251 81.4887L158.943 80.1438C159.003 80.0836 159.104 80.1036 159.164 80.1639C159.224 80.224 159.205 80.3244 159.144 80.3847L157.453 81.7296C157.413 81.7496 157.372 81.7697 157.353 81.7697Z" fill="#062D18"/>
<path d="M152.986 75.9889C152.905 75.9889 152.844 75.9287 152.844 75.8484L152.703 74.4633C152.703 74.3831 152.763 74.3027 152.844 74.3027C152.925 74.3027 153.005 74.363 153.005 74.4432L153.146 75.8283C153.127 75.9086 153.066 75.9889 152.986 75.9889Z" fill="#062D18"/>
<path d="M158.197 77.1532C158.177 77.1532 158.177 77.1532 158.156 77.1532C158.076 77.1332 158.036 77.0529 158.056 76.9726L158.358 75.8887C158.378 75.8084 158.458 75.7683 158.539 75.7883C158.62 75.8084 158.66 75.8887 158.639 75.9689L158.337 77.0529C158.318 77.1131 158.258 77.1532 158.197 77.1532Z" fill="#062D18"/>
<path d="M169.008 70.2686C168.987 70.2686 168.967 70.2686 168.967 70.2686L166.934 69.566C166.854 69.546 166.813 69.4456 166.833 69.3652C166.854 69.285 166.954 69.2448 167.035 69.2649L169.068 69.9674C169.148 69.9876 169.189 70.0879 169.168 70.1682C169.129 70.2485 169.068 70.2686 169.008 70.2686Z" fill="#062D18"/>
<path d="M164.136 73.8414C164.055 73.8414 163.995 73.7813 163.995 73.7009L163.793 71.5531C163.793 71.4728 163.853 71.3926 163.934 71.3926C164.015 71.3926 164.095 71.4527 164.095 71.5331L164.296 73.6809C164.296 73.7612 164.236 73.8414 164.136 73.8414C164.155 73.8414 164.155 73.8414 164.136 73.8414Z" fill="#062D18"/>
<path d="M172.792 88.4949C172.711 88.4949 172.651 88.4346 172.651 88.3544L172.449 86.2065C172.449 86.1262 172.51 86.0459 172.59 86.0459C172.671 86.0459 172.751 86.1062 172.751 86.1864L172.953 88.3342C172.953 88.4145 172.892 88.4949 172.792 88.4949Z" fill="#062D18"/>
<path d="M171.786 71.3324C171.746 71.3324 171.705 71.3124 171.665 71.2722C171.605 71.212 171.625 71.1116 171.686 71.0514L173.316 69.6262C173.376 69.566 173.477 69.586 173.538 69.6463C173.598 69.7065 173.578 69.8069 173.517 69.8671L171.887 71.2923C171.846 71.3324 171.806 71.3324 171.786 71.3324Z" fill="#062D18"/>
<path d="M172.027 67.6186C171.946 67.6186 171.886 67.5583 171.886 67.4781L171.805 66.5347C171.805 66.4543 171.865 66.374 171.946 66.374C172.027 66.374 172.107 66.4343 172.107 66.5145L172.187 67.458C172.187 67.5383 172.127 67.6186 172.027 67.6186C172.046 67.6186 172.046 67.6186 172.027 67.6186Z" fill="#062D18"/>
<path d="M103.684 114.368H70.4072C70.3266 114.368 70.2461 114.309 70.2461 114.207C70.2461 114.107 70.3065 114.048 70.4072 114.048H103.684C103.763 114.048 103.844 114.107 103.844 114.207C103.844 114.309 103.763 114.368 103.684 114.368Z" fill="#062D18"/>
<path d="M134.14 114.368C134.06 114.368 133.999 114.309 133.98 114.228C133.959 114.148 134.04 114.067 134.12 114.067L157.895 114.027C157.975 114.027 158.036 114.088 158.056 114.168C158.076 114.248 157.996 114.328 157.915 114.328L134.14 114.368Z" fill="#062D18"/>
<path d="M39.9478 114.368H27.5673C27.4868 114.368 27.4062 114.309 27.4062 114.207C27.4062 114.107 27.4667 114.048 27.5673 114.048H39.9478C40.0283 114.048 40.1088 114.107 40.1088 114.207C40.1088 114.309 40.0283 114.368 39.9478 114.368Z" fill="#062D18"/>
</g>
</g>
</g>
</g>
<defs>
<clipPath id="clip0_5340_51186">
<rect width="176" height="176" fill="white"/>
</clipPath>
<clipPath id="clip1_5340_51186">
<rect width="176" height="176" fill="white"/>
</clipPath>
</defs>
</svg>
