<svg width="176" height="176" viewBox="0 0 176 176" fill="none" xmlns="http://www.w3.org/2000/svg">
<g clip-path="url(#clip0_5340_50851)">
<g clip-path="url(#clip1_5340_50851)">
<g clip-path="url(#clip2_5340_50851)">
<mask id="mask0_5340_50851" style="mask-type:luminance" maskUnits="userSpaceOnUse" x="0" y="0" width="176" height="176">
<path d="M176 88C176 39.3989 136.601 0 88 0C39.3989 0 0 39.3989 0 88C0 136.601 39.3989 176 88 176C136.601 176 176 136.601 176 88Z" fill="white"/>
</mask>
<g mask="url(#mask0_5340_50851)">
<path d="M176 88C176 39.3989 136.601 0 88 0C39.3989 0 0 39.3989 0 88C0 136.601 39.3989 176 88 176C136.601 176 176 136.601 176 88Z" fill="#FFE599"/>
<mask id="mask1_5340_50851" style="mask-type:luminance" maskUnits="userSpaceOnUse" x="-70" y="-33" width="246" height="222">
<path d="M175.999 -32.7441H-69.582V188.279H175.999V-32.7441Z" fill="white"/>
</mask>
<g mask="url(#mask1_5340_50851)">
<path d="M45.2092 156.709C45.9591 156.709 46.5669 156.099 46.5669 155.347C46.5669 154.596 45.9591 153.986 45.2092 153.986C44.4594 153.986 43.8516 154.596 43.8516 155.347C43.8516 156.099 44.4594 156.709 45.2092 156.709Z" fill="#171A1C"/>
<path d="M141.738 77.421C141.445 77.421 141.125 77.341 140.859 77.1542C140.513 76.914 140.274 76.5671 140.194 76.1401C140.114 75.7398 140.194 75.3128 140.433 74.9658C140.912 74.2453 141.898 74.0585 142.616 74.5655C143.335 75.0459 143.522 76.0334 143.015 76.7539C142.722 77.1809 142.244 77.421 141.738 77.421ZM141.738 74.6722C141.365 74.6722 140.992 74.8591 140.779 75.1794C140.593 75.4462 140.54 75.7398 140.593 76.06C140.646 76.3803 140.833 76.6471 141.072 76.8073C141.605 77.1809 142.323 77.0474 142.696 76.5137C143.069 75.98 142.935 75.2594 142.403 74.8858C142.19 74.7524 141.978 74.6722 141.738 74.6722Z" fill="#171A1C"/>
<path d="M166.511 2.70898L162.105 7.12468L166.511 11.5404L170.915 7.12468L166.511 2.70898Z" fill="#171A1C"/>
<path d="M161.545 146.3C161.491 146.3 161.412 146.274 161.385 146.221L156.221 139.309C156.167 139.229 156.167 139.095 156.247 139.041L163.142 133.865C163.195 133.837 163.248 133.811 163.302 133.837C163.355 133.837 163.408 133.865 163.435 133.918L168.6 140.83C168.627 140.883 168.653 140.937 168.627 140.99C168.627 141.043 168.6 141.096 168.547 141.123L161.651 146.3C161.651 146.3 161.598 146.3 161.545 146.3ZM156.673 139.229L161.598 145.821L168.173 140.883L163.248 134.291L156.673 139.229Z" fill="#171A1C"/>
<path d="M155.982 34.6416C155.929 34.6416 155.902 34.6149 155.849 34.5882C155.768 34.5082 155.742 34.4015 155.822 34.2947L159.842 29.2508C159.922 29.1708 160.028 29.1441 160.134 29.2241C160.214 29.3042 160.241 29.4109 160.161 29.5177L156.142 34.5616C156.088 34.6149 156.035 34.6416 155.982 34.6416Z" fill="#171A1C"/>
<path d="M27.2924 144.539C27.2392 144.539 27.186 144.512 27.1594 144.485L22.474 140.055C22.3941 139.975 22.3941 139.842 22.474 139.761C22.5538 139.681 22.6869 139.681 22.7669 139.761L27.4521 144.192C27.5321 144.272 27.5321 144.405 27.4521 144.485C27.3989 144.512 27.3457 144.539 27.2924 144.539Z" fill="#171A1C"/>
<path d="M175.814 88.1489C175.76 88.1489 175.734 88.1223 175.68 88.0956L170.649 84.0658C170.569 83.9858 170.543 83.879 170.622 83.7723C170.702 83.6923 170.809 83.6655 170.916 83.7456L175.947 87.7753C176.027 87.8555 176.054 87.9622 175.974 88.0689C175.921 88.1223 175.868 88.1489 175.814 88.1489Z" fill="#171A1C"/>
<path d="M159.948 55.1634C161.652 57.2717 158.963 64.6373 154.41 66.025C151.189 66.9858 147.223 64.9576 142.058 65.1977C141.233 65.2244 140.248 65.3312 139.236 65.8916C137.666 66.7723 137.532 67.9465 136.52 68.6137C134.444 69.9748 130.877 67.8932 130.372 67.5996C126.617 65.4379 125.34 61.5149 123.183 54.4695C122.864 53.4554 122.598 52.548 122.332 51.6673C126.911 53.8824 131.916 54.7898 136.042 53.6422C141.579 52.0943 144.161 47.0771 147.303 48.5717C149.432 49.5857 149.113 52.2278 151.935 53.8824C155.395 55.9907 158.643 53.5621 159.948 55.1634Z" fill="#FFCA33"/>
<path d="M101.008 16.4405C101.806 18.8958 101.886 21.6179 101.008 24.0198C99.1709 29.0636 93.4473 31.8391 88.0698 31.8124C82.7189 31.7857 77.6342 29.5706 72.7892 27.2756C67.9441 24.9805 63.0191 22.5252 57.6949 21.9915C45.7154 20.7906 34.8006 29.4372 22.7943 30.3979C12.5984 31.2252 2.80179 26.4483 -7.39417 25.701C-13.0112 25.3007 -19.2939 25.9413 -23.5799 22.2851C-26.9875 19.3761 -27.8393 14.3856 -26.4817 10.0623C-21.4236 11.3433 -16.3656 12.6243 -11.3075 13.932C-6.88837 15.0529 -2.25627 16.1737 2.13626 14.9995C8.0728 13.4249 12.1725 8.11417 17.337 4.77828C23.9124 0.535013 32.5112 -0.345664 39.8053 2.50986C47.0197 5.31202 52.9829 11.5034 60.6499 12.3841C71.1387 13.585 81.2814 4.48471 91.4507 7.26018C95.8698 8.48779 99.5968 12.0639 101.008 16.4405Z" fill="#FFCA33"/>
<path d="M56.5237 118.599C57.8281 123.03 55.1926 128.073 51.0664 130.102C46.9401 132.13 41.7489 131.356 37.9421 128.767C32.8041 125.298 28.598 118.493 22.4751 119.56C20.2122 119.961 18.3222 121.428 16.4054 122.656C9.96308 126.792 2.10981 128.714 -5.5305 127.994C-12.5586 127.326 -20.3319 123.243 -21.104 116.198C-21.4234 113.262 -20.4118 110.94 -19.4268 108.939C-18.3886 106.777 -16.8978 104.749 -15.1407 102.987C-9.55031 107.925 -0.525698 111.741 8.20608 112.141C17.5235 112.568 17.417 109.926 31.6594 108.165C39.5393 107.204 48.3776 108.298 53.8084 114.09C55.0329 115.397 56.0179 116.918 56.5237 118.599Z" fill="#FFCA33"/>
<path d="M108.248 73.4707C107.716 73.4707 107.156 73.4174 106.624 73.3373C103.35 72.7501 100.368 70.3483 99.1702 67.3327C98.5845 65.8115 98.691 64.7974 98.8241 63.8366C98.9306 62.9826 99.0105 62.1553 98.5579 61.0612C96.7743 56.7912 89.4268 54.1759 84.5019 56.0706C82.8247 56.7112 81.8398 57.7787 80.9612 58.7127C79.923 59.8068 78.938 60.8743 77.0745 60.8743C74.4923 60.901 71.2178 59.2464 70.499 56.7378C69.9932 54.9498 70.9516 53.4553 71.8834 52.0142C72.8151 50.5464 73.8001 48.9986 73.4008 47.077C72.8151 44.355 69.8335 42.7805 68.955 42.3535C66.4526 41.1792 64.3495 41.6862 62.2997 42.1933C60.4362 42.647 58.4928 43.1007 56.3099 42.2734C53.7542 41.3126 52.9024 39.3644 52.0771 37.4964C51.3584 35.8685 50.6928 34.3473 48.9624 33.52C45.8478 32.0256 42.4934 34.3206 38.2607 37.1761C34.0279 40.0583 29.2094 43.3409 23.0599 43.9814C16.8838 44.6218 10.3349 42.4335 3.57313 37.4697C3.49326 37.4163 3.46665 37.2828 3.51989 37.2028C3.57314 37.1228 3.70624 37.0961 3.78611 37.1494C10.4681 42.0599 16.937 44.2215 23.0066 43.5811C29.0763 42.9405 33.8416 39.7114 38.0211 36.8558C42.174 34.027 45.7678 31.5718 49.1222 33.173C51.0122 34.0538 51.7311 35.7351 52.4498 37.3363C53.2485 39.1243 54.0471 40.9657 56.4431 41.8998C58.5194 42.6737 60.3031 42.2467 62.1932 41.793C64.2963 41.2859 66.4792 40.7522 69.1147 41.9798C70.0465 42.4068 73.1612 44.0614 73.8001 46.9703C74.2526 49.0519 73.2144 50.6531 72.2294 52.201C71.3244 53.6421 70.4458 55.0032 70.8984 56.6044C71.5639 58.9261 74.6254 60.474 77.0745 60.4474C78.7517 60.4207 79.6567 59.4866 80.6684 58.3924C81.5735 57.4317 82.6117 56.3375 84.3687 55.6703C89.4534 53.6955 97.0671 56.4176 98.9306 60.8743C99.4364 62.0753 99.33 62.9826 99.2234 63.8366C99.1169 64.7707 99.0105 65.7314 99.5695 67.1458C100.688 70.028 103.562 72.3231 106.704 72.8835C110.377 73.5507 113.892 71.7361 115.809 70.0013C117.273 68.667 118.098 67.1458 117.991 65.9715C117.912 64.8241 116.979 64.2636 115.729 63.4896C114.291 62.5823 112.481 61.4882 111.07 58.9795C109.978 57.0314 109.898 55.5903 109.845 54.3093C109.765 53.055 109.712 51.9875 108.807 50.6265C107.076 48.0912 104.308 47.5575 101.886 47.077C99.7824 46.6767 97.9989 46.3031 97.4398 44.7553C96.7743 42.9139 98.1852 40.4053 99.7292 38.6706C101.646 36.509 104.628 34.5608 106.97 35.0945C108.461 35.4415 109.047 36.7491 109.845 38.5906C110.271 39.578 110.751 40.6722 111.469 41.8731C113.785 45.7427 117.805 49.2655 122.464 51.5338C122.57 51.5872 122.597 51.694 122.544 51.8007C122.491 51.9074 122.384 51.9341 122.278 51.8808C117.539 49.5856 113.492 46.0096 111.123 42.0866C110.377 40.8589 109.898 39.7381 109.473 38.7507C108.7 36.9627 108.168 35.7884 106.863 35.4948C104.681 34.9878 101.859 36.8825 100.022 38.9642C98.1852 41.0458 97.3333 43.2608 97.8125 44.6485C98.2917 46.0096 99.9955 46.3299 101.965 46.7302C104.362 47.2105 107.317 47.7709 109.154 50.4397C110.138 51.8808 110.191 53.055 110.271 54.3093C110.351 55.5903 110.404 56.9246 111.469 58.7927C112.827 61.1946 114.584 62.2888 115.995 63.1695C117.3 63.9701 118.337 64.6105 118.444 65.9715C118.55 67.306 117.699 68.9072 116.128 70.3483C114.371 71.8695 111.443 73.4707 108.248 73.4707Z" fill="#171A1C"/>
<path d="M134.792 69.308C133.061 69.308 131.172 68.3471 130.266 67.8134C126.38 65.5451 125.102 61.4085 122.972 54.5499C122.653 53.5358 122.359 52.6018 122.12 51.7478C122.093 51.6677 122.12 51.5876 122.173 51.5342C122.226 51.4809 122.306 51.4809 122.386 51.5076C127.178 53.8294 132.103 54.5499 135.937 53.4557C138.385 52.7618 140.222 51.4008 141.846 50.1999C143.87 48.7054 145.494 47.5044 147.331 48.3852C148.395 48.8922 148.901 49.7996 149.407 50.7336C149.966 51.7745 150.552 52.842 151.962 53.696C153.8 54.7901 155.583 54.6033 157.048 54.4431C158.325 54.3097 159.416 54.1763 160.082 55.0036C160.774 55.8576 160.828 57.5389 160.242 59.4871C159.416 62.2091 157.287 65.3315 154.438 66.1855C152.655 66.7192 150.712 66.3724 148.422 65.9721C146.532 65.6251 144.402 65.2515 142.032 65.3582C141.181 65.3849 140.249 65.4916 139.291 66.0521C138.439 66.5325 138.04 67.0929 137.667 67.6267C137.348 68.0537 137.054 68.454 136.575 68.7742C136.07 69.1744 135.457 69.308 134.792 69.308ZM122.626 52.068C122.839 52.8152 123.079 53.5891 123.345 54.4164C125.607 61.7554 126.859 65.3582 130.452 67.4665C131.384 68.0003 134.552 69.6816 136.389 68.4807C136.815 68.2137 137.054 67.8401 137.375 67.4398C137.774 66.8794 138.226 66.2656 139.131 65.7585C140.142 65.1715 141.128 65.0646 142.032 65.0379C144.429 64.9312 146.611 65.3315 148.501 65.6518C150.738 66.0521 152.655 66.3991 154.332 65.8652C157.048 65.0379 159.071 62.049 159.869 59.4337C160.428 57.6456 160.375 56.071 159.789 55.3239C159.257 54.6567 158.298 54.7634 157.101 54.8969C155.61 55.057 153.72 55.2704 151.776 54.0963C150.258 53.1888 149.62 52.0147 149.061 50.9738C148.555 50.0398 148.129 49.2392 147.171 48.7855C145.547 48.0116 144.03 49.1324 142.086 50.5468C140.435 51.7745 138.572 53.1355 136.043 53.856C132.236 54.9236 127.364 54.283 122.626 52.068Z" fill="#171A1C"/>
<path d="M122.307 51.8816C122.227 51.8816 122.147 51.8281 122.121 51.7481C120.656 46.8643 120.257 44.1423 121.775 41.9805C123.452 39.6055 126.353 38.618 128.19 39.045C129.414 39.3386 130.027 40.0858 130.666 40.8864C131.225 41.5802 131.784 42.3008 132.822 42.8345C135.617 44.2757 139.584 43.3683 141.554 41.6069C143.391 39.979 144.269 36.9634 144.003 33.3606C143.631 28.6103 141.421 24.2603 138.36 22.2854C134.846 20.0171 130.613 21.0045 126.859 21.8851C123.718 22.6057 121.002 23.2461 119.724 21.5382C118.18 19.4833 119.91 15.8805 121.588 12.4112C123.105 9.26209 124.702 5.97956 123.372 4.43172C122.44 3.33754 120.603 3.81791 118.287 4.40502C115.412 5.15226 111.818 6.11301 108.357 4.29827C105.855 2.9906 104.816 1.01575 103.779 -0.905725C102.74 -2.88057 101.755 -4.72199 99.2794 -5.57598C97.203 -6.26985 95.7122 -5.70941 94.1149 -5.1223C92.5709 -4.53518 90.947 -3.94806 88.7374 -4.50849C85.7026 -5.28242 83.5196 -7.71095 82.2152 -9.60575C82.162 -9.68581 82.1886 -9.81924 82.2685 -9.87262C82.3483 -9.926 82.4814 -9.89931 82.5346 -9.81924C83.7859 -7.97783 85.889 -5.62936 88.8173 -4.88211C90.9203 -4.34837 92.4644 -4.9088 93.9552 -5.46924C95.5258 -6.05635 97.1764 -6.67016 99.3859 -5.92292C102.021 -5.04224 103.033 -3.12076 104.125 -1.06585C105.109 0.802254 106.148 2.75042 108.517 3.97803C111.845 5.7127 115.359 4.77864 118.18 4.05808C120.63 3.4176 122.573 2.91054 123.665 4.19153C125.129 5.95288 123.585 9.18203 121.934 12.5979C120.311 15.9606 118.633 19.4299 120.045 21.298C121.162 22.7925 123.771 22.2054 126.78 21.5115C130.426 20.6842 134.952 19.6168 138.599 21.9652C141.767 24.0201 144.056 28.4768 144.429 33.3339C144.722 37.0701 143.764 40.1925 141.847 41.9272C139.771 43.7686 135.591 44.7294 132.662 43.2082C131.545 42.6211 130.905 41.8471 130.373 41.1532C129.76 40.3793 129.228 39.7122 128.136 39.4453C125.98 38.9383 123.399 40.4594 122.147 42.2208C120.71 44.249 121.135 46.8643 122.546 51.6413C122.573 51.7481 122.52 51.8548 122.413 51.8816C122.334 51.8816 122.334 51.8816 122.307 51.8816Z" fill="#171A1C"/>
<path d="M-26.5334 10.2759C-26.5601 10.2759 -26.5601 10.2759 -26.5867 10.2759C-26.6932 10.2492 -26.7464 10.1425 -26.7198 10.0358C-26.2406 8.48792 -25.4951 7.0468 -24.5102 5.84588C-20.9962 1.46918 -14.6869 -0.825916 -8.05825 -0.13205C-7.57906 -0.0786743 -7.09989 -0.0252991 -6.64732 0.0280762C-5.05004 0.241573 -3.42614 0.45507 -1.85548 0.134823C1.2592 -0.505667 2.48379 -2.69402 3.81486 -5.04249C4.90632 -6.96396 5.99779 -8.93882 8.23398 -10.1131C11.5883 -11.9011 14.7295 -10.5934 18.0306 -9.23238C21.3849 -7.87134 24.8191 -6.43022 28.9719 -7.76459C32.3263 -8.85876 33.8171 -11.1805 35.2546 -13.4223C36.6921 -15.664 38.0233 -17.7989 41.1112 -18.2527C48.3523 -19.2934 56.2854 -9.89956 57.1639 -8.83207C58.5748 -7.09741 59.4001 -5.65629 60.0656 -4.50874C61.024 -2.85414 61.6629 -1.73328 63.34 -1.09279C67.3333 0.428383 72.0719 -2.61396 76.6774 -5.57623C78.7271 -6.8839 80.564 -8.27164 82.2944 -9.81949C82.3742 -9.89956 82.5073 -9.87288 82.5873 -9.79281C82.6671 -9.71275 82.6405 -9.57931 82.5607 -9.49925C80.8036 -7.9514 78.9668 -6.53698 76.9169 -5.2293C72.2315 -2.21365 67.3865 0.908752 63.2335 -0.69248C61.45 -1.38635 60.7844 -2.5339 59.7728 -4.26856C59.1072 -5.41611 58.3086 -6.83053 56.8977 -8.53851C56.0191 -9.606 48.2192 -18.8398 41.1912 -17.8256C38.2894 -17.3986 37.0649 -15.4505 35.6273 -13.1821C34.2163 -10.9671 32.6457 -8.48514 29.1317 -7.36428C24.8457 -5.97654 21.172 -7.49771 17.9242 -8.83207C14.6763 -10.1664 11.6415 -11.4207 8.44695 -9.73943C6.31725 -8.61858 5.2524 -6.6971 4.18755 -4.82899C2.8831 -2.5339 1.55204 -0.13205 -1.749 0.535131C-3.3729 0.882065 -5.05004 0.641882 -6.67393 0.428385C-7.1265 0.37501 -7.60568 0.294947 -8.08487 0.268259C-14.5805 -0.39892 -20.7299 1.81611 -24.1907 6.11275C-25.1225 7.26031 -25.8679 8.67472 -26.3204 10.1692C-26.3737 10.2226 -26.4535 10.2759 -26.5334 10.2759Z" fill="#171A1C"/>
<path d="M88.0946 32.0259C88.0679 32.0259 88.0679 32.0259 88.0413 32.0259C82.6904 32.0259 77.7122 29.8643 72.6808 27.4624L71.9089 27.0888C67.3566 24.9271 62.6712 22.6854 57.6665 22.1783C51.0111 21.5111 44.5422 23.9397 38.2861 26.3148C33.2814 28.2097 28.1168 30.1578 22.7926 30.5847C16.856 31.0652 10.9726 29.624 5.27573 28.2363C1.1228 27.2222 -3.16323 26.2081 -7.42263 25.8878C-8.51411 25.8078 -9.65882 25.7811 -10.7503 25.7278C-15.409 25.5676 -20.2274 25.4075 -23.7415 22.4185C-26.9626 19.6698 -28.1606 14.6793 -26.7231 9.98228C-26.6965 9.87554 -26.59 9.82216 -26.4834 9.84885L-11.3094 13.7185C-7.12979 14.786 -2.41782 15.9869 2.05455 14.786C5.8614 13.7718 8.94946 11.1565 11.9576 8.62124C13.6081 7.20681 15.3386 5.7657 17.1754 4.59146C23.8042 0.32152 32.4827 -0.559154 39.8302 2.29637C42.7052 3.41724 45.3941 5.07184 48.0029 6.67307C51.9429 9.10161 56.0426 11.6102 60.648 12.1439C65.4932 12.7044 70.3648 10.9964 75.0768 9.36847C80.4543 7.50038 86.0181 5.55221 91.5021 7.0467C95.9745 8.27431 99.8079 11.9305 101.219 16.3606C102.071 19.0025 102.071 21.7247 101.219 24.0732C99.1956 29.544 93.0195 32.0259 88.0946 32.0259ZM55.377 21.6713C56.149 21.6713 56.921 21.698 57.6931 21.778C62.7777 22.2851 67.4897 24.5535 72.0686 26.7152L72.8405 27.0888C77.8454 29.464 82.7703 31.5989 88.0413 31.5989C88.0679 31.5989 88.0679 31.5989 88.0946 31.5989C92.8598 31.5989 98.8762 29.1971 100.793 23.9397C101.618 21.6713 101.618 19.0292 100.793 16.494C99.4087 12.1973 95.7083 8.64793 91.3423 7.447C85.9915 5.9792 80.7205 7.82062 75.1567 9.76878C70.4181 11.4234 65.493 13.1314 60.5681 12.5709C55.8562 12.0372 51.7566 9.47523 47.7633 7.02001C45.181 5.41878 42.4923 3.76417 39.6705 2.67C32.4294 -0.158848 23.9106 0.721829 17.3885 4.9384C15.5782 6.11264 13.8744 7.55375 12.2239 8.94148C9.18906 11.5035 6.04774 14.1455 2.16103 15.1863C-2.39121 16.3872 -7.18303 15.1863 -11.3892 14.1188L-26.377 10.3025C-27.7081 14.786 -26.5367 19.5096 -23.4753 22.125C-20.0677 25.0072 -15.3291 25.194 -10.7503 25.3541C-9.65882 25.3808 -8.51411 25.4342 -7.39601 25.5142C-3.08336 25.8345 1.2293 26.8752 5.38221 27.8627C11.0526 29.2237 16.9093 30.6649 22.7926 30.1844C28.0636 29.7574 33.2014 27.8094 38.1797 25.9412C43.7168 23.8596 49.4671 21.6713 55.377 21.6713Z" fill="#171A1C"/>
<path d="M-15.1142 103.201C-15.1674 103.201 -15.2207 103.175 -15.2473 103.148C-18.708 100.079 -20.6514 96.8496 -20.8644 93.7271C-20.9443 92.7397 -20.8111 91.779 -20.7046 90.8449C-20.4917 89.0836 -20.332 87.5891 -21.4234 86.3348C-22.5681 85.0271 -24.2453 85.0805 -26.0022 85.1605C-27.6261 85.214 -29.3033 85.294 -30.7941 84.3332C-33.616 82.5452 -35.2665 77.2078 -34.8405 71.3633C-34.4146 65.8124 -32.2849 61.6492 -29.1436 60.2882C-24.405 58.2066 -17.6699 62.3964 -14.3953 65.9992C-12.4521 68.1609 -11.8131 69.8955 -11.2274 71.6035C-10.6418 73.2581 -10.0827 74.8059 -8.29911 76.5673C-4.5455 80.3036 1.41767 81.7713 5.35762 81.2909C7.088 81.0775 8.31258 80.517 8.81839 79.6897C9.64365 78.3554 8.41907 76.4605 7.16786 74.4857C5.73031 72.244 4.10642 69.7087 5.14465 67.467C7.06138 63.3038 16.5918 63.7308 22.1557 64.9851C29.2635 66.5863 33.3366 69.0148 33.6294 71.817C33.8957 74.2189 31.4465 76.1136 29.0772 77.9284C26.8943 79.6097 24.8444 81.2109 25.217 82.9722C25.643 84.9738 29.1038 86.3348 31.899 86.1747C37.3564 85.9078 41.0834 79.7697 42.4145 76.1937C43.8254 72.4308 43.5592 69.3885 43.3196 66.9332C43.1066 64.5847 42.9469 62.7167 44.4377 61.4089C46.3277 59.781 49.1763 60.5016 51.9183 61.1688C54.7401 61.8894 57.3756 62.5565 59.1059 60.9286C61.0493 59.0872 60.863 55.1909 59.3988 52.9225C56.9762 49.213 50.8002 49.6933 47.4725 49.9601C41.4295 50.4406 38.7673 51.6949 33.9489 53.9899C32.8042 54.5236 31.4997 55.1642 30.0356 55.8314C22.4751 59.274 16.5652 59.781 11.933 57.3792C8.60542 55.6445 6.23613 52.442 3.94669 49.3464C1.09822 45.5034 -1.59054 41.874 -5.98305 40.9132C-8.53869 40.3528 -11.1742 40.8865 -13.7298 41.4202C-14.6882 41.6071 -15.6732 41.8205 -16.6316 41.954C-22.1422 42.7547 -27.9989 41.5804 -33.1634 38.5915C-38.328 35.6025 -42.2945 31.1457 -44.371 25.9684C-46.3676 21.0046 -46.474 14.4395 -42.2679 10.8902C-38.248 7.50087 -32.3913 8.38155 -26.6677 9.84934L-26.508 9.87603C-26.4016 9.90272 -26.3484 10.0095 -26.375 10.1162C-26.4016 10.223 -26.5081 10.2763 -26.6145 10.2496L-26.7743 10.223C-32.3913 8.78186 -38.1416 7.92787 -42.0283 11.1838C-46.0747 14.5997 -45.9416 21.0046 -44.0249 25.8083C-41.975 30.9056 -38.0617 35.309 -33.0036 38.2445C-27.9456 41.1801 -22.1422 42.3544 -16.7381 41.5537C-15.7797 41.4202 -14.7947 41.2068 -13.8629 41.0199C-11.254 40.4862 -8.56531 39.9525 -5.92981 40.5129C-1.40419 41.5004 1.44429 45.37 4.21291 49.1062C6.47571 52.1486 8.81839 55.3243 12.0662 57.0056C16.5652 59.354 22.3686 58.847 29.7959 55.4578C31.2868 54.7905 32.5645 54.1768 33.7093 53.6163C38.581 51.2946 41.2431 50.0135 47.366 49.5332C50.7736 49.2663 57.1094 48.7592 59.6651 52.6556C61.2358 55.0308 61.3955 59.1673 59.319 61.1688C57.4554 62.9568 54.5538 62.2096 51.7586 61.5158C49.1231 60.8486 46.3811 60.1547 44.6506 61.6492C43.293 62.8234 43.4527 64.5047 43.6656 66.8265C43.8786 69.3351 44.1714 72.4308 42.7339 76.2738C41.3496 79.9299 37.5162 86.2281 31.8458 86.5216C28.1721 86.7084 25.1638 84.8137 24.7646 82.9989C24.3386 80.9974 26.4949 79.3161 28.7843 77.5547C31.0471 75.7934 33.4165 73.952 33.1769 71.7903C32.884 69.1749 28.9174 66.8799 21.9959 65.3053C16.1392 63.9977 7.14125 63.8108 5.41086 67.547C4.47911 69.6019 5.96992 71.9504 7.40746 74.1922C8.73853 76.3005 10.0163 78.2753 9.08461 79.8231C8.52555 80.7572 7.16786 81.3977 5.33099 81.6112C1.28456 82.0916 -4.81172 80.597 -8.64518 76.7808C-10.4821 74.9393 -11.0677 73.3382 -11.68 71.6568C-12.2656 70.0022 -12.8779 68.2943 -14.7681 66.186C-17.9626 62.6632 -24.5114 58.5801 -29.0637 60.555C-32.0719 61.8626 -34.1218 65.8924 -34.521 71.31C-34.947 77.021 -33.3763 82.1983 -30.661 83.9062C-29.2766 84.7869 -27.6528 84.7335 -26.0821 84.6535C-24.2187 84.5735 -22.4617 84.5201 -21.1838 85.9612C-19.9592 87.3223 -20.1722 89.0035 -20.3852 90.7915C-20.4917 91.6989 -20.5981 92.633 -20.5449 93.5937C-20.332 96.5827 -18.4418 99.7318 -15.061 102.721C-14.981 102.801 -14.981 102.907 -15.0343 103.014C-15.0076 103.175 -15.061 103.201 -15.1142 103.201Z" fill="#171A1C"/>
<path d="M45.9017 131.436C43.1598 131.436 40.2847 130.582 37.8355 128.928C36.2649 127.859 34.7474 126.472 33.31 125.137C29.9024 121.989 26.6812 119.027 22.5283 119.747C20.6648 120.067 19.0409 121.161 17.4437 122.202C17.1242 122.416 16.8313 122.603 16.5119 122.816C9.98966 127.006 2.163 128.901 -5.53055 128.18C-9.23091 127.833 -12.9579 126.553 -15.7531 124.631C-19.0009 122.416 -20.9177 119.507 -21.2904 116.197C-21.6098 113.262 -20.6248 110.94 -19.5866 108.832C-18.5483 106.724 -17.0576 104.642 -15.2473 102.827C-15.1675 102.748 -15.061 102.748 -14.9811 102.827C-9.15104 107.977 -0.0465698 111.554 8.23265 111.927C13.1843 112.168 15.5003 111.501 18.6948 110.593C21.5166 109.793 25.0307 108.779 31.6327 107.977C44.6772 106.377 51.1994 111.047 53.9414 113.955C55.2991 115.424 56.2308 116.944 56.71 118.519C58.0144 122.869 55.5121 128.126 51.1461 130.262C49.5489 131.062 47.7387 131.436 45.9017 131.436ZM23.7529 119.239C27.5065 119.239 30.5945 122.095 33.5761 124.844C35.0137 126.178 36.5045 127.54 38.0485 128.607C42.0417 131.303 47.0998 131.809 50.9864 129.915C55.166 127.859 57.5885 122.816 56.3373 118.653C55.8847 117.158 54.9796 115.664 53.6752 114.249C50.9864 111.368 44.5707 106.804 31.6861 108.379C25.1105 109.205 21.5965 110.193 18.8013 110.994C15.5801 111.927 13.2375 112.568 8.20604 112.355C-0.073185 111.954 -9.20428 108.405 -15.1142 103.281C-16.8446 105.043 -18.2555 107.044 -19.2405 109.046C-20.2522 111.1 -21.2105 113.342 -20.8911 116.197C-20.1456 122.95 -12.5852 127.139 -5.50394 127.806C2.10975 128.528 9.85656 126.632 16.2989 122.495C16.6184 122.309 16.9112 122.095 17.2306 121.881C18.8545 120.814 20.5317 119.694 22.4484 119.373C22.901 119.294 23.327 119.239 23.7529 119.239Z" fill="#171A1C"/>
<path d="M-15.1156 103.2C-15.1688 103.2 -15.2221 103.173 -15.2487 103.147C-15.3286 103.067 -15.3286 102.933 -15.2487 102.853C-9.7381 97.2754 -2.52372 94.7402 2.72067 96.5015C4.71726 97.1687 6.0217 98.2896 7.16642 99.277C8.44424 100.398 9.48248 101.278 10.9467 100.958C12.6238 100.611 13.2361 99.0902 13.9283 97.3288C14.5672 95.7009 15.3125 93.8862 17.0695 92.872C20.2108 91.084 23.8579 93.3525 28.0641 95.9678C32.5099 98.7433 37.5679 101.866 42.972 100.558C45.7407 99.8908 47.2314 98.3963 48.8288 96.8484C50.639 95.0604 52.5024 93.1923 56.3892 92.6319C59.9831 92.0982 62.8582 93.0589 64.9612 93.7528C66.7182 94.3399 67.9961 94.7402 68.7415 94.0196C70.0726 92.6853 68.209 89.1358 66.239 85.3996C63.8166 80.8095 61.3141 76.0324 63.3906 73.4171C64.6418 71.8159 67.4637 71.1487 71.3237 71.549C74.8378 71.8959 78.7511 73.1235 81.8125 74.8048C82.6911 75.2852 83.5163 75.819 84.2883 76.4061C84.3682 76.4594 84.3948 76.5929 84.3416 76.673C84.2884 76.753 84.1552 76.7797 84.0753 76.7263C83.3034 76.1659 82.5047 75.6321 81.6261 75.1785C75.6098 71.8426 66.2656 70.4281 63.7367 73.6839C61.8199 76.1125 64.3756 80.9429 66.6384 85.2396C68.7681 89.2693 70.605 92.7653 69.0609 94.3132C68.1558 95.2205 66.7715 94.7669 64.8814 94.1531C62.8049 93.4859 59.9831 92.5519 56.4957 93.0589C52.7421 93.6193 50.9318 95.4074 49.1748 97.1687C47.6308 98.7166 46.0069 100.291 43.1318 100.985C37.5679 102.319 32.4567 99.1436 27.931 96.3414C23.8313 93.8062 20.2908 91.5911 17.3624 93.2457C15.7119 94.1798 15.0464 95.8611 14.3807 97.489C13.662 99.277 12.9965 100.985 11.1064 101.385C9.45585 101.732 8.31113 100.745 6.98007 99.6239C5.86198 98.6632 4.58415 97.569 2.66742 96.9285C-2.44387 95.2205 -9.49851 97.7291 -14.9026 103.2C-15.0091 103.173 -15.0623 103.2 -15.1156 103.2Z" fill="#171A1C"/>
<path d="M88.4431 167.383H80.084C79.9775 167.383 79.8711 167.303 79.8711 167.169C79.8711 167.036 79.9509 166.955 80.084 166.955H88.4431C88.5495 166.955 88.656 167.036 88.656 167.169C88.656 167.303 88.5495 167.383 88.4431 167.383Z" fill="#171A1C"/>
<path d="M153.932 167.383H135.377C135.27 167.383 135.164 167.303 135.164 167.169C135.164 167.036 135.244 166.955 135.377 166.955H153.932C154.038 166.955 154.144 167.036 154.144 167.169C154.144 167.303 154.038 167.383 153.932 167.383Z" fill="#171A1C"/>
<path d="M0.673905 167.491C0.56742 167.491 0.487559 167.411 0.460938 167.305C0.460938 167.197 0.540796 167.091 0.647282 167.091L60.1459 166.957C60.2523 166.957 60.3322 167.038 60.3588 167.144C60.3588 167.251 60.2789 167.358 60.1725 167.358L0.673905 167.491Z" fill="#171A1C"/>
<path d="M61.822 173.762C61.3162 175.816 60.8105 177.872 60.278 179.9C51.4131 176.164 43.7994 177.338 41.7229 181.101C41.3503 181.768 40.5516 183.636 41.7762 187.106C52.8772 186.919 64.005 186.759 75.1061 186.572C75.1061 182.755 75.1061 178.913 75.1061 175.096C70.6869 174.643 66.2412 174.216 61.822 173.762Z" fill="#171A1C"/>
<path d="M100.289 85.0002C100.209 85.0002 100.156 84.9469 100.103 84.8934C99.9163 84.4931 99.6767 84.0661 99.4371 83.6658C99.4105 83.6124 99.3039 83.4524 99.1709 83.2388C97.547 80.7035 96.0295 79.3158 95.0713 79.556C95.0179 79.556 94.7784 79.6361 94.5921 79.8762C94.4323 80.0898 94.3524 80.3833 94.4057 80.7569L94.4323 80.8904C94.4323 80.9438 94.4589 80.9705 94.4589 81.0238C94.4855 81.1305 94.4323 81.2373 94.3258 81.264C94.2193 81.2907 94.1129 81.2373 94.0863 81.1305C94.0596 81.0772 94.0596 81.0238 94.0596 80.9438L94.033 80.8103C93.9797 80.3299 94.0863 79.9296 94.3258 79.6361C94.5921 79.3159 94.9381 79.209 95.0179 79.1823C96.562 78.782 98.532 81.4241 99.5436 83.052C99.6767 83.2655 99.7831 83.4257 99.8097 83.479C100.076 83.906 100.289 84.333 100.502 84.76C100.555 84.8667 100.502 84.9736 100.422 85.0269C100.342 85.0002 100.316 85.0002 100.289 85.0002Z" fill="#171A1C"/>
<path d="M100.502 84.8404C98.3987 83.506 96.2956 82.1983 94.2191 80.8639C94.1659 80.8106 94.1126 80.7839 94.0859 80.7305C94.1392 80.7305 94.1659 80.7305 94.2191 80.7305L99.357 83.1057C99.4369 83.2391 99.5434 83.3992 99.6232 83.5327C99.8894 84.0131 100.182 84.44 100.502 84.8404Z" fill="#171A1C"/>
<path d="M94.5394 90.8714C94.353 90.8714 92.6492 90.7912 91.7175 89.2701C91.0786 88.2293 91.0254 86.9216 91.611 85.8274C91.6642 85.7207 91.7707 85.694 91.8773 85.7474C91.9837 85.8008 92.0103 85.9343 91.9571 86.0143C91.4247 86.975 91.4779 88.1493 92.037 89.0566C92.8889 90.4177 94.4594 90.4711 94.5394 90.4711C94.6458 90.4711 94.7257 90.5778 94.7257 90.6845C94.7257 90.7912 94.6458 90.8714 94.5394 90.8714Z" fill="#171A1C"/>
<path d="M94.2212 93.6469C94.1946 93.6469 94.168 93.6469 94.168 93.6469C94.0083 93.5934 92.6771 93.113 92.3045 91.752C92.0649 90.9247 92.3045 90.2308 92.4642 89.8839C92.5174 89.7772 92.6239 89.7505 92.7305 89.7772C92.8369 89.8305 92.8635 89.9372 92.8369 90.0441C92.7038 90.3376 92.5174 90.9514 92.7038 91.6453C93.0232 92.8196 94.1946 93.2199 94.301 93.2732C94.4076 93.2999 94.4608 93.4333 94.4342 93.5134C94.381 93.5934 94.301 93.6469 94.2212 93.6469Z" fill="#171A1C"/>
<path d="M95.4981 97.3563C95.4715 97.3563 95.4183 97.3563 95.3916 97.3296C94.9657 97.0627 94.5397 96.7426 94.167 96.3956C93.7943 96.0487 93.4217 95.7017 93.1288 95.2481C92.5963 94.3674 92.6762 93.3532 92.8094 92.6594C92.836 92.5526 92.9425 92.4726 93.0489 92.4993C93.1554 92.5259 93.2352 92.6328 93.2086 92.7395C93.0755 93.3532 93.0223 94.2607 93.4749 95.0612C93.7144 95.4615 94.0605 95.7818 94.4333 96.1287C94.7793 96.449 95.1786 96.7426 95.578 97.0094C95.6845 97.0627 95.7111 97.1962 95.6312 97.2763C95.6312 97.303 95.5514 97.3563 95.4981 97.3563Z" fill="#171A1C"/>
<path d="M106.626 99.6516C106.52 99.6516 106.413 99.5714 106.413 99.438C106.413 97.4098 106.093 95.4349 105.455 93.5669C105.295 93.0865 105.082 92.6061 104.896 92.1257C104.843 92.019 104.896 91.9123 105.002 91.8588C105.109 91.8054 105.215 91.8588 105.268 91.9656C105.481 92.446 105.667 92.9263 105.854 93.4334C106.52 95.3282 106.839 97.3564 106.839 99.438C106.839 99.5714 106.733 99.6516 106.626 99.6516Z" fill="#171A1C"/>
<path d="M95.1782 87.1884C95.1516 87.1884 95.125 87.1884 95.125 87.1884C93.714 86.7347 92.3563 86.201 91.0785 85.5604C89.6143 84.8399 88.7891 84.2795 88.6293 83.4255C88.5761 83.0786 88.6293 82.7316 88.7891 82.358C88.8424 82.2779 88.869 82.2246 88.9222 82.1712C88.9754 82.1179 89.0553 82.0645 89.1085 82.011C89.215 81.9577 89.3215 81.9843 89.3748 82.0912C89.428 82.1979 89.4014 82.3046 89.2949 82.358C89.2416 82.3847 89.215 82.4113 89.1884 82.438C89.1617 82.4648 89.1351 82.4915 89.1085 82.5448C88.9754 82.8383 88.9222 83.1052 88.9754 83.3721C89.0819 83.9859 89.6409 84.4662 91.185 85.2135C92.4629 85.8274 93.7939 86.3611 95.1782 86.8147C95.2847 86.8414 95.3379 86.9481 95.3113 87.055C95.3379 87.135 95.2581 87.1884 95.1782 87.1884Z" fill="#171A1C"/>
<path d="M135.161 101.332C135.054 101.332 134.974 101.252 134.974 101.145C134.841 99.7041 134.682 98.2362 134.549 96.7952C134.549 96.6883 134.629 96.5816 134.735 96.5816C134.841 96.5549 134.948 96.6617 134.948 96.7685C135.081 98.2095 135.24 99.6774 135.375 101.118C135.375 101.225 135.294 101.305 135.161 101.332ZM126.11 101.332C126.004 101.332 125.924 101.252 125.897 101.145L125.871 100.104C123.687 100.104 121.824 99.2504 120.546 97.7292C119.268 96.208 118.815 94.1798 119.215 92.0181C119.614 89.8832 120.839 87.8816 122.649 86.3604C123.128 85.9601 123.607 85.6132 124.114 85.3464C127.707 83.2647 131.939 83.6918 134.176 86.3871C135.348 87.8016 135.853 89.6696 135.587 91.6712C135.587 91.7245 135.561 91.7779 135.561 91.8313C135.534 91.9381 135.428 92.0181 135.321 91.9914C135.214 91.9648 135.134 91.8579 135.161 91.7512C135.161 91.6979 135.187 91.6712 135.187 91.6178C135.428 89.723 134.974 87.9617 133.857 86.654C131.753 84.1188 127.734 83.6918 124.3 85.6932C123.82 85.9601 123.341 86.3071 122.889 86.6807C121.158 88.1218 119.987 90.0433 119.588 92.0982C119.215 94.1264 119.668 96.0479 120.839 97.489C122.063 98.9568 123.901 99.7574 126.03 99.7041C126.137 99.7041 126.216 99.7574 126.216 99.8641C126.216 99.8908 126.216 99.8908 126.216 99.9175L126.243 101.145C126.296 101.225 126.216 101.332 126.11 101.332Z" fill="#171A1C"/>
<path d="M135.348 97.062C135.135 97.062 134.896 97.0353 134.683 96.9819C134.576 96.9553 134.523 96.8484 134.55 96.7417C134.576 96.635 134.683 96.5816 134.789 96.6083C134.975 96.6617 135.162 96.6884 135.348 96.6884C136.626 96.6884 137.691 95.6475 137.691 94.3399C137.691 93.0322 136.653 91.9915 135.348 91.9915C135.241 91.9915 134.975 91.9915 134.656 92.0982C133.724 92.4184 133.272 93.2724 133.112 93.6193C133.059 93.7261 132.952 93.7795 132.846 93.7261C132.74 93.6727 132.686 93.5659 132.74 93.4592C132.899 93.0589 133.431 92.0715 134.523 91.6979C134.922 91.5644 135.215 91.5645 135.321 91.5645C136.839 91.5645 138.064 92.792 138.064 94.2865C138.064 95.781 136.865 97.062 135.348 97.062Z" fill="#171A1C"/>
<path d="M135.43 91.7781C135.323 91.7781 135.217 91.7781 135.057 91.7781C135.004 91.7781 134.844 91.8048 134.604 91.8848C134.497 91.9115 134.178 92.045 133.832 92.3118C133.38 92.6588 133.086 93.0591 132.927 93.3527C132.235 91.538 131.517 89.7232 130.824 87.9085L124.195 85.5067C127.816 83.4784 131.942 84.0655 134.019 86.5207C135.722 88.4956 135.483 91.1109 135.43 91.7781Z" fill="#171A1C"/>
<path d="M126.138 100.825C126.643 100.772 127.203 100.639 127.788 100.452C130.238 99.6511 131.781 97.9699 132.553 96.9824C131.995 97.4627 131.275 97.9699 130.371 98.4235C128.667 99.3042 127.096 99.5711 126.031 99.6778C126.058 100.078 126.111 100.452 126.138 100.825Z" fill="#171A1C"/>
<path d="M108.035 141.204C97.7331 146.274 93.7931 144.086 92.5951 143.179C85.0879 137.574 90.9978 115.583 91.7167 112.942C99.3836 119.027 104.734 131.276 108.035 141.204Z" fill="#171A1C"/>
<path d="M111.045 188.28C108.755 188.28 103.511 187.853 98.5594 184.491C93.6345 181.128 90.5464 175.95 88.2303 167.251C86.8993 162.179 85.861 156.148 84.7163 148.676L84.6365 148.089C84.3968 146.461 84.1307 144.78 83.891 143.045L83.8378 142.752C83.4917 140.483 83.1989 138.215 82.906 135.786C82.7996 134.826 82.6931 133.998 82.6133 133.251C82.6133 133.145 82.6931 133.037 82.7996 133.037C82.906 133.037 83.0126 133.117 83.0126 133.224C83.0924 133.945 83.1723 134.799 83.2788 135.732C83.5716 138.135 83.8644 140.402 84.1839 142.671L84.2371 142.965C84.5033 144.699 84.7429 146.381 84.9825 148.008L85.0624 148.596C86.2072 156.069 87.2454 162.1 88.5764 167.143C90.8658 175.763 93.9006 180.861 98.7457 184.17C104.523 188.12 110.752 187.933 111.923 187.88C117.087 187.533 121.879 185.184 126.166 180.861C129.44 177.552 131.25 174.216 131.596 173.602C131.649 173.495 131.756 173.468 131.862 173.522C131.97 173.575 131.996 173.682 131.942 173.788C131.224 175.177 124.435 187.453 111.95 188.28C111.817 188.253 111.471 188.28 111.045 188.28Z" fill="#171A1C"/>
<path d="M78.0588 175.576C78.0322 175.576 78.0322 175.576 78.0588 175.576L59.3973 173.708C59.3441 173.708 59.2908 173.681 59.2641 173.628C59.2375 173.575 59.2109 173.522 59.2109 173.468C59.4239 171.333 59.6901 169.197 59.9563 167.143C60.7283 161.138 61.7399 155.081 62.9379 149.156C66.9045 129.674 70.6581 111.26 80.5346 109.099C82.4247 108.672 84.6076 108.965 87.0302 109.899C88.6541 110.539 90.278 111.5 91.8486 112.728C91.9285 112.808 91.9551 112.914 91.8752 113.022C91.7954 113.102 91.6889 113.128 91.5825 113.048C90.065 111.847 88.4678 110.913 86.8705 110.272C84.5278 109.339 82.4247 109.072 80.5878 109.472C76.2752 110.406 91.8752 97.5898 69.966 122.548C67.4103 129.46 65.5201 138.347 63.3106 149.209C62.1127 155.107 61.101 161.138 60.3291 167.143C60.0628 169.144 59.8233 171.2 59.6102 173.255L77.8991 175.149L78.6711 172C79.0704 170.372 79.4698 168.744 79.8956 167.116L84.6608 147.955C84.6876 147.875 84.7674 147.795 84.8472 147.795C84.9537 147.795 85.0602 147.875 85.0602 147.981C85.0602 148.008 85.0602 148.008 85.0602 148.036L80.295 167.196C79.8956 168.824 79.4964 170.452 79.0704 172.08L78.2451 175.389C78.2185 175.496 78.1386 175.576 78.0588 175.576Z" fill="#171A1C"/>
<path d="M111.471 175.604C111.232 175.604 111.019 175.604 110.806 175.577C109.874 175.496 107.957 175.204 105.855 173.949C103.511 172.562 101.568 170.373 99.8646 167.304C95.4188 159.217 93.6086 145.901 92.0379 134.159L91.9581 133.545C91.2392 128.208 90.3608 121.562 85.9948 119.614C85.9682 119.614 84.0782 118.786 81.8153 119.213C74.4413 120.602 70.5279 149.877 68.8507 167.197C68.6112 169.573 68.3982 171.974 68.2119 174.376C68.2119 174.482 68.1054 174.563 67.9988 174.563C67.8924 174.563 67.8125 174.456 67.8125 174.349C67.9988 171.948 68.2385 169.518 68.4514 167.17C70.5279 145.874 74.4945 120.201 81.7354 118.813C84.1314 118.36 86.0481 119.187 86.128 119.24C90.7068 121.269 91.612 128.047 92.3307 133.492L92.4105 134.105C93.9812 145.821 95.7649 159.084 100.184 167.117C101.835 170.132 103.751 172.268 106.041 173.629C108.09 174.857 109.927 175.149 110.833 175.204C117.142 175.657 122.333 169.679 124.276 167.09C124.303 167.037 124.356 166.984 124.383 166.957L124.436 166.876C124.489 166.797 124.622 166.77 124.729 166.85C124.808 166.904 124.835 167.037 124.755 167.143L124.702 167.197C124.675 167.251 124.622 167.277 124.596 167.331C119.325 174.349 114.32 175.604 111.471 175.604Z" fill="#171A1C"/>
<path d="M114.639 175.043C114.559 175.043 114.506 174.99 114.453 174.937C113.095 172.161 112.403 169.546 112.35 167.197C112.297 164.262 113.282 162.206 114.107 161.006C115.012 159.698 115.943 159.111 115.997 159.084C116.103 159.031 116.209 159.058 116.263 159.138C116.316 159.217 116.289 159.351 116.209 159.405C116.183 159.431 112.642 161.753 112.749 167.17C112.802 169.465 113.495 172.027 114.798 174.749C114.852 174.857 114.798 174.963 114.719 175.016C114.692 175.016 114.665 175.043 114.639 175.043Z" fill="#171A1C"/>
<path d="M84.9295 148.596C84.9029 148.41 84.8762 148.196 84.8496 148.008C83.2524 154.387 81.6817 160.792 80.0844 167.17C79.4188 169.893 78.7267 172.641 78.0612 175.363C77.0762 175.257 76.1178 175.177 75.1328 175.069L76.7301 167.17L83.1192 135.732L84.9295 148.596Z" fill="#171A1C"/>
<path d="M135.375 167.17C133.91 171.173 132.819 173.815 132.606 174.296L132.579 174.269C129.997 171.894 127.388 169.545 124.805 167.17C124.726 167.09 124.646 167.037 124.593 166.957C121.771 164.368 118.949 161.806 116.127 159.217C114.743 157.962 113.385 156.709 112.001 155.454C110.697 150.705 109.366 145.927 108.061 141.177C106.809 137.44 105.292 133.357 103.429 129.408C101.645 125.565 99.5423 121.828 97.1729 118.626C95.5224 116.411 93.7122 114.463 91.7422 112.888C92.4875 109.846 93.233 106.804 93.9517 103.707C94.1913 102.667 94.4575 101.626 94.6971 100.586C94.9633 99.438 95.2295 98.2637 95.5224 97.1162C97.306 97.3564 99.1961 97.6767 101.166 98.0769C103.163 98.504 105.052 98.9576 106.809 99.438C106.41 102.267 105.586 108.379 104.387 116.758C103.641 122.016 103.375 123.883 104.148 124.284C105.453 124.925 107.928 120.761 111.522 115.904C114.876 111.368 119.215 106.243 124.486 103.841V101.066H137.265V104.001C138.303 104.482 139.155 105.015 139.767 105.496C143.228 108.112 144.905 112.649 145.437 118.172C146.822 133.277 139.554 155.775 135.375 167.17Z" fill="#FFCA33"/>
<path d="M112.004 155.694C111.924 155.694 111.817 155.64 111.817 155.534C111.125 152.412 109.927 147.501 108.091 141.897L107.877 141.256C107.85 141.176 107.877 141.069 107.983 141.016C111.658 139.122 115.118 136.827 118.313 134.185C121.96 131.169 125.234 127.726 128.083 123.91C128.136 123.829 128.269 123.803 128.349 123.856C128.429 123.91 128.455 124.043 128.402 124.123C125.554 127.966 122.253 131.435 118.579 134.478C115.411 137.093 111.977 139.361 108.33 141.256L108.49 141.736C110.326 147.367 111.551 152.278 112.243 155.427C112.27 155.534 112.19 155.64 112.083 155.668C112.03 155.694 112.004 155.694 112.004 155.694Z" fill="#171A1C"/>
<path d="M120.016 110.993C119.963 110.993 119.91 110.967 119.857 110.913C119.777 110.834 119.804 110.701 119.883 110.62L123.211 107.898C123.291 107.818 123.424 107.845 123.504 107.924C123.583 108.004 123.557 108.138 123.477 108.218L120.149 110.94C120.096 110.993 120.043 110.993 120.016 110.993Z" fill="#171A1C"/>
<path d="M128.376 108.271C128.296 108.271 128.216 108.218 128.19 108.138L126.911 104.909C126.858 104.803 126.911 104.695 127.018 104.642C127.124 104.589 127.231 104.642 127.284 104.749L128.562 107.978C128.615 108.085 128.562 108.192 128.456 108.245C128.429 108.271 128.402 108.271 128.376 108.271Z" fill="#171A1C"/>
<path d="M130.184 139.549C130.105 139.549 130.025 139.496 129.998 139.415L128.72 136.186C128.667 136.079 128.72 135.973 128.827 135.919C128.933 135.866 129.039 135.919 129.093 136.026L130.371 139.255C130.424 139.362 130.371 139.469 130.264 139.522C130.238 139.549 130.211 139.549 130.184 139.549Z" fill="#171A1C"/>
<path d="M134.153 161.993C134.073 161.993 133.993 161.938 133.967 161.859L132.689 158.629C132.636 158.523 132.689 158.416 132.795 158.363C132.902 158.309 133.008 158.363 133.061 158.47L134.339 161.699C134.393 161.805 134.339 161.912 134.233 161.966C134.206 161.993 134.18 161.993 134.153 161.993Z" fill="#171A1C"/>
<path d="M116.583 136.746C116.503 136.746 116.423 136.693 116.397 136.613L115.119 133.384C115.065 133.277 115.119 133.171 115.225 133.117C115.331 133.063 115.438 133.117 115.491 133.224L116.769 136.452C116.822 136.56 116.769 136.666 116.663 136.719C116.636 136.746 116.609 136.746 116.583 136.746Z" fill="#171A1C"/>
<path d="M140.544 134.691C140.464 134.691 140.384 134.638 140.358 134.558L139.079 131.329C139.026 131.223 139.079 131.115 139.186 131.062C139.292 131.009 139.399 131.062 139.452 131.168L140.73 134.398C140.783 134.504 140.73 134.612 140.624 134.665C140.597 134.691 140.57 134.691 140.544 134.691Z" fill="#171A1C"/>
<path d="M131.141 131.462C131.062 131.462 130.982 131.409 130.955 131.329L129.677 128.099C129.624 127.993 129.677 127.887 129.784 127.832C129.89 127.779 129.997 127.832 130.051 127.94L131.328 131.169C131.381 131.276 131.328 131.382 131.221 131.435C131.195 131.462 131.168 131.462 131.141 131.462Z" fill="#171A1C"/>
<path d="M130.505 148.995C130.425 148.995 130.345 148.942 130.318 148.862L129.04 145.633C128.987 145.526 129.04 145.419 129.147 145.366C129.253 145.312 129.361 145.366 129.414 145.473L130.691 148.701C130.744 148.809 130.691 148.915 130.584 148.968C130.558 148.995 130.531 148.995 130.505 148.995Z" fill="#171A1C"/>
<path d="M141.817 123.242C141.737 123.242 141.658 123.189 141.631 123.109L140.353 119.88C140.3 119.773 140.353 119.667 140.459 119.613C140.566 119.559 140.672 119.613 140.725 119.72L142.003 122.949C142.057 123.056 142.003 123.162 141.897 123.216C141.87 123.242 141.844 123.242 141.817 123.242Z" fill="#171A1C"/>
<path d="M130.505 113.928C130.452 113.928 130.399 113.902 130.372 113.875C130.293 113.795 130.293 113.662 130.372 113.582L133.061 110.646C133.141 110.566 133.274 110.566 133.354 110.646C133.434 110.727 133.434 110.86 133.354 110.939L130.665 113.875C130.612 113.902 130.559 113.928 130.505 113.928Z" fill="#171A1C"/>
<path d="M100.529 115.397C100.476 115.397 100.422 115.371 100.396 115.344C100.316 115.263 100.316 115.13 100.396 115.05L103.085 112.115C103.165 112.035 103.298 112.035 103.377 112.115C103.457 112.194 103.457 112.327 103.377 112.408L100.689 115.344C100.635 115.371 100.582 115.397 100.529 115.397Z" fill="#171A1C"/>
<path d="M102.791 130.315C102.737 130.315 102.684 130.288 102.658 130.262C102.578 130.181 102.578 130.048 102.658 129.968L104.414 128.046C104.494 127.966 104.627 127.966 104.707 128.046C104.787 128.126 104.787 128.26 104.707 128.34L102.95 130.262C102.897 130.288 102.844 130.315 102.791 130.315Z" fill="#171A1C"/>
<path d="M123.451 126.633C123.397 126.633 123.344 126.606 123.318 126.579C123.238 126.498 123.238 126.365 123.318 126.286L126.006 123.35C126.086 123.27 126.219 123.27 126.298 123.35C126.378 123.43 126.378 123.564 126.298 123.644L123.61 126.579C123.557 126.606 123.504 126.633 123.451 126.633Z" fill="#171A1C"/>
<path d="M118.658 158.63C118.605 158.63 118.551 158.603 118.525 158.576C118.445 158.497 118.445 158.364 118.525 158.283L121.214 155.347C121.294 155.267 121.427 155.267 121.506 155.347C121.586 155.428 121.586 155.561 121.506 155.641L118.817 158.576C118.764 158.603 118.711 158.63 118.658 158.63Z" fill="#171A1C"/>
<path d="M116.635 128.794C116.581 128.794 116.528 128.767 116.501 128.74C116.421 128.661 116.421 128.527 116.501 128.447L119.19 125.511C119.27 125.431 119.403 125.431 119.483 125.511C119.563 125.592 119.563 125.725 119.483 125.805L116.795 128.74C116.768 128.767 116.715 128.794 116.635 128.794Z" fill="#171A1C"/>
<path d="M109.342 141.016C109.289 141.016 109.236 140.99 109.209 140.963C109.128 140.883 109.128 140.749 109.209 140.669L111.897 137.734C111.977 137.654 112.11 137.654 112.19 137.734C112.27 137.814 112.27 137.948 112.19 138.027L109.502 140.963C109.449 141.016 109.395 141.016 109.342 141.016Z" fill="#171A1C"/>
<path d="M109.342 132.076C109.289 132.076 109.236 132.049 109.209 132.023C109.128 131.943 109.128 131.809 109.209 131.729L111.897 128.793C111.977 128.713 112.11 128.713 112.19 128.793C112.27 128.874 112.27 129.007 112.19 129.087L109.502 132.023C109.449 132.076 109.395 132.076 109.342 132.076Z" fill="#171A1C"/>
<path d="M96.4313 119.668C96.3781 119.668 96.3248 119.641 96.2981 119.613C96.2183 119.534 96.2183 119.401 96.2981 119.321L97.3098 118.226C97.3896 118.146 97.5228 118.146 97.6026 118.226C97.6825 118.307 97.6825 118.44 97.6026 118.52L96.591 119.613C96.5378 119.641 96.4846 119.668 96.4313 119.668Z" fill="#171A1C"/>
<path d="M141.821 112.356C141.767 112.356 141.741 112.329 141.688 112.301L138.36 109.579C138.28 109.5 138.254 109.393 138.333 109.286C138.413 109.206 138.52 109.179 138.626 109.259L141.954 111.981C142.033 112.062 142.06 112.168 141.98 112.275C141.927 112.329 141.874 112.356 141.821 112.356Z" fill="#171A1C"/>
<path d="M123.531 117.158C123.505 117.158 123.478 117.158 123.452 117.132C123.345 117.078 123.292 116.971 123.345 116.865L124.623 113.635C124.676 113.529 124.783 113.475 124.889 113.529C124.996 113.582 125.049 113.689 124.996 113.796L123.718 117.025C123.691 117.105 123.611 117.158 123.531 117.158Z" fill="#171A1C"/>
<path d="M130.504 170.586C130.477 170.586 130.451 170.586 130.424 170.559C130.318 170.506 130.265 170.399 130.318 170.293L131.596 167.063C131.649 166.957 131.755 166.903 131.862 166.957C131.968 167.01 132.021 167.116 131.968 167.223L130.691 170.452C130.665 170.559 130.584 170.586 130.504 170.586Z" fill="#171A1C"/>
<path d="M110.673 125.298C110.646 125.298 110.62 125.298 110.593 125.271C110.486 125.217 110.432 125.111 110.486 125.004L111.764 121.775C111.817 121.668 111.923 121.615 112.03 121.668C112.136 121.722 112.19 121.828 112.136 121.934L110.859 125.164C110.833 125.271 110.753 125.298 110.673 125.298Z" fill="#171A1C"/>
<path d="M118.34 121.161C118.313 121.161 118.287 121.161 118.26 121.134C118.154 121.081 118.1 120.975 118.154 120.867L119.431 117.639C119.485 117.532 119.591 117.478 119.698 117.532C119.804 117.585 119.857 117.692 119.804 117.799L118.526 121.028C118.5 121.108 118.42 121.161 118.34 121.161Z" fill="#171A1C"/>
<path d="M97.6799 108.271C97.6533 108.271 97.6267 108.271 97.6001 108.245C97.4935 108.192 97.4403 108.085 97.4935 107.978L98.7714 104.749C98.8246 104.642 98.9311 104.589 99.0375 104.642C99.144 104.695 99.1972 104.803 99.144 104.909L97.8662 108.165C97.8396 108.245 97.7598 108.271 97.6799 108.271Z" fill="#171A1C"/>
<path d="M115.544 115.637C115.437 115.637 115.357 115.557 115.357 115.45L114.958 112.435C114.932 112.327 115.011 112.221 115.118 112.221C115.224 112.194 115.331 112.274 115.331 112.382L115.73 115.397C115.756 115.504 115.677 115.61 115.57 115.61C115.544 115.637 115.544 115.637 115.544 115.637Z" fill="#171A1C"/>
<path d="M133.512 122.736C133.459 122.736 133.432 122.709 133.379 122.683L130.051 119.961C129.972 119.88 129.945 119.774 130.025 119.667C130.105 119.587 130.211 119.56 130.317 119.641L133.645 122.363C133.725 122.442 133.751 122.549 133.672 122.656C133.645 122.709 133.565 122.736 133.512 122.736Z" fill="#171A1C"/>
<path d="M132.874 152.412C132.768 152.412 132.688 152.331 132.66 152.225C132.66 152.118 132.741 152.011 132.847 152.011L137.133 151.904C137.239 151.904 137.319 151.984 137.346 152.092C137.346 152.198 137.266 152.304 137.159 152.304L132.874 152.412Z" fill="#171A1C"/>
<path d="M139.662 147.448C139.556 147.448 139.476 147.368 139.449 147.261C139.449 147.155 139.529 147.047 139.635 147.047L141.633 146.994C141.739 146.994 141.846 147.074 141.846 147.181C141.846 147.288 141.766 147.394 141.659 147.394L139.662 147.448Z" fill="#171A1C"/>
<path d="M125.02 152.412C124.967 152.412 124.94 152.385 124.887 152.358L121.559 149.636C121.479 149.556 121.453 149.45 121.533 149.342C121.612 149.263 121.719 149.236 121.825 149.316L125.153 152.038C125.233 152.118 125.259 152.225 125.179 152.331C125.126 152.385 125.073 152.412 125.02 152.412Z" fill="#171A1C"/>
<path d="M124.17 143.793C124.063 143.793 123.984 143.712 123.957 143.605V139.282C123.957 139.176 124.037 139.068 124.143 139.068C124.25 139.068 124.329 139.148 124.356 139.256V143.579C124.383 143.712 124.276 143.793 124.17 143.793Z" fill="#171A1C"/>
<path d="M135.724 146.62C135.618 146.62 135.538 146.541 135.538 146.461L134.845 142.217C134.818 142.11 134.898 142.003 135.006 141.977C135.112 141.95 135.218 142.03 135.245 142.137L135.937 146.38C135.963 146.487 135.884 146.594 135.777 146.62C135.751 146.62 135.724 146.62 135.724 146.62Z" fill="#171A1C"/>
<path d="M125.207 134.425C125.154 134.425 125.128 134.398 125.074 134.372L121.747 131.65C121.667 131.57 121.64 131.462 121.72 131.356C121.8 131.276 121.906 131.25 122.014 131.329L125.341 134.051C125.421 134.131 125.448 134.239 125.368 134.345C125.315 134.425 125.262 134.425 125.207 134.425Z" fill="#171A1C"/>
<path d="M96.0838 101.973C96.0305 101.973 96.0039 101.946 95.9507 101.919L94.5397 100.772C94.4598 100.692 94.4332 100.585 94.5131 100.478C94.5929 100.398 94.6994 100.372 94.806 100.452L96.2168 101.599C96.2967 101.679 96.3234 101.786 96.2435 101.893C96.1902 101.946 96.137 101.973 96.0838 101.973Z" fill="#171A1C"/>
<path d="M94.7257 112.355C94.6724 112.355 94.6458 112.327 94.5926 112.301L92.2232 110.38C92.1434 110.299 92.1168 110.193 92.1966 110.086C92.2765 110.005 92.383 109.979 92.4895 110.06L94.8587 111.98C94.9386 112.061 94.9653 112.168 94.8854 112.274C94.8587 112.327 94.8055 112.355 94.7257 112.355Z" fill="#171A1C"/>
<path d="M126.697 166.689C126.642 166.689 126.616 166.663 126.563 166.636L123.235 163.913C123.155 163.834 123.129 163.727 123.208 163.621C123.288 163.54 123.396 163.513 123.502 163.593L126.83 166.316C126.909 166.396 126.936 166.502 126.856 166.61C126.803 166.663 126.75 166.689 126.697 166.689Z" fill="#171A1C"/>
<path d="M115.357 153.64C115.304 153.64 115.276 153.613 115.223 153.586L111.895 150.865C111.815 150.785 111.789 150.677 111.869 150.571C111.948 150.491 112.056 150.464 112.162 150.544L115.49 153.266C115.57 153.346 115.596 153.453 115.516 153.56C115.49 153.64 115.41 153.64 115.357 153.64Z" fill="#171A1C"/>
<path d="M144.959 129.889C144.905 129.889 144.879 129.861 144.826 129.835L141.684 127.274C141.604 127.193 141.578 127.086 141.658 126.98C141.737 126.899 141.844 126.872 141.95 126.953L145.092 129.514C145.171 129.595 145.198 129.702 145.118 129.808C145.092 129.861 145.038 129.889 144.959 129.889Z" fill="#171A1C"/>
<path d="M145.44 118.439C145.387 118.439 145.359 118.413 145.306 118.386L142.911 116.544C142.831 116.464 142.804 116.358 142.884 116.25C142.964 116.144 143.07 116.144 143.177 116.224L145.573 118.066C145.653 118.146 145.68 118.252 145.6 118.359C145.547 118.413 145.493 118.439 145.44 118.439Z" fill="#171A1C"/>
<path d="M105.774 106.055C105.721 106.055 105.694 106.029 105.641 106.002L102.739 103.654C102.659 103.574 102.632 103.467 102.712 103.36C102.792 103.28 102.898 103.254 103.005 103.333L105.907 105.682C105.987 105.763 106.013 105.869 105.933 105.975C105.907 106.029 105.827 106.055 105.774 106.055Z" fill="#171A1C"/>
<path d="M140.967 142.324C140.887 142.324 140.807 142.271 140.781 142.191L139.13 138.215C139.077 138.107 139.13 138.001 139.237 137.948C139.343 137.894 139.45 137.948 139.503 138.054L141.153 142.03C141.206 142.138 141.153 142.244 141.047 142.297C141.02 142.324 140.994 142.324 140.967 142.324Z" fill="#171A1C"/>
<path d="M136.309 117.932C136.282 117.932 136.255 117.932 136.229 117.905C136.122 117.852 136.069 117.745 136.122 117.639L137.4 114.41C137.454 114.302 137.56 114.249 137.667 114.302C137.773 114.356 137.826 114.463 137.773 114.569L136.495 117.799C136.468 117.905 136.388 117.932 136.309 117.932Z" fill="#171A1C"/>
<path d="M117.356 146.114C117.329 146.114 117.302 146.114 117.276 146.086C117.169 146.033 117.116 145.926 117.169 145.82L118.447 142.591C118.501 142.484 118.607 142.43 118.713 142.484C118.82 142.537 118.873 142.644 118.82 142.75L117.542 145.98C117.515 146.059 117.435 146.114 117.356 146.114Z" fill="#171A1C"/>
<path d="M135.375 128.234C135.348 128.234 135.322 128.234 135.295 128.208C135.189 128.154 135.136 128.047 135.189 127.941L136.467 124.711C136.52 124.605 136.627 124.552 136.733 124.605C136.839 124.658 136.893 124.764 136.839 124.871L135.561 128.1C135.508 128.208 135.455 128.234 135.375 128.234Z" fill="#171A1C"/>
<path d="M127.734 158.79C127.708 158.79 127.681 158.79 127.655 158.763C127.548 158.71 127.495 158.603 127.548 158.496L128.826 155.267C128.879 155.161 128.986 155.107 129.092 155.161C129.199 155.214 129.252 155.32 129.199 155.428L127.922 158.657C127.894 158.737 127.814 158.79 127.734 158.79Z" fill="#171A1C"/>
<path d="M133.379 138.348C133.352 138.348 133.326 138.348 133.299 138.321C133.193 138.268 133.14 138.161 133.193 138.054L134.471 134.826C134.524 134.718 134.63 134.665 134.737 134.718C134.843 134.771 134.896 134.879 134.843 134.985L133.565 138.215C133.539 138.321 133.459 138.348 133.379 138.348Z" fill="#171A1C"/>
<path d="M135.375 104.908C135.321 104.908 135.268 104.882 135.215 104.855L133.165 102.613C133.086 102.533 133.086 102.399 133.165 102.32C133.245 102.24 133.378 102.24 133.458 102.32L135.508 104.562C135.587 104.641 135.587 104.775 135.508 104.855C135.454 104.882 135.401 104.908 135.375 104.908Z" fill="#171A1C"/>
<path d="M106.333 93.4331C106.28 93.4331 106.253 93.4065 106.2 93.3798C105.987 93.2197 105.774 93.0328 105.588 92.8461C105.374 92.6325 105.135 92.4191 104.922 92.2055C104.895 92.1789 104.895 92.1789 104.895 92.1522C104.629 91.5117 104.31 90.8712 103.911 90.2841C102.793 88.5761 101.515 87.6154 98.4265 85.7473C91.5582 81.6107 90.2006 81.7442 89.4551 82.2246C89.3753 82.2779 89.2688 82.358 89.189 82.4113C89.1356 82.4648 89.0292 82.4915 88.9493 82.438C88.7896 82.3313 88.5766 82.1979 88.3371 82.0377C88.204 81.9577 87.9111 81.7442 87.5384 81.504C87.1391 81.2104 86.7398 80.9169 86.3404 80.5967C86.2606 80.5166 86.234 80.4098 86.3138 80.3031C86.3937 80.223 86.5002 80.1963 86.6067 80.2764C87.0059 80.5966 87.4053 80.8902 87.8046 81.157C88.1774 81.4239 88.4435 81.6107 88.5766 81.6909C88.763 81.7976 88.9227 81.9043 89.0558 82.011C89.109 81.9577 89.189 81.9043 89.2422 81.8776C90.1473 81.2905 91.5582 81.1304 98.6128 85.4004C101.754 87.2951 103.059 88.2826 104.23 90.0439C104.629 90.631 104.949 91.2715 105.215 91.9387C105.401 92.1522 105.615 92.339 105.828 92.5258C105.961 92.6592 106.094 92.766 106.253 92.8994L106.759 92.0188C107.159 91.2982 107.584 90.5509 107.984 89.8304L106.493 88.8963C100.476 85.1335 94.46 81.3973 88.4169 77.6344C88.3104 77.581 88.2838 77.4475 88.3637 77.3675C88.4169 77.2608 88.55 77.2341 88.6299 77.3141C94.6463 81.077 100.689 84.8132 106.705 88.5761L108.356 89.5902C108.436 89.6436 108.489 89.777 108.436 89.8571C107.984 90.631 107.558 91.4316 107.106 92.2055L106.493 93.2997C106.466 93.3531 106.413 93.3798 106.36 93.4065C106.36 93.4332 106.36 93.4331 106.333 93.4331Z" fill="#171A1C"/>
<path d="M86.3676 80.597C85.1164 78.9424 83.8919 77.261 82.6406 75.6064C84.6372 76.1669 86.6605 76.7273 88.6571 77.3144C88.737 77.7414 88.8434 78.1951 88.9233 78.6221C88.4441 78.7021 87.9649 78.7822 87.4591 78.8889C87.6987 79.396 87.9383 79.8764 88.1779 80.3834C87.5656 80.4368 86.9533 80.5168 86.3676 80.597Z" fill="#171A1C"/>
<path d="M104.361 90.8715C104.335 90.8715 104.281 90.8715 104.255 90.8449C104.148 90.7915 104.122 90.658 104.175 90.578L105.506 88.2561C105.56 88.1494 105.693 88.1227 105.772 88.1761C105.879 88.2295 105.905 88.363 105.852 88.443L104.521 90.7648C104.521 90.8449 104.441 90.8715 104.361 90.8715Z" fill="#171A1C"/>
</g>
</g>
</g>
</g>
</g>
<defs>
<clipPath id="clip0_5340_50851">
<rect width="176" height="176" fill="white"/>
</clipPath>
<clipPath id="clip1_5340_50851">
<rect width="176" height="176" fill="white"/>
</clipPath>
<clipPath id="clip2_5340_50851">
<rect width="176" height="176" fill="white"/>
</clipPath>
</defs>
</svg>
