<svg width="250" height="72" viewBox="0 0 250 72" fill="none" xmlns="http://www.w3.org/2000/svg">
<g clip-path="url(#clip0_5340_51313)">
<g clip-path="url(#clip1_5340_51313)">
<path d="M81.684 31.5278C80.8717 31.5278 80.0926 31.2051 79.5182 30.6307C78.9438 30.0563 78.6211 29.2772 78.6211 28.4649C78.6211 27.6526 78.9438 26.8735 79.5182 26.2991C80.0926 25.7247 80.8717 25.402 81.684 25.402C82.0936 25.3852 82.5023 25.4516 82.8854 25.5972C83.2686 25.7428 83.6183 25.9646 83.9133 26.2491C84.2084 26.5336 84.4427 26.875 84.6021 27.2526C84.7616 27.6302 84.8428 28.0362 84.8409 28.4461C84.84 28.8569 84.7572 29.2634 84.5973 29.6418C84.4374 30.0202 84.2036 30.3629 83.9096 30.6499C83.6157 30.9369 83.2674 31.1623 82.8853 31.3131C82.5031 31.4638 82.0948 31.5368 81.684 31.5278Z" fill="black"/>
<path d="M224.555 50.4575C220.82 50.4575 217.952 46.9661 217.952 42.5014C217.921 41.284 218.134 40.0726 218.58 38.9393C219.025 37.806 219.695 36.7739 220.547 35.9044C221.4 35.0349 222.419 34.3457 223.543 33.8779C224.668 33.41 225.874 33.173 227.092 33.181C228.213 33.196 229.319 33.443 230.339 33.9063L230.463 33.9627V30.3173C230.463 28.6223 230.26 28.5096 229.392 28.3029L229.129 28.239L228.002 27.9082L235.706 25.4053V45.9928C235.706 47.838 235.95 48.3003 237.074 48.6235L237.758 48.7964L237.551 49.2812L230.471 50.45V46.9812L230.313 47.1804C228.682 49.2399 226.536 50.4575 224.555 50.4575ZM227.337 34.1657C224.804 34.1657 223.578 36.3905 223.578 40.9718C223.578 44.9856 225.063 47.4772 227.449 47.4772C228.227 47.4694 228.972 47.1638 229.531 46.6235C230.09 46.0831 230.421 45.349 230.456 44.5722V37.2963C230.46 34.9323 228.355 34.1657 227.337 34.1657Z" fill="black"/>
<path d="M77.168 49.9057L77.2506 49.4359L78.4495 49.248C78.6758 49.2317 78.8874 49.1297 79.041 48.9628C79.1947 48.7959 79.2788 48.5766 79.2763 48.3498V38.2665C79.2763 36.3611 78.4044 35.88 77.6453 35.6733L77.1943 35.5606L84.5078 33.1816V48.3272C84.5011 48.5451 84.5736 48.758 84.7117 48.9266C84.8499 49.0952 85.0445 49.208 85.2594 49.2442L86.5146 49.4397L86.5973 49.9094L77.168 49.9057Z" fill="black"/>
<path d="M158.742 58.8535L158.824 58.3838L160.023 58.1959C160.25 58.1796 160.461 58.0776 160.615 57.9107C160.768 57.7438 160.853 57.5245 160.85 57.2976V38.4164C160.85 37.1348 160.275 36.0299 159.482 35.7856L158.73 35.594L166.085 33.1699V36.6538L166.243 36.4546C167.863 34.3989 169.862 33.1699 171.843 33.1699C175.575 33.1812 178.138 37.0221 178.138 41.4831C178.138 47.4323 173.59 50.4502 169.118 50.4502C168.107 50.4796 167.101 50.2872 166.172 49.8864L166.048 49.8301V57.2864C166.045 57.5138 166.13 57.7336 166.284 57.9006C166.439 58.0676 166.651 58.1692 166.878 58.1846L168.073 58.3725L168.156 58.8423L158.742 58.8535ZM169.058 36.0675C168.279 36.0989 167.54 36.4192 166.984 36.966C166.428 37.5127 166.096 38.2468 166.051 39.0252V46.5717C166.056 47.3255 166.353 48.0483 166.879 48.588C167.405 49.1276 168.12 49.4422 168.874 49.4655C170.591 49.4655 172.79 48.0863 172.79 42.2385C172.779 38.2247 171.445 36.0675 169.058 36.0675Z" fill="black"/>
<path d="M120.137 48.3536V39.2287C120.134 38.8469 120.054 38.4697 119.903 38.1189C119.753 37.7682 119.534 37.4509 119.259 37.1858C118.984 36.9206 118.66 36.7128 118.304 36.5744C117.948 36.436 117.568 36.3699 117.187 36.3799C116.465 36.398 115.779 36.6923 115.268 37.2022C114.758 37.712 114.462 38.3984 114.443 39.1197V48.3348C114.441 48.5486 114.516 48.756 114.654 48.9194C114.792 49.0828 114.984 49.1914 115.195 49.2255L116.45 49.4209L116.533 49.8907H107.43L107.513 49.4209L108.441 49.2255C108.65 49.1917 108.841 49.0847 108.978 48.9237C109.116 48.7626 109.192 48.5579 109.193 48.3461V30.0962C109.194 29.6758 109.068 29.265 108.832 28.9171C108.596 28.5692 108.261 28.3004 107.87 28.1457L107.051 27.8225L114.496 25.3984V36.5528L114.657 36.3085C114.68 36.2785 116.781 33.1817 120.501 33.1817C121.786 33.2125 123.012 33.728 123.933 34.6248C124.793 35.5231 125.312 37.1053 125.312 38.8491L125.35 48.3574C125.348 48.5711 125.422 48.7785 125.56 48.9419C125.698 49.1053 125.89 49.2139 126.101 49.2481L127.356 49.4435L127.439 49.9132H118.355L118.438 49.4435L119.366 49.2481C119.576 49.2142 119.766 49.1073 119.904 48.9462C120.041 48.7852 120.117 48.5805 120.118 48.3686" fill="black"/>
<path d="M57.249 26.9573C57.2515 26.7304 57.1673 26.5112 57.0137 26.3442C56.86 26.1773 56.6485 26.0753 56.4222 26.0591L55.2233 25.8711L55.1406 25.4014H65.4832L65.393 25.8711L64.1942 26.0591C63.9679 26.0753 63.7563 26.1773 63.6027 26.3442C63.449 26.5112 63.3649 26.7304 63.3674 26.9573V48.1085C63.3674 49.1044 64.6715 48.9541 64.6715 48.9541C68.3996 48.9541 70.7109 47.556 73.2101 42.1104L73.6198 41.2159H74.7886L73.7438 49.9049H55.1406L55.2233 49.4351L56.4222 49.2472C56.6485 49.231 56.86 49.129 57.0137 48.962C57.1673 48.7951 57.2515 48.5759 57.249 48.349V26.9573Z" fill="black"/>
<path d="M136.047 50.4574C134.787 50.4425 133.584 49.9307 132.7 49.0334C131.815 48.1361 131.32 46.9257 131.323 45.6656V36.0183H127.633L129.925 33.7634H130.703C130.785 33.7634 130.866 33.7472 130.941 33.7158C131.016 33.6843 131.084 33.6382 131.142 33.5802C131.199 33.5222 131.244 33.4533 131.275 33.3777C131.305 33.302 131.321 33.2211 131.32 33.1395V31.1364L136.205 29.5166V33.7709H140.896L138.75 36.0258H136.22V45.0794C136.22 47.3982 137.878 48.24 138.994 48.24C139.471 48.2354 139.94 48.1209 140.366 47.9055L140.43 47.8792L140.892 48.4166C139.558 49.608 138.212 50.4574 136.047 50.4574Z" fill="black"/>
<path d="M186.655 40.093L196.709 40.2471C196.746 39.9351 196.754 38.9392 196.739 38.5897C196.626 36.0492 194.86 33.1816 190.241 33.1816C185.021 33.1816 181.082 37.0037 181.082 42.2013C181.082 46.9329 184.506 50.4694 189.049 50.4694C192.695 50.4694 195.254 48.8459 196.675 45.5499L196.299 45.2267C195.844 45.9384 195.214 46.5211 194.469 46.9187C193.724 47.3162 192.889 47.5153 192.045 47.4967C188.79 47.4967 186.663 44.8659 186.625 40.7732C186.622 40.5461 186.632 40.3189 186.655 40.093ZM186.655 38.8377C186.911 35.6696 188.005 34.2302 189.726 34.2302C189.961 34.2253 190.194 34.2688 190.411 34.358C190.629 34.4473 190.825 34.5803 190.989 34.7488C191.703 35.4741 192.049 36.6279 192.015 38.8077V38.8941L186.652 38.9317L186.655 38.8377Z" fill="black"/>
<path d="M204.898 40.093L214.951 40.2471C214.988 39.9351 214.996 38.9392 214.981 38.5897C214.868 36.0492 213.102 33.1816 208.483 33.1816C203.263 33.1816 199.324 37.0037 199.324 42.2013C199.324 46.9329 202.748 50.4694 207.292 50.4694C210.937 50.4694 213.496 48.8459 214.917 45.5499L214.541 45.2267C214.087 45.9459 213.455 46.5352 212.705 46.937C211.956 47.3388 211.115 47.5394 210.264 47.5192C207.01 47.5192 204.883 44.8885 204.845 40.7958C204.848 40.5607 204.866 40.326 204.898 40.093ZM204.898 38.8377C205.153 35.6696 206.247 34.2302 207.968 34.2302C208.203 34.2253 208.436 34.2688 208.653 34.358C208.871 34.4473 209.067 34.5803 209.231 34.7488C209.945 35.4741 210.291 36.6279 210.257 38.8077V38.8941L204.894 38.9317L204.898 38.8377Z" fill="black"/>
<path d="M151.495 39.5819C149.274 38.7288 147.601 38.0786 147.601 36.4363C147.601 34.933 148.65 34.0573 150.161 34.0573C150.905 34.0579 151.634 34.2633 152.269 34.6511L155.08 38.7325L156.042 38.6949L155.854 33.1816L154.043 33.7717C152.796 33.3878 151.499 33.189 150.194 33.1816C146.2 33.1816 143.535 35.29 143.535 38.5822C143.535 41.6151 145.827 42.7651 148.642 43.8437C150.713 44.6592 152.641 45.2417 152.641 47.3313C152.641 48.5227 151.514 49.6877 149.68 49.6877C147.755 49.6877 146.756 48.7256 145.5 46.8766L144.471 44.7344L143.482 44.9749L143.133 49.3156C145.202 50.0543 147.381 50.4405 149.578 50.4581C154.535 50.4581 156.794 47.8274 156.794 44.9448C156.786 41.6902 154.047 40.6191 151.495 39.5819Z" fill="black"/>
<path d="M100.172 46.7668H94.2908C93.9396 46.7408 93.6106 46.5853 93.3675 46.3305C93.1245 46.0756 92.9848 45.7396 92.9755 45.3875C92.9684 45.2003 92.999 45.0136 93.0653 44.8384C93.1317 44.6632 93.2325 44.5031 93.3617 44.3675C93.491 44.2319 93.6462 44.1236 93.818 44.049C93.9899 43.9744 94.1749 43.935 94.3622 43.9331C94.4423 43.9271 94.5227 43.9271 94.6028 43.9331C95.1619 44.0347 95.7294 44.0838 96.2977 44.0797C100.762 44.0797 103.788 41.7533 103.788 38.4724C103.788 37.4953 103.626 36.785 103.074 36.1649L105.122 34.2858L104.626 32.8389L101.123 34.282C99.7127 33.5518 98.1454 33.1764 96.557 33.1884C92.205 33.1884 89.2511 35.9845 89.2511 38.9347C89.2511 41.479 90.6905 42.8846 92.7951 43.6212V43.6588C90.6191 44.2864 88.6272 45.7634 88.6272 47.7552C88.6272 49.5253 90.3973 51.1113 92.5771 51.3706C90.3635 52.22 88.1875 53.2159 88.1875 55.1702C88.1875 57.6431 90.5477 58.8607 95.3281 58.8607C101.416 58.8607 105.735 55.4783 105.735 51.5172C105.742 48.5557 103.457 46.7668 100.172 46.7668ZM94.8095 35.2667C94.9721 34.9537 95.2175 34.6914 95.5191 34.5084C95.8207 34.3255 96.1667 34.229 96.5195 34.2294C97.9062 34.2294 98.7744 35.4132 98.7744 38.7806C98.7744 42.148 98.1242 43.2905 96.5195 43.2905C95.1627 43.2905 94.381 41.9488 94.381 38.7393C94.3773 37.1683 94.4637 35.9958 94.8095 35.2667ZM95.8167 57.5904C93.4941 57.5904 92.1299 56.2225 92.1299 54.2306C92.1299 52.7273 93.7684 51.4157 95.2567 51.4157H98.3986C101.029 51.5999 102.273 52.1673 102.273 54.0465C102.273 56.1398 98.8082 57.5904 95.8355 57.5904H95.8167Z" fill="black"/>
<path d="M36.7573 37.6538H24.5055V25.402L12.25 13.1465V25.402V37.6538V49.9093H24.5055H36.7573H49.0128L36.7573 37.6538Z" fill="#ED6D5B"/>
</g>
</g>
<defs>
<clipPath id="clip0_5340_51313">
<rect width="250" height="72" fill="white"/>
</clipPath>
<clipPath id="clip1_5340_51313">
<rect width="250" height="70.2109" fill="white" transform="translate(0 0.894531)"/>
</clipPath>
</defs>
</svg>
