<svg width="250" height="72" viewBox="0 0 250 72" fill="none" xmlns="http://www.w3.org/2000/svg">
<g clip-path="url(#clip0_5340_51333)">
<path d="M46.7109 24.7858V18.8892H74.4923V24.7858H64.1362V52.7159H57.067V24.7858H46.7109ZM80.7646 52.7159H73.1008L84.7782 18.8892H93.9947L105.656 52.7159H97.9918L89.5186 26.6192H89.2543L80.7646 52.7159ZM80.2857 39.4198H98.3881V45.0025H80.2857V39.4198ZM138.021 18.8892V52.7159H131.843L117.127 31.4256H116.879V52.7159H109.727V18.8892H116.004L130.604 40.163H130.902V18.8892H138.021ZM166.36 29.8234C166.128 29.0197 165.803 28.3093 165.385 27.6928C164.966 27.0651 164.455 26.5365 163.848 26.1072C163.254 25.6667 162.571 25.3308 161.8 25.0996C161.04 24.8683 160.199 24.7528 159.274 24.7528C157.545 24.7528 156.026 25.1822 154.715 26.041C153.415 26.8999 152.402 28.1497 151.675 29.7904C150.949 31.4201 150.585 33.4131 150.585 35.7695C150.585 38.1259 150.943 40.13 151.659 41.7817C152.375 43.4333 153.388 44.6942 154.699 45.564C156.008 46.423 157.556 46.8524 159.34 46.8524C160.959 46.8524 162.34 46.566 163.485 45.9935C164.642 45.4099 165.523 44.5896 166.128 43.5324C166.745 42.4753 167.053 41.2256 167.053 39.7832L168.507 39.9978H159.786V34.6134H173.94V38.8747C173.94 41.8477 173.314 44.4024 172.058 46.5385C170.802 48.6637 169.074 50.3044 166.872 51.4606C164.67 52.6057 162.148 53.1784 159.306 53.1784C156.135 53.1784 153.35 52.4791 150.949 51.0807C148.549 49.6713 146.677 47.6727 145.333 45.0851C144.001 42.4864 143.335 39.4032 143.335 35.8356C143.335 33.0938 143.731 30.6493 144.524 28.5021C145.328 26.3439 146.452 24.516 147.893 23.0185C149.335 21.5209 151.016 20.3813 152.931 19.5995C154.847 18.8177 156.923 18.4268 159.158 18.4268C161.074 18.4268 162.857 18.7075 164.51 19.2691C166.161 19.8197 167.626 20.6015 168.904 21.6145C170.191 22.6275 171.242 23.8333 172.058 25.2317C172.873 26.6192 173.395 28.1497 173.628 29.8234H166.36ZM179.312 52.7159V18.8892H186.465V46.8194H200.966V52.7159H179.312ZM212.854 18.8892V52.7159H205.703V18.8892H212.854ZM247.032 18.8892V52.7159H240.854L226.138 31.4256H225.891V52.7159H218.738V18.8892H225.016L239.616 40.163H239.914V18.8892H247.032Z" fill="#042825"/>
<path d="M11.3263 52.6926L13.2551 49.8585C13.2578 49.8544 13.2623 49.8521 13.2671 49.8521H39.9532C39.9646 49.8521 39.9716 49.8398 39.9657 49.8301L28.464 30.4243C28.4585 30.4148 28.4448 30.4148 28.4391 30.4241L19.0403 45.776C19.0377 45.7804 19.033 45.783 19.0279 45.783H15.3967C15.3854 45.783 15.3784 45.7707 15.3843 45.7609L22.1566 34.6116C22.1592 34.6071 22.1593 34.6018 22.1569 34.5971L17.5378 25.9561C17.5326 25.9462 17.5186 25.9457 17.5127 25.9551L5.0242 45.7762C5.02154 45.7805 5.01689 45.783 5.0119 45.783H1.4794C1.46806 45.783 1.46109 45.7707 1.46699 45.7609L17.5843 19.3068C17.5902 19.2972 17.6043 19.2976 17.6096 19.3075L24.0774 31.407C24.0826 31.4169 24.0967 31.4173 24.1027 31.4077L28.5378 24.1058C28.5435 24.0964 28.5573 24.0967 28.5628 24.1061L45.0457 52.6935C45.0512 52.7032 45.0442 52.7153 45.033 52.7153H11.3383C11.3266 52.7153 11.3197 52.7022 11.3263 52.6926Z" fill="#042825"/>
<mask id="mask0_5340_51333" style="mask-type:luminance" maskUnits="userSpaceOnUse" x="0" y="17" width="47" height="38">
<path d="M46.5116 17.832H0V54.1692H46.5116V17.832Z" fill="white"/>
<path d="M11.3263 52.6926L13.2551 49.8585C13.2578 49.8544 13.2623 49.8521 13.2671 49.8521H39.9532C39.9646 49.8521 39.9716 49.8398 39.9657 49.8301L28.464 30.4243C28.4585 30.4148 28.4448 30.4148 28.4391 30.4241L19.0403 45.776C19.0377 45.7804 19.033 45.783 19.0279 45.783H15.3967C15.3854 45.783 15.3784 45.7707 15.3843 45.7609L22.1566 34.6116C22.1592 34.6071 22.1593 34.6018 22.1569 34.5971L17.5378 25.9561C17.5326 25.9462 17.5186 25.9457 17.5127 25.9551L5.0242 45.7762C5.02154 45.7805 5.01689 45.783 5.0119 45.783H1.4794C1.46806 45.783 1.46109 45.7707 1.46699 45.7609L17.5843 19.3068C17.5902 19.2972 17.6043 19.2976 17.6096 19.3075L24.0774 31.407C24.0826 31.4169 24.0967 31.4173 24.1027 31.4077L28.5378 24.1058C28.5435 24.0964 28.5573 24.0967 28.5628 24.1061L45.0457 52.6935C45.0512 52.7032 45.0442 52.7153 45.033 52.7153H11.3383C11.3266 52.7153 11.3197 52.7022 11.3263 52.6926Z" fill="black"/>
</mask>
<g mask="url(#mask0_5340_51333)">
<path d="M12.0522 49.041L10.1234 51.8751L12.5265 53.5109L14.4554 50.6766L12.0522 49.041ZM39.9519 48.3989H13.2659V51.3059H39.9519V48.3989ZM27.2124 31.1658L38.7142 50.5716L41.2149 49.0894L29.7131 29.6835L27.2124 31.1658ZM16.2547 26.6415L20.8737 35.2828L23.4374 33.9123L18.8184 25.2712L16.2547 26.6415ZM6.25266 46.5514L18.7412 26.7303L16.2817 25.1808L3.79315 45.0019L6.25266 46.5514ZM1.47811 47.2369H5.01061V44.3299H1.47811V47.2369ZM25.3579 30.7222L18.8902 18.6227L16.3264 19.993L22.7942 32.0926L25.3579 30.7222ZM27.2942 23.3517L22.8591 30.6535L25.3435 32.1626L29.7787 24.8609L27.2942 23.3517ZM46.3035 51.9678L29.8207 23.3805L27.3024 24.8325L43.7851 53.4199L46.3035 51.9678ZM11.337 54.1692H45.0317V51.2622H11.337V54.1692ZM20.913 33.8574L14.1408 45.0068L16.6252 46.516L23.3976 35.3665L20.913 33.8574ZM16.3418 18.5509L0.22444 45.0051L2.70696 46.5176L18.8243 20.0634L16.3418 18.5509ZM15.3954 47.2369H19.0267V44.3299H15.3954V47.2369ZM20.2785 46.5356L29.6774 31.1834L27.1983 29.6654L17.7993 45.0176L20.2785 46.5356ZM19.0267 47.2369C19.5377 47.2369 20.0117 46.9712 20.2785 46.5356L17.7993 45.0176C18.0608 44.5907 18.5258 44.3299 19.0267 44.3299V47.2369ZM1.47811 44.3299C2.60122 44.3299 3.291 45.5588 2.70696 46.5176L0.22444 45.0051C-0.371397 45.9831 0.332316 47.2369 1.47811 47.2369V44.3299ZM3.79315 45.0019C4.05671 44.5834 4.51645 44.3299 5.01061 44.3299V47.2369C5.51475 47.2369 5.98376 46.9783 6.25266 46.5514L3.79315 45.0019ZM18.8184 25.2712C18.2874 24.2779 16.8822 24.2279 16.2817 25.1808L18.7412 26.7303C18.1528 27.6644 16.7751 27.6152 16.2547 26.6415L18.8184 25.2712ZM20.8737 35.2828C20.6339 34.8341 20.649 34.2921 20.913 33.8574L23.3976 35.3665C23.6669 34.9231 23.6822 34.3702 23.4374 33.9123L20.8737 35.2828ZM14.1408 45.0068C13.5464 45.9853 14.2509 47.2369 15.3954 47.2369V44.3299C16.5174 44.3299 17.2079 45.5569 16.6252 46.516L14.1408 45.0068ZM29.7131 29.6835C29.1493 28.7321 27.7758 28.7225 27.1983 29.6654L29.6774 31.1834C29.1112 32.1075 27.7652 32.0984 27.2124 31.1658L29.7131 29.6835ZM39.9519 51.3059C41.0894 51.3059 41.7951 50.0681 41.2149 49.0894L38.7142 50.5716C38.1454 49.6122 38.8371 48.3989 39.9519 48.3989V51.3059ZM14.4554 50.6766C14.1874 51.0705 13.7418 51.3059 13.2659 51.3059V48.3989C12.7803 48.3989 12.3258 48.6389 12.0522 49.041L14.4554 50.6766ZM10.1234 51.8751C9.45982 52.85 10.1584 54.1692 11.337 54.1692V51.2622C12.4922 51.2622 13.1769 52.5553 12.5265 53.5109L10.1234 51.8751ZM43.7851 53.4199C43.2316 52.4601 43.9246 51.2622 45.0317 51.2622V54.1692C46.1612 54.1692 46.8682 52.9469 46.3035 51.9678L43.7851 53.4199ZM29.7787 24.8609C29.2105 25.796 27.8486 25.7798 27.3024 24.8325L29.8207 23.3805C29.2633 22.4141 27.8737 22.3976 27.2942 23.3517L29.7787 24.8609ZM22.7942 32.0926C23.3303 33.0949 24.7533 33.1346 25.3435 32.1626L22.8591 30.6535C23.4377 29.7008 24.8326 29.7398 25.3579 30.7222L22.7942 32.0926ZM18.8902 18.6227C18.3546 17.6206 16.9328 17.5809 16.3418 18.5509L18.8243 20.0634C18.245 21.0142 16.8514 20.9752 16.3264 19.993L18.8902 18.6227Z" fill="#042825"/>
</g>
</g>
<defs>
<clipPath id="clip0_5340_51333">
<rect width="250" height="72" fill="white"/>
</clipPath>
</defs>
</svg>
