<svg width="176" height="176" viewBox="0 0 176 176" fill="none" xmlns="http://www.w3.org/2000/svg">
<g clip-path="url(#clip0_5340_50975)">
<g clip-path="url(#clip1_5340_50975)">
<g clip-path="url(#clip2_5340_50975)">
<mask id="mask0_5340_50975" style="mask-type:luminance" maskUnits="userSpaceOnUse" x="0" y="0" width="176" height="176">
<path d="M176 88C176 39.3989 136.601 0 88 0C39.3989 0 0 39.3989 0 88C0 136.601 39.3989 176 88 176C136.601 176 176 136.601 176 88Z" fill="white"/>
</mask>
<g mask="url(#mask0_5340_50975)">
<path d="M176 88C176 39.3989 136.601 0 88 0C39.3989 0 0 39.3989 0 88C0 136.601 39.3989 176 88 176C136.601 176 176 136.601 176 88Z" fill="#B3F4FF"/>
<mask id="mask1_5340_50975" style="mask-type:luminance" maskUnits="userSpaceOnUse" x="-42" y="5" width="260" height="204">
<path d="M217.954 5.11621H-41.9531V208.744H217.954V5.11621Z" fill="white"/>
</mask>
<g mask="url(#mask1_5340_50975)">
<path d="M157.91 134.917C157.851 134.917 157.822 134.887 157.762 134.858L154.7 132.443C154.612 132.354 154.582 132.236 154.671 132.118L157.086 129.055C157.174 128.966 157.292 128.937 157.409 129.025L160.472 131.441C160.56 131.529 160.59 131.647 160.502 131.764L158.087 134.829C158.057 134.887 157.999 134.917 157.91 134.917ZM155.171 132.266L157.881 134.417L160.03 131.706L157.321 129.555L155.171 132.266Z" fill="#391966"/>
<path d="M9.37672 166.97C9.31783 166.97 9.25893 166.94 9.20003 166.912L7.60985 165.173C7.5215 165.085 7.5215 164.938 7.6393 164.849L9.37672 163.259C9.40617 163.229 9.46506 163.199 9.52396 163.199C9.58285 163.199 9.64175 163.229 9.6712 163.259L11.2613 164.996C11.3498 165.085 11.3498 165.232 11.232 165.32L9.49451 166.912C9.46506 166.97 9.43562 166.97 9.37672 166.97ZM8.08101 165.026L9.37672 166.44L10.7902 165.143L9.49451 163.729L8.08101 165.026Z" fill="#391966"/>
<path d="M13.7922 59.1457C11.6131 59.1457 9.34554 57.496 7.01916 54.2259C6.96026 54.1376 6.96026 53.9902 7.07805 53.9313C7.16639 53.8723 7.31363 53.8723 7.37253 53.9902C9.69891 57.2603 11.9369 58.8511 13.9983 58.7333C15.6768 58.6449 16.8547 57.496 18.0915 56.2587C19.3578 55.0213 20.6535 53.7251 22.5676 53.6367C24.6879 53.5189 26.867 54.9329 29.0756 57.8201C29.1639 57.9084 29.1345 58.0557 29.0462 58.1441C28.9579 58.2324 28.8106 58.2031 28.7222 58.1147C26.602 55.3454 24.5407 53.9902 22.5676 54.1081C20.8302 54.1964 19.6523 55.3749 18.386 56.6122C17.1492 57.8495 15.8535 59.1163 13.9983 59.2046C13.9688 59.1458 13.8805 59.1457 13.7922 59.1457Z" fill="#391966"/>
<path d="M179.643 10.6545C177.465 10.6545 175.197 9.00474 172.87 5.73467C172.812 5.6463 172.812 5.499 172.93 5.44008C173.018 5.38116 173.165 5.38116 173.223 5.499C175.55 8.76907 177.788 10.3599 179.85 10.242C181.528 10.1537 182.706 9.00474 183.943 7.76742C185.209 6.5301 186.505 5.23386 188.419 5.14547C190.539 5.02764 192.718 6.44172 194.927 9.32881C195.016 9.41719 194.986 9.56449 194.898 9.65286C194.809 9.74124 194.662 9.71178 194.574 9.6234C192.453 6.8247 190.391 5.46954 188.419 5.55792C186.681 5.6463 185.503 6.8247 184.238 8.06202C183 9.29935 181.705 10.5661 179.85 10.6545C179.791 10.6545 179.703 10.6545 179.643 10.6545Z" fill="#391966"/>
<path d="M46.6863 18.3729C46.6273 18.3729 46.598 18.3434 46.539 18.3139L42.8875 15.5152C42.7991 15.4269 42.7697 15.309 42.8581 15.1912C42.9464 15.1028 43.0642 15.0734 43.1819 15.1618L46.8335 17.9605C46.9218 18.0488 46.9513 18.1667 46.863 18.2845C46.804 18.3434 46.7452 18.3729 46.6863 18.3729Z" fill="#391966"/>
<path d="M118.302 53.7247C118.272 53.7247 118.213 53.7247 118.184 53.6953L114.355 51.1322C114.267 51.0733 114.237 50.926 114.297 50.8376C114.355 50.7492 114.502 50.7198 114.591 50.7787L118.419 53.3418C118.507 53.4006 118.537 53.5479 118.478 53.6364C118.449 53.6953 118.39 53.7247 118.302 53.7247Z" fill="#391966"/>
<path d="M54.0751 87.4567C54.5956 87.4567 55.0174 87.0347 55.0174 86.514C55.0174 85.9933 54.5956 85.5713 54.0751 85.5713C53.5547 85.5713 53.1328 85.9933 53.1328 86.514C53.1328 87.0347 53.5547 87.4567 54.0751 87.4567Z" fill="#391966"/>
<path d="M45.1533 126.197C45.6737 126.197 46.0956 125.776 46.0956 125.255C46.0956 124.734 45.6737 124.312 45.1533 124.312C44.6328 124.312 44.2109 124.734 44.2109 125.255C44.2109 125.776 44.6328 126.197 45.1533 126.197Z" fill="#391966"/>
<path d="M25.3954 128.2C25.9159 128.2 26.3378 127.778 26.3378 127.258C26.3378 126.737 25.9159 126.314 25.3954 126.314C24.875 126.314 24.4531 126.737 24.4531 127.258C24.4531 127.778 24.875 128.2 25.3954 128.2Z" fill="#391966"/>
<path d="M55.0174 145.169C54.9879 145.406 54.8701 145.611 54.7229 145.759C54.2222 145.641 53.7216 145.523 53.1916 145.406C53.1327 145.258 53.1032 145.081 53.1327 144.904C53.2211 144.374 53.6922 144.021 54.2222 144.08C54.7523 144.168 55.1057 144.639 55.0174 145.169Z" fill="#391966"/>
<path d="M66.6495 160.106C67.1699 160.106 67.5918 159.684 67.5918 159.163C67.5918 158.642 67.1699 158.221 66.6495 158.221C66.1289 158.221 65.707 158.642 65.707 159.163C65.707 159.684 66.1289 160.106 66.6495 160.106Z" fill="#391966"/>
<path d="M84.2901 152.446C84.8105 152.446 85.2324 152.024 85.2324 151.503C85.2324 150.982 84.8105 150.561 84.2901 150.561C83.7695 150.561 83.3477 150.982 83.3477 151.503C83.3477 152.024 83.7695 152.446 84.2901 152.446Z" fill="#391966"/>
<path d="M97.6884 160.989C98.2088 160.989 98.6307 160.567 98.6307 160.046C98.6307 159.526 98.2088 159.104 97.6884 159.104C97.168 159.104 96.7461 159.526 96.7461 160.046C96.7461 160.567 97.168 160.989 97.6884 160.989Z" fill="#391966"/>
<path d="M109.47 146.937C109.99 146.937 110.411 146.514 110.411 145.993C110.411 145.472 109.99 145.051 109.47 145.051C108.949 145.051 108.527 145.472 108.527 145.993C108.527 146.514 108.949 146.937 109.47 146.937Z" fill="#391966"/>
<path d="M117.653 164.701C118.173 164.701 118.595 164.28 118.595 163.759C118.595 163.238 118.173 162.816 117.653 162.816C117.133 162.816 116.711 163.238 116.711 163.759C116.711 164.28 117.133 164.701 117.653 164.701Z" fill="#391966"/>
<path d="M64.7353 132.913C65.2557 132.913 65.6776 132.492 65.6776 131.971C65.6776 131.45 65.2557 131.028 64.7353 131.028C64.2149 131.028 63.793 131.45 63.793 131.971C63.793 132.492 64.2149 132.913 64.7353 132.913Z" fill="#391966"/>
<path d="M33.1689 102.187C33.6893 102.187 34.1112 101.765 34.1112 101.244C34.1112 100.724 33.6893 100.302 33.1689 100.302C32.6485 100.302 32.2266 100.724 32.2266 101.244C32.2266 101.765 32.6485 102.187 33.1689 102.187Z" fill="#391966"/>
<path d="M73.1884 73.3747C73.7088 73.3747 74.1308 72.9526 74.1308 72.432C74.1308 71.9114 73.7088 71.4893 73.1884 71.4893C72.668 71.4893 72.2461 71.9114 72.2461 72.432C72.2461 72.9526 72.668 73.3747 73.1884 73.3747Z" fill="#391966"/>
<path d="M77.0752 92.3767C77.5957 92.3767 78.0176 91.9546 78.0176 91.4339C78.0176 90.9132 77.5957 90.4912 77.0752 90.4912C76.5548 90.4912 76.1328 90.9132 76.1328 91.4339C76.1328 91.9546 76.5548 92.3767 77.0752 92.3767Z" fill="#391966"/>
<path d="M63.7939 111.349C64.3143 111.349 64.7362 110.926 64.7362 110.405C64.7362 109.886 64.3143 109.463 63.7939 109.463C63.2734 109.463 62.8516 109.886 62.8516 110.405C62.8516 110.926 63.2734 111.349 63.7939 111.349Z" fill="#391966"/>
<path d="M95.8329 80.8288C96.3534 80.8288 96.7753 80.4067 96.7753 79.8861C96.7753 79.3654 96.3534 78.9434 95.8329 78.9434C95.3125 78.9434 94.8906 79.3654 94.8906 79.8861C94.8906 80.4067 95.3125 80.8288 95.8329 80.8288Z" fill="#391966"/>
<path d="M86.497 63.7712C87.0175 63.7712 87.4394 63.3491 87.4394 62.8285C87.4394 62.3078 87.0175 61.8857 86.497 61.8857C85.9766 61.8857 85.5547 62.3078 85.5547 62.8285C85.5547 63.3491 85.9766 63.7712 86.497 63.7712Z" fill="#391966"/>
<path d="M101.224 98.9762C101.744 98.9762 102.166 98.5542 102.166 98.0334C102.166 97.5128 101.744 97.0908 101.224 97.0908C100.703 97.0908 100.281 97.5128 100.281 98.0334C100.281 98.5542 100.703 98.9762 101.224 98.9762Z" fill="#391966"/>
<path d="M155.228 93.7318C154.992 94.2621 154.757 94.7924 154.522 95.3227C154.462 95.3227 154.404 95.3227 154.374 95.3227C153.844 95.2343 153.49 94.763 153.549 94.2327C153.608 93.7023 154.109 93.3489 154.639 93.4078C154.875 93.4372 155.08 93.5551 155.228 93.7318Z" fill="#391966"/>
<path d="M147.751 79.8562C148.271 79.8562 148.693 79.4341 148.693 78.9134C148.693 78.3928 148.271 77.9707 147.751 77.9707C147.23 77.9707 146.809 78.3928 146.809 78.9134C146.809 79.4341 147.23 79.8562 147.751 79.8562Z" fill="#391966"/>
<path d="M123.337 109.11C123.858 109.11 124.279 108.688 124.279 108.167C124.279 107.647 123.858 107.225 123.337 107.225C122.817 107.225 122.395 107.647 122.395 108.167C122.395 108.688 122.817 109.11 123.337 109.11Z" fill="#391966"/>
<path d="M138.856 118.891C139.377 118.891 139.799 118.469 139.799 117.948C139.799 117.427 139.377 117.006 138.856 117.006C138.337 117.006 137.914 117.427 137.914 117.948C137.914 118.469 138.337 118.891 138.856 118.891Z" fill="#391966"/>
<path d="M139.829 99.9187C140.35 99.9187 140.772 99.4967 140.772 98.9759C140.772 98.4553 140.35 98.0332 139.829 98.0332C139.309 98.0332 138.887 98.4553 138.887 98.9759C138.887 99.4967 139.309 99.9187 139.829 99.9187Z" fill="#391966"/>
<path d="M83.1415 113.264C83.662 113.264 84.0838 112.842 84.0838 112.321C84.0838 111.8 83.662 111.379 83.1415 111.379C82.6211 111.379 82.1992 111.8 82.1992 112.321C82.1992 112.842 82.6211 113.264 83.1415 113.264Z" fill="#391966"/>
<path d="M109.47 115.592C109.99 115.592 110.411 115.169 110.411 114.648C110.411 114.128 109.99 113.706 109.47 113.706C108.949 113.706 108.527 114.128 108.527 114.648C108.527 115.169 108.949 115.592 109.47 115.592Z" fill="#391966"/>
<path d="M115.446 81.7712C115.967 81.7712 116.389 81.3491 116.389 80.8285C116.389 80.3077 115.967 79.8857 115.446 79.8857C114.927 79.8857 114.504 80.3077 114.504 80.8285C114.504 81.3491 114.927 81.7712 115.446 81.7712Z" fill="#391966"/>
<path d="M115.446 118.979C115.328 118.979 115.21 118.89 115.21 118.773C114.533 113.765 113.855 108.786 113.207 103.778C113.179 103.631 113.297 103.513 113.414 103.483C113.562 103.453 113.679 103.571 113.709 103.689C114.385 108.698 115.063 113.676 115.711 118.685C115.74 118.832 115.622 118.95 115.505 118.979C115.475 118.979 115.446 118.979 115.446 118.979Z" fill="#391966"/>
<path d="M50.6307 122.633C50.4835 122.633 50.3657 122.514 50.3952 122.368C50.6602 116.712 50.9252 111.085 51.1608 105.635C51.1608 105.487 51.2786 105.398 51.4258 105.398C51.573 105.398 51.6614 105.516 51.6614 105.663C51.4258 111.114 51.1608 116.741 50.8958 122.397C50.8663 122.514 50.778 122.633 50.6307 122.633Z" fill="#391966"/>
<path d="M122.162 168.973L52.8703 165.526C51.5746 165.467 50.2789 165.408 49.0126 165.35L48.3059 165.32C48.247 165.32 48.1881 165.29 48.1291 165.232C48.0703 165.173 48.0703 165.113 48.0703 165.055L48.1586 163.404C48.247 161.697 48.3648 159.958 48.4531 158.249C48.7181 153.654 48.9832 149.087 49.2482 144.491C49.2482 144.344 49.366 144.256 49.5132 144.256C49.6605 144.256 49.7489 144.374 49.7489 144.521C49.4838 149.117 49.2188 153.683 48.9537 158.279C48.8654 159.988 48.7476 161.725 48.6593 163.434L48.5709 164.818L49.0126 164.848C50.3084 164.907 51.604 164.966 52.8703 165.055L121.837 168.501C121.572 166.587 120.217 156.393 120.159 155.951C119.482 150.885 118.804 145.818 118.127 140.75L116.124 125.844C116.095 125.667 116.095 125.519 116.065 125.342C116.036 125.195 116.154 125.077 116.272 125.048C116.419 125.018 116.537 125.137 116.566 125.254C116.595 125.431 116.625 125.578 116.625 125.755L118.627 140.661C119.305 145.729 119.982 150.796 120.659 155.863C120.718 156.335 122.338 168.236 122.397 168.738C122.397 168.796 122.397 168.885 122.338 168.943C122.308 168.943 122.25 168.973 122.162 168.973Z" fill="#391966"/>
<path d="M77.9309 131.294C77.9014 131.294 77.8719 131.294 77.8425 131.294C73.4547 129.939 69.0376 128.554 64.7088 127.169C55.8449 124.371 46.8928 121.484 38.0878 118.626C37.9701 118.596 37.8818 118.449 37.9406 118.302C37.9701 118.184 38.1173 118.096 38.2646 118.154C47.0695 121.042 56.0216 123.9 64.8855 126.698C69.2143 128.083 73.6609 129.467 78.0192 130.822C78.1369 130.852 78.2254 130.999 78.1959 131.147C78.1369 131.206 78.0486 131.294 77.9309 131.294Z" fill="#391966"/>
<path d="M72.9241 149.058C72.8948 149.058 72.8948 149.058 72.9241 149.058C66.799 148.38 60.6738 147.35 54.6665 145.994C54.1659 145.876 53.6652 145.758 53.1352 145.641C50.9561 145.139 48.7769 144.58 46.6567 143.991C30.4014 139.542 22.2738 137.303 19.0641 131.294C13.2333 120.335 24.5119 104.426 33.5818 91.6109L34.318 90.5799C38.6468 84.4816 46.6567 73.11 61.7929 66.7761C65.3267 65.3031 69.0371 64.1836 72.8653 63.4471C72.3353 62.7106 72.1585 62.033 72.3058 61.4438C72.3941 61.0609 72.6298 60.8546 72.8358 60.6484C73.0126 60.501 73.1598 60.3243 73.2776 60.0887C73.5131 59.5583 73.307 59.087 73.1009 58.6451C72.9241 58.2622 72.7769 57.9086 72.9241 57.5846C73.2776 56.6713 74.9855 57.1131 77.842 57.8202C81.4052 58.704 86.264 59.9413 90.6518 59.0281L90.7696 58.9986C91.7119 58.7924 94.2445 58.2622 95.8936 59.5878C96.4825 60.0592 97.2482 61.0314 96.9537 61.7384C96.8359 62.033 96.5709 62.1803 96.3059 62.3277C96.0702 62.4454 95.8052 62.5928 95.6286 62.8874C95.4518 63.1525 95.3634 63.4471 95.3634 63.8006C95.4519 63.8889 95.5107 63.9479 95.5402 63.9479C101.43 64.5371 106.553 66.3931 110.735 69.4275C117.214 74.1117 120.394 80.7991 125.194 90.9039C126.608 93.8793 127.933 96.9432 129.081 100.036C129.141 100.154 129.052 100.302 128.934 100.361C128.816 100.419 128.669 100.331 128.611 100.213C127.461 97.1494 126.136 94.115 124.723 91.1396C119.953 81.0937 116.773 74.4651 110.411 69.8399C106.288 66.835 101.224 65.038 95.4224 64.4488H95.3929C95.3634 64.4488 95.069 64.3604 94.8629 64.0068C94.8334 63.9773 94.8334 63.9184 94.8334 63.8889C94.8334 63.3882 94.9218 62.9757 95.1574 62.5928C95.4224 62.1803 95.7463 62.0036 96.0114 61.8857C96.2469 61.7678 96.3647 61.6795 96.4236 61.5616C96.5709 61.1786 96.0702 60.4422 95.5107 59.9708C94.0678 58.7924 91.712 59.2932 90.8285 59.4995L90.7107 59.5289C86.2052 60.4717 81.2874 59.2344 77.6948 58.321C75.5745 57.7907 73.5721 57.29 73.3659 57.7907C73.3071 57.9381 73.4248 58.2032 73.5426 58.4683C73.7487 58.9397 74.0432 59.5583 73.7193 60.2949C73.5721 60.6484 73.3659 60.8546 73.1598 61.0314C72.9831 61.2081 72.8358 61.3555 72.7769 61.5911C72.6298 62.0919 72.8948 62.74 73.4837 63.4766C73.5426 63.5355 73.5721 63.6238 73.5131 63.7122C73.4837 63.8006 73.4248 63.8596 73.3364 63.8596C69.4199 64.5665 65.5917 65.7156 61.9696 67.2475C46.9806 73.5518 39.0002 84.8351 34.7008 90.9039L33.9646 91.935C24.9831 104.633 13.7929 120.423 19.4763 131.087C22.5683 136.891 30.6664 139.13 46.7451 143.549C48.8653 144.139 51.0444 144.669 53.1941 145.199C53.6947 145.316 54.2248 145.434 54.7254 145.553C60.6445 146.878 66.6813 147.88 72.6886 148.587L73.6898 145.022V144.993C74.161 143.284 74.6616 141.575 75.1622 139.896L75.5156 138.688C76.2223 136.184 76.9585 133.68 77.6653 131.176V131.146C77.6948 130.999 77.842 130.94 77.9893 130.969C78.1365 130.999 78.1954 131.146 78.1659 131.294L77.9303 131.234L78.1659 131.323C77.4591 133.827 76.723 136.331 76.0162 138.835L75.6629 140.044C75.1622 141.752 74.6911 143.46 74.1904 145.169V145.199L73.1303 148.94C73.1303 148.969 73.042 149.058 72.9241 149.058Z" fill="#391966"/>
<path d="M43.8876 120.01C43.8581 120.01 43.7993 120.01 43.7698 119.98C43.652 119.922 43.5931 119.775 43.652 119.657L51.1612 105.545C51.2201 105.428 51.3674 105.368 51.4852 105.428C51.6029 105.486 51.6619 105.633 51.6029 105.752L44.0938 119.863C44.0643 119.952 43.976 120.01 43.8876 120.01Z" fill="#391966"/>
<path d="M131.259 127.965C130.788 127.965 130.288 127.935 129.816 127.876C127.431 127.581 124.898 126.579 122.278 124.872C122.16 124.783 122.131 124.635 122.19 124.518C122.278 124.4 122.425 124.37 122.543 124.43C125.105 126.079 127.578 127.081 129.876 127.346C131.141 127.493 132.408 127.434 133.586 127.169C136.589 126.491 140.006 124.43 148.81 106.871C150.754 103.012 152.609 99.0641 154.317 95.1753C154.552 94.6451 154.789 94.1148 155.024 93.5845C157.38 88.1344 159.588 82.5665 161.532 77.0575C161.208 76.7629 160.913 76.4682 160.59 76.1736C159.795 75.4371 158.999 74.7006 158.234 74.023C156.525 72.4911 154.759 70.9886 152.962 69.5451C151.137 68.0427 149.252 66.5991 147.367 65.185L126.931 104.396C126.871 104.514 126.724 104.573 126.606 104.514C126.489 104.456 126.43 104.308 126.489 104.191L147.044 64.7726C147.072 64.7136 147.132 64.6548 147.22 64.6548C147.279 64.6253 147.367 64.6548 147.426 64.6842C149.399 66.1278 151.372 67.6597 153.287 69.2211C155.053 70.6646 156.85 72.167 158.557 73.6989C159.323 74.3765 160.118 75.1131 160.913 75.8495C161.267 76.1736 161.62 76.5271 161.973 76.8512C162.032 76.9101 162.062 77.028 162.032 77.1163C160.06 82.7137 157.85 88.3406 155.436 93.8497C155.2 94.38 154.965 94.9102 154.729 95.4405C152.992 99.3587 151.137 103.306 149.194 107.165C140.299 124.9 136.766 127.021 133.644 127.728C132.908 127.876 132.084 127.965 131.259 127.965Z" fill="#391966"/>
<path d="M82.3742 121.13L82.6687 123.634L84.8773 124.813L82.5804 125.873L82.1387 128.348L80.4306 126.492L77.957 126.846L79.1938 124.665L78.0748 122.397L80.5484 122.898L82.3742 121.13Z" fill="#6F1DE2"/>
<path d="M76.6027 119.719L73.393 122.842L74.1291 127.26L70.1831 125.139L66.2076 127.23L66.9732 122.812L63.793 119.659L68.2101 119.041L70.2126 115.034L72.1856 119.041L76.6027 119.719Z" fill="#6F1DE2"/>
<path d="M93.6823 129.615L96.2443 126.904L101.221 127.699L98.8357 123.251L101.133 118.773L96.1854 119.686L92.6222 116.122L91.9449 121.1L87.4688 123.398L92.0037 125.579L92.6516 129.732" fill="#6F1DE2"/>
<path d="M111.883 121.454L110.117 124.253L111.412 127.316L108.202 126.492L105.699 128.642L105.493 125.342L102.637 123.634L105.728 122.426L106.494 119.186L108.585 121.749L111.883 121.454Z" fill="#6F1DE2"/>
<path d="M126.046 120.6L122.366 123.311L122.483 127.876L118.773 125.195L114.444 126.727L115.858 122.367L113.09 118.714H117.654L120.245 114.943L121.659 119.303L126.046 120.6Z" fill="#6F1DE2"/>
<path d="M153.403 45.0348C154.405 47.2738 155.377 49.3066 156.348 51.1331C156.23 51.3688 156.113 51.575 155.995 51.7813C155.907 51.9285 155.848 52.0759 155.789 52.1936C155.495 50.4261 154.817 49.2477 154.022 49.1593C153.963 49.1593 153.816 49.1298 153.58 49.2182C152.962 48.2165 152.285 47.156 151.548 46.0954C150.93 46.2722 150.105 46.3606 149.252 46.0365C148.015 45.5652 147.485 44.4751 146.66 42.8843C146.66 42.8843 142.037 34.0758 142.155 31.7189C142.155 31.6011 142.184 31.4832 142.243 31.4538C142.508 31.336 143.332 32.809 144.392 34.6944C144.893 35.5487 145.63 36.845 146.572 38.4653C146.749 38.3769 146.895 38.259 147.072 38.1707C146.365 36.3148 143.686 30.8646 144.127 30.4521C144.157 30.4227 144.187 30.3933 144.216 30.3933C144.657 30.2754 147.867 35.8728 148.722 37.2575C148.927 37.1691 149.134 37.0807 149.34 36.9922C148.78 36.0202 145.777 30.8056 145.865 29.5683C145.865 29.5389 145.865 29.48 145.895 29.48C146.395 29.156 150.989 35.9023 153.11 39.5553C154.552 42.0594 154.493 42.796 154.435 43.1495C154.317 43.9743 153.845 44.6225 153.403 45.0348Z" fill="#391966"/>
<path d="M167.923 70.3702C167.54 71.0477 166.687 71.4897 165.92 71.4602C164.272 71.4013 162.975 69.3096 161.945 67.0117C161.297 65.5682 160.767 64.0068 160.355 62.8579C159.501 60.5305 158.323 57.7318 156.645 54.5502H156.674C157.115 54.609 157.557 54.4618 158.029 54.1377C158.264 54.5502 158.529 54.9625 158.765 55.375C158.412 56.2588 158.352 56.7596 158.5 57.2605C158.559 57.4667 158.706 57.9086 159.118 58.1148C159.589 58.3799 160.149 58.1443 160.325 58.0853C160.385 58.0558 160.443 58.0558 160.473 58.0264C160.562 58.1443 160.65 58.2621 160.738 58.3799C160.59 58.7334 160.562 59.087 160.679 59.411C160.797 59.7646 161.12 60.1181 161.474 60.2359C161.68 60.2948 161.887 60.2948 162.122 60.2654C162.77 61.1197 163.388 61.8562 163.977 62.5338C164.036 62.5928 164.095 62.6517 164.154 62.74C165.626 64.4782 169.042 68.3374 167.923 70.3702Z" fill="#391966"/>
<path d="M126.399 206.063C126.369 206.917 112.5 206.947 96.0385 206.712C94.2422 199.582 92.4458 192.453 90.6495 185.294C86.998 192.6 83.3464 199.936 79.695 207.242C69.2998 207.742 58.9342 208.244 48.5391 208.744C49.9821 194.25 51.4544 179.755 52.8974 165.261C74.7772 166.352 96.6863 167.441 118.566 168.531C123.484 194.367 125.811 205.298 126.369 205.975C126.369 206.005 126.399 206.033 126.399 206.063Z" fill="#391966"/>
<path d="M75.8393 55.0206C74.8086 55.0206 73.778 54.6966 72.924 54.0484C71.8639 53.2825 71.1865 52.1336 70.9804 50.8374C70.5976 48.3922 72.1289 46.0353 74.5141 45.3872C74.7203 45.3283 74.897 45.2989 75.1031 45.2694C75.6921 45.181 76.3104 45.2399 76.3399 45.2399C76.8111 45.2694 77.2822 45.3872 77.724 45.564C77.8417 45.6229 77.9301 45.7702 77.8712 45.8881C77.8123 46.0059 77.665 46.0943 77.5472 46.0353C77.135 45.8881 76.7227 45.7997 76.3104 45.7407C76.3104 45.7407 75.7216 45.6818 75.1914 45.7702C75.0148 45.7997 74.8381 45.8291 74.6614 45.8881C72.5117 46.4773 71.1571 48.5984 71.481 50.7784C71.8344 53.1941 74.1018 54.8439 76.4872 54.4904C77.1056 54.402 77.7534 54.1074 77.7534 54.1074C77.8712 54.0484 78.0185 54.1074 78.0774 54.2253C78.1362 54.343 78.0774 54.4904 77.9595 54.5493C77.9302 54.5493 77.2528 54.8734 76.5461 54.9912C76.3399 54.9912 76.0749 55.0206 75.8393 55.0206Z" fill="#391966"/>
<path d="M93.0655 32.1311C89.1783 35.0182 85.2617 37.9348 81.3747 40.8218C81.6102 43.5322 81.8163 46.2425 82.052 48.9528C81.4335 49.0412 80.8445 49.159 80.2262 49.2474C80.1967 49.0118 79.755 46.9496 77.7231 45.9479C75.6323 44.9463 73.7181 45.9185 73.5121 46.0362C73.3059 45.0935 73.0998 43.709 73.1586 42.0592C73.2176 40.7041 73.6004 36.9037 76.2212 33.5453C80.3734 28.2424 87.6175 27.0934 89.9439 28.4192C91.0335 29.0378 91.7992 29.9511 91.7992 29.9511C92.5354 30.776 92.8887 31.6009 93.0655 32.1311Z" fill="#391966"/>
<path d="M95.8311 41.9406C94.2704 41.9406 92.9452 40.7622 92.7981 39.1714C92.6213 37.4921 93.8582 35.9897 95.5367 35.8423C96.3612 35.754 97.1563 35.9897 97.7747 36.5199C98.3931 37.0502 98.8054 37.7573 98.8642 38.5821C98.9526 39.4071 98.717 40.2024 98.1869 40.8211C97.6569 41.4398 96.9501 41.8522 96.1256 41.9112C96.0078 41.9406 95.9195 41.9406 95.8311 41.9406ZM95.8311 36.3138C95.7428 36.3138 95.6545 36.3138 95.5661 36.3138C94.1527 36.461 93.1219 37.6983 93.2692 39.1125C93.4164 40.5265 94.6532 41.5576 96.0668 41.4103C96.744 41.3514 97.3624 41.0274 97.8041 40.497C98.2459 39.9668 98.452 39.3187 98.3637 38.6116C98.3047 37.9341 97.9809 37.3154 97.4508 36.8735C96.9796 36.5199 96.4201 36.3138 95.8311 36.3138Z" fill="#391966"/>
<path d="M88.7668 46.7435C88.0306 46.7435 87.3238 46.4782 86.7349 46.0069C86.087 45.4767 85.6748 44.7107 85.5864 43.8563C85.4097 42.1182 86.7055 40.5569 88.4429 40.38C89.2969 40.2916 90.1214 40.5569 90.7692 41.0871C91.4171 41.6174 91.8293 42.3834 91.9177 43.2377C92.006 44.092 91.741 44.9169 91.211 45.565C90.6809 46.2131 89.9152 46.6256 89.0613 46.714C88.9729 46.7435 88.8846 46.7435 88.7668 46.7435ZM88.7668 40.8809C88.6784 40.8809 88.5901 40.8809 88.5018 40.8809C87.0293 41.0282 85.9398 42.3539 86.087 43.8269C86.146 44.5339 86.4993 45.1821 87.0588 45.6534C87.6183 46.0953 88.3251 46.331 89.0318 46.2426C89.7386 46.1836 90.3864 45.8302 90.8576 45.2704C91.2993 44.7107 91.5349 44.0036 91.4465 43.2966C91.3582 42.5896 91.0343 41.9414 90.4747 41.4701C90.0036 41.0871 89.3852 40.8809 88.7668 40.8809Z" fill="#391966"/>
<path d="M90.5303 41.4704H90.5008C90.3536 41.4409 90.2652 41.3232 90.2947 41.1758C90.3242 40.9696 90.5303 39.8502 91.5315 39.2315C91.9733 38.9663 92.5328 38.8485 93.0628 38.9075C93.2101 38.9075 93.2984 39.0547 93.2984 39.1726C93.2984 39.3198 93.1806 39.4082 93.0334 39.4082C92.7683 39.3788 92.2972 39.3788 91.7966 39.6734C90.972 40.1448 90.8248 41.058 90.7953 41.2348C90.7659 41.3526 90.648 41.4704 90.5303 41.4704Z" fill="#391966"/>
<path d="M81.8173 46.3014C81.729 46.3014 81.6407 46.2425 81.5817 46.1542C81.5228 46.0363 81.5817 45.889 81.6995 45.8301C82.7891 45.3587 83.8492 44.8579 84.9388 44.3865L85.7634 44.0036C85.8811 43.9447 86.0284 44.0036 86.0872 44.1214C86.1462 44.2392 86.0872 44.3865 85.9694 44.4454L85.1449 44.8284C84.0553 45.2997 82.9952 45.8006 81.9057 46.2719C81.9057 46.2719 81.8762 46.3014 81.8173 46.3014Z" fill="#391966"/>
<path d="M91.5626 44.7396C91.5332 44.7396 91.5038 44.7396 91.5038 44.7396C91.0326 44.6218 90.797 44.2388 90.5908 43.8853C90.4142 43.5907 90.267 43.3255 89.9725 43.2666C89.6191 43.1783 89.2657 43.4139 88.8829 43.6791C88.4707 43.9737 87.97 44.2977 87.4399 44.1209C86.9983 43.9737 86.7921 43.5317 86.586 43.1193C86.4093 42.7069 86.2621 42.2649 86.2031 41.7936V41.7641C86.2031 41.6169 86.321 41.499 86.4388 41.499C86.5566 41.499 86.6743 41.5874 86.6743 41.7347C86.7332 42.1472 86.8511 42.5302 86.9983 42.8836C87.2044 43.2961 87.3222 43.5612 87.5577 43.6496C87.8522 43.7675 88.1762 43.5317 88.559 43.2666C89.0007 42.972 89.4718 42.6479 90.0608 42.7658C90.5615 42.8836 90.797 43.2666 91.0031 43.5907C91.1798 43.8853 91.3271 44.1209 91.6216 44.2093C91.7393 44.2388 91.7983 44.3272 91.7983 44.445C91.7983 44.6218 91.7099 44.7396 91.5626 44.7396Z" fill="#391966"/>
<path d="M98.6031 39.4371C98.5736 39.4371 98.5442 39.4371 98.5442 39.4371C98.1319 39.3193 97.8669 39.0247 97.6313 38.789C97.3957 38.5533 97.1896 38.3471 96.8951 38.2881C96.4533 38.2293 96.0705 38.4944 95.6877 38.7301C95.2755 39.0247 94.8337 39.2898 94.3626 39.1425C93.9209 38.9952 93.7147 38.5533 93.5086 38.1114C93.4202 37.8757 93.3319 37.6695 93.273 37.4338C93.2436 37.2866 93.3024 37.1687 93.4497 37.1392C93.5969 37.1097 93.7147 37.1687 93.7442 37.316C93.8031 37.5222 93.8619 37.7284 93.9797 37.9347C94.1859 38.3471 94.3037 38.6122 94.5392 38.7006C94.7749 38.789 95.0399 38.6417 95.4227 38.3471C95.835 38.0525 96.365 37.6989 97.0129 37.8168C97.4841 37.9052 97.7786 38.1998 98.0436 38.4649C98.2497 38.6711 98.4558 38.8774 98.7503 38.9657C98.8976 38.9952 98.9564 39.1425 98.927 39.2898C98.8092 39.3487 98.7209 39.4371 98.6031 39.4371Z" fill="#391966"/>
<path d="M92.887 56.9665C92.7987 56.9665 92.7103 56.9075 92.6515 56.8192C92.5926 56.7014 92.6515 56.554 92.7987 56.4952C92.9754 56.4362 93.1226 56.3478 93.2993 56.2594C95.2134 55.3756 96.7153 54.1088 97.8048 52.4885C101.545 46.8912 98.3349 39.3789 95.8318 35.8436C95.2134 34.9598 94.2416 33.6046 92.7987 32.4557C92.6809 32.3673 92.6809 32.2201 92.7693 32.1022C92.8576 31.9844 93.0048 31.9844 93.1226 32.0727C94.6244 33.2806 95.6257 34.6652 96.244 35.5785C98.8061 39.2315 102.134 46.95 98.2466 52.7832C97.1275 54.4624 95.5374 55.7881 93.5643 56.7308C93.3876 56.8191 93.211 56.9075 93.0343 56.9665C92.946 56.9665 92.9165 56.9665 92.887 56.9665Z" fill="#391966"/>
<path d="M92.8879 59.2048C92.7407 59.2048 92.6523 59.087 92.6523 58.9397V56.7007C92.6523 56.5534 92.7701 56.4355 92.8879 56.4355C93.0057 56.4355 93.1235 56.5534 93.1235 56.7007V58.9397C93.1235 59.1165 93.0351 59.2048 92.8879 59.2048Z" fill="#391966"/>
<path d="M77.0761 58.1445C76.9289 58.1445 76.8111 58.0266 76.8405 57.8793C76.9289 56.7304 76.9877 55.5814 77.0761 54.5209C77.0761 54.3736 77.1939 54.2852 77.3411 54.2852C77.4884 54.2852 77.5767 54.403 77.5767 54.5504C77.5177 55.6109 77.4294 56.7598 77.3411 57.9088C77.3117 58.0266 77.2234 58.1445 77.0761 58.1445Z" fill="#391966"/>
<path d="M92.9458 56.5246C92.9165 57.1433 92.887 57.7914 92.887 58.4101C91.974 58.469 89.7361 58.469 87.5275 57.0549C86.4379 56.3479 85.7017 55.523 85.2305 54.9043C86.4084 55.7292 89.0293 57.3495 92.0035 56.7603C92.3275 56.7308 92.6514 56.6425 92.9458 56.5246Z" fill="#391966"/>
<path d="M131.053 122.75C130.552 126.049 129.286 130.616 125.693 134.062C121.895 137.715 117.743 137.951 104.697 138.334C104.667 138.334 104.667 138.334 104.638 138.334C104.667 138.334 104.667 138.305 104.697 138.305C105.345 137.833 105.757 137.362 105.787 136.92C105.816 136.419 105.64 136.066 105.551 135.918C105.787 135.594 105.934 135.271 105.963 134.976C105.963 134.799 105.993 134.209 105.64 133.827C105.315 133.502 104.815 133.473 104.255 133.591C104.255 133.591 104.255 133.591 104.255 133.562C104.314 133.414 104.52 132.855 104.225 132.442C104.167 132.325 104.078 132.265 103.96 132.206C103.96 132.206 103.932 132.206 103.932 132.177L103.902 132.148C103.695 132.03 103.43 132 103.225 132C102.342 131.912 101.605 132.265 101.369 132.383C101.045 132.53 100.751 132.678 100.427 132.825C100.427 132.825 100.398 132.825 100.398 132.855C100.074 133.002 99.7497 133.149 99.4552 133.297C99.3964 133.325 99.3669 133.325 99.3081 133.355H99.2786C98.7191 133.62 98.1596 133.886 97.6001 134.18C97.6001 134.18 97.5706 134.18 97.5706 134.209C96.9228 134.534 95.951 135.006 94.6847 135.476C94.6552 135.476 94.6552 135.506 94.6258 135.506C94.6258 135.506 94.5964 135.506 94.5964 135.536C94.0663 135.741 93.3596 136.006 92.5644 136.183C92.5056 136.213 92.4466 136.213 92.4173 136.213C92.4173 136.213 92.4173 136.213 92.3878 136.213C92.0638 136.301 91.7105 136.36 91.3571 136.42H91.3276C91.2982 136.42 91.2688 136.419 91.2393 136.448C91.1215 136.478 91.0332 136.478 90.9154 136.508C90.7976 136.537 90.6503 136.537 90.5325 136.566C90.3853 136.596 90.2675 136.596 90.1203 136.596C90.0025 136.596 89.8552 136.625 89.7375 136.625C89.6197 136.625 89.5019 136.625 89.3841 136.655H89.3547C89.3252 136.655 89.2957 136.655 89.2369 136.655C89.1779 136.655 89.1191 136.655 89.0896 136.655C87.0871 136.685 85.4675 136.331 84.3485 136.006C85.6148 135.713 89.5902 134.739 92.6233 133.444C93.3301 133.12 94.5964 132.56 94.9792 131.381C95.0087 131.323 95.038 131.234 95.0675 131.116C95.1559 130.556 94.9497 130.262 94.8909 130.174C94.4786 129.672 93.5362 129.702 93.1829 129.732C93.1534 129.732 93.1239 129.732 93.0946 129.732C92.8884 129.761 92.6528 129.791 92.4466 129.82C91.5043 129.967 90.6209 130.144 89.7964 130.379C89.7964 130.379 89.7964 130.379 89.7669 130.379C89.5313 130.439 88.0001 130.821 86.3215 130.881C84.5252 130.939 83.7595 130.556 82.5522 130.498C82.2577 130.468 81.9338 130.498 81.5804 130.527C81.5509 130.527 81.5215 130.527 81.4626 130.527C81.4331 130.527 81.4331 130.527 81.4038 130.527C80.4025 130.616 79.4012 130.851 79.1362 130.881C79.1067 130.881 79.1067 130.881 79.1067 130.881C78.7239 131.086 78.4 131.116 78.1939 131.116C77.9289 131.086 77.7816 130.998 77.281 130.821C76.9571 130.704 76.7215 130.616 76.5448 130.586C74.6012 130.026 72.6577 129.437 70.6553 128.819C68.6822 128.2 66.7387 127.581 64.854 126.963C64.589 125.726 64.4712 124.547 64.3828 123.515C74.3068 125.46 86.9693 126.963 101.605 126.461C112.855 126.049 122.808 124.547 131.053 122.75Z" fill="#391966"/>
<path d="M147.28 65.0973C147.162 65.0973 147.045 65.009 147.045 64.8616C147.015 64.6849 147.015 64.5081 147.015 64.3314C146.956 63.0941 147.133 61.9451 147.545 60.8845C148.135 59.3526 148.93 58.675 149.695 58.0269C150.401 57.4082 151.05 56.8485 151.55 55.6407C152.021 54.4328 152.08 53.2838 152.11 52.2528C152.139 50.9565 152.198 49.8664 153.14 49.2184C153.288 49.13 153.405 49.0416 153.553 49.0121C153.818 48.9237 154.023 48.9237 154.083 48.9532C155.025 49.0711 155.761 50.2789 156.085 52.1938C156.115 52.3411 156.026 52.4589 155.879 52.4884C155.731 52.5179 155.614 52.4295 155.585 52.2822C155.32 50.6324 154.701 49.513 154.023 49.4541C153.994 49.4541 153.876 49.4541 153.7 49.513C153.611 49.5424 153.493 49.6013 153.405 49.6602C152.669 50.161 152.64 51.1037 152.61 52.3117C152.581 53.3722 152.551 54.5801 152.021 55.8468C151.491 57.1431 150.755 57.7912 150.048 58.4099C149.283 59.058 148.576 59.6767 148.046 61.0907C147.663 62.0924 147.486 63.1825 147.545 64.3608C147.545 64.5376 147.575 64.7144 147.575 64.8616C147.545 64.95 147.427 65.0679 147.28 65.0973Z" fill="#391966"/>
<path d="M156.171 66.5695C156.142 66.5695 156.113 66.5695 156.113 66.5695C155.965 66.5401 155.906 66.3928 155.935 66.2455C156.672 63.7119 154.935 60.4713 154.905 60.4124C154.875 60.324 154.875 60.2357 154.905 60.1767C155.67 58.7037 156.113 57.1718 156.171 55.6398C156.171 55.2863 156.171 54.9329 156.142 54.6383C156.142 54.4909 156.23 54.373 156.378 54.373C156.525 54.373 156.643 54.4615 156.643 54.6088C156.672 54.9329 156.672 55.3158 156.672 55.6693C156.613 57.2602 156.171 58.8215 155.405 60.324C155.73 60.9721 157.113 63.9182 156.407 66.3928C156.378 66.4811 156.289 66.5695 156.171 66.5695Z" fill="#391966"/>
<path d="M153.552 49.4831C153.523 49.4831 153.464 49.4831 153.434 49.4537C153.316 49.3947 153.287 49.218 153.346 49.1001C158.146 40.6745 159.766 40.8807 160.296 40.9691C161.179 41.087 161.562 41.5878 161.592 41.6173C162.592 42.9725 160.737 45.83 159.53 47.4209C159.442 47.5387 159.294 47.5387 159.177 47.4798C159.059 47.3914 159.059 47.2441 159.117 47.1263C160.561 45.2113 161.886 42.8546 161.179 41.9119C161.179 41.9119 160.884 41.5583 160.237 41.4699C159.559 41.3816 157.822 42.2949 153.788 49.3653C153.729 49.4537 153.641 49.4831 153.552 49.4831Z" fill="#391966"/>
<path d="M147.749 61.2076C147.719 61.2076 147.689 61.2076 147.661 61.1782C147.543 61.1193 147.483 60.972 147.543 60.8541C148.191 59.3516 148.868 57.8197 149.545 56.3468C150.399 54.5202 151.282 52.6937 152.196 50.9261C152.254 50.8083 152.401 50.7493 152.519 50.8083C152.637 50.8672 152.696 51.0145 152.637 51.1323C151.724 52.9294 150.841 54.7264 150.016 56.5529C149.339 58.026 148.661 59.5579 148.014 61.0604C147.926 61.1487 147.837 61.2076 147.749 61.2076Z" fill="#391966"/>
<path d="M156.879 54.8447C156.791 54.8447 156.702 54.8447 156.644 54.8153C156.644 54.8153 156.614 54.8153 156.584 54.8153C156.556 54.8153 156.496 54.7858 156.408 54.7858C155.966 54.668 155.554 54.3734 155.377 54.0199C155.171 53.6369 155.171 53.195 155.377 52.6058C155.436 52.4585 155.496 52.3112 155.554 52.1344C155.613 51.9871 155.672 51.8693 155.761 51.722C155.878 51.5158 155.996 51.2801 156.114 51.0738C156.261 50.8382 156.644 50.1016 157.409 49.1001C158.558 47.627 159.117 46.8611 160.001 46.8022C160.825 46.7432 161.473 47.3029 161.797 47.627C162.474 48.3341 162.739 49.3947 162.534 50.5731C162.504 50.7203 162.386 50.8087 162.239 50.7792C162.092 50.7498 162.004 50.632 162.032 50.4847C162.209 49.483 162.004 48.5697 161.414 47.9805C161.149 47.7154 160.619 47.2736 160.001 47.3029C159.353 47.3324 158.823 48.0395 157.792 49.3947C157.026 50.3962 156.644 51.0738 156.526 51.3096C156.526 51.3096 156.526 51.3096 156.526 51.339C156.408 51.5747 156.291 51.7809 156.202 51.9871C156.143 52.1344 156.054 52.2523 155.996 52.3996C155.937 52.5469 155.878 52.6942 155.819 52.8415C155.672 53.2834 155.642 53.6074 155.789 53.8725C155.996 54.2261 156.408 54.3734 156.526 54.4029C156.584 54.4324 156.614 54.4323 156.644 54.4323C156.644 54.4323 156.673 54.4323 156.702 54.4323C157.026 54.4912 157.439 54.3734 157.851 54.0494C158.734 53.4307 159.677 52.105 160.413 50.4257C160.472 50.3079 160.619 50.249 160.737 50.3079C160.854 50.3669 160.914 50.5141 160.854 50.632C160.059 52.429 159.088 53.7842 158.116 54.4617C157.733 54.6975 157.291 54.8447 156.879 54.8447Z" fill="#391966"/>
<path d="M159.619 58.5265C159.383 58.5265 159.178 58.4675 159 58.3791C158.5 58.114 158.323 57.5837 158.264 57.3776C158.088 56.7883 158.176 56.2285 158.529 55.3153C158.706 54.844 158.971 54.2842 159.413 53.4298C160.649 50.9847 161.091 50.3955 161.828 50.2482C162.004 50.2188 162.181 50.2188 162.328 50.2188C162.681 50.2482 163.006 50.3955 163.182 50.4839C164.271 51.132 164.684 52.7523 164.183 54.4904C164.154 54.6377 164.006 54.6966 163.859 54.6672C163.712 54.6377 163.653 54.4904 163.683 54.3431C164.124 52.8701 163.771 51.4266 162.916 50.8962C162.711 50.7785 162.475 50.7195 162.269 50.6901C162.151 50.6901 162.033 50.6901 161.886 50.7195C161.445 50.8079 161.091 51.132 159.825 53.6361C159.413 54.461 159.148 55.0207 158.971 55.4626C158.618 56.3759 158.618 56.7884 158.735 57.2007C158.794 57.3481 158.912 57.731 159.236 57.9078C159.619 58.114 160.09 57.9373 160.238 57.8489C160.296 57.8194 160.326 57.8194 160.384 57.7899C160.768 57.6132 161.121 57.2302 161.945 55.8162C162.358 55.1091 162.74 54.3431 163.123 53.6066C163.182 53.4888 163.329 53.4298 163.447 53.4888C163.565 53.5477 163.624 53.695 163.565 53.8128C163.182 54.5788 162.799 55.3448 162.386 56.0813C161.591 57.4659 161.15 57.9962 160.62 58.2613C160.561 58.2908 160.503 58.3203 160.443 58.3496C160.149 58.4675 159.884 58.5265 159.619 58.5265Z" fill="#391966"/>
<path d="M158.38 74.112C158.35 74.112 158.292 74.112 158.262 74.0825C158.144 74.0236 158.085 73.8763 158.144 73.7585L159.175 71.8141C160.059 70.1349 160.912 68.4851 161.707 66.9532C162.62 65.1562 163.327 63.801 163.887 62.6815C164.977 60.5015 165.624 59.1168 165.86 58.4097L165.918 58.233C166.125 57.6438 166.478 56.6716 166.095 55.8173C165.86 55.287 165.3 54.6978 164.623 54.6389C163.887 54.58 163.268 55.3164 162.208 56.6716C161.678 57.3492 161.177 57.9679 160.942 58.5276C160.795 58.8517 160.795 59.1463 160.883 59.3819C161 59.6765 161.237 59.9417 161.53 60.0301C161.678 60.089 161.855 60.089 162.032 60.0301C162.532 59.9123 163.032 59.4409 163.357 59.1758C163.798 58.7633 164.152 58.292 164.417 57.7322C164.475 57.6144 164.623 57.5554 164.74 57.6144C164.858 57.6733 164.917 57.8206 164.858 57.9384C164.564 58.5571 164.182 59.0873 163.71 59.5293C163.357 59.8534 162.797 60.3541 162.149 60.5015C161.884 60.5603 161.619 60.5603 161.384 60.472C160.942 60.3247 160.589 59.9711 160.412 59.4998C160.294 59.1168 160.294 58.7338 160.5 58.292C160.735 57.6733 161.265 57.0252 161.825 56.3181C163.003 54.8451 163.652 54.0203 164.682 54.0791C165.565 54.1381 166.272 54.8451 166.567 55.5522C167.038 56.6127 166.625 57.7322 166.39 58.3509L166.33 58.4982C166.095 59.2052 165.418 60.6193 164.328 62.8288C163.769 63.9482 163.062 65.3329 162.149 67.1005C161.354 68.6324 160.5 70.2822 159.617 71.9909L158.586 73.9352C158.557 74.0531 158.468 74.112 158.38 74.112Z" fill="#391966"/>
<path d="M159.088 72.52C158.853 72.9619 158.617 73.4038 158.382 73.8751C156.703 72.4021 154.965 70.8997 153.11 69.3972C151.137 67.7769 149.194 66.2745 147.28 64.8603C147.25 64.7131 147.25 64.5364 147.25 64.3301C149.342 65.7737 151.462 67.2172 153.582 68.6607C155.407 69.957 157.233 71.2238 159.088 72.52Z" fill="#391966"/>
<path d="M84.1736 136.213C84.0557 136.213 83.9674 136.125 83.9379 136.007C83.9084 135.859 83.9968 135.742 84.1146 135.713C86.117 135.271 89.0324 134.534 91.6827 133.444C92.4778 133.12 94.5686 132.06 94.7453 130.999V130.94C94.7748 130.586 94.5981 130.292 94.5686 130.262C94.3331 129.909 93.538 129.939 92.949 129.939C92.419 129.967 92.0067 130.027 91.83 130.056C88.414 130.822 88.0018 130.881 87.7956 130.911C87.0888 130.999 86.2937 131.087 85.2631 131.029C84.733 130.999 84.2913 130.94 83.8496 130.852C83.4079 130.793 82.9661 130.704 82.4655 130.704C81.7293 130.675 81.1404 130.734 80.7282 130.793H80.6397C79.7564 130.911 78.8729 131.087 78.0189 131.382C77.8716 131.411 77.7539 131.353 77.695 131.234C77.6655 131.117 77.7244 130.969 77.8422 130.911C78.7551 130.616 79.668 130.409 80.5809 130.292H80.6692C81.111 130.233 81.7293 130.174 82.495 130.204C83.0251 130.233 83.4962 130.292 83.9379 130.38C84.3502 130.439 84.7919 130.527 85.2925 130.557C86.2643 130.616 87.03 130.527 87.7073 130.439C87.9134 130.409 88.3256 130.351 91.7122 129.585C91.8888 129.555 92.3305 129.467 92.9195 129.437C93.6558 129.408 94.5981 129.379 94.9809 129.997C95.0398 130.086 95.2754 130.469 95.2164 130.999V131.087C94.9809 132.62 91.9772 133.857 91.8594 133.915C89.1796 135.006 86.2054 135.771 84.2029 136.213C84.2029 136.213 84.2029 136.213 84.1736 136.213Z" fill="#391966"/>
<path d="M74.0117 145.287V144.786C74.8951 144.757 75.7491 144.727 76.5148 144.698C78.7234 144.639 80.2841 144.579 80.9025 144.579C81.8154 144.551 82.9933 144.551 82.9933 144.551H83.9651C87.9699 144.491 90.5908 144.462 94.2129 143.696C94.6252 143.607 96.4805 142.989 99.8375 141.84L100.22 141.723C102.282 141.015 104.225 140.338 104.49 139.13C104.52 139.012 104.578 138.717 104.461 138.482C104.402 138.364 104.461 138.187 104.578 138.128C104.696 138.07 104.843 138.098 104.903 138.217C104.903 138.246 104.932 138.246 104.932 138.275C105.108 138.658 105.02 139.071 104.991 139.218C104.667 140.721 102.693 141.398 100.397 142.165L100.014 142.282C96.5393 143.46 94.7725 144.079 94.3307 144.167C90.6792 144.934 87.8522 144.992 83.9945 145.022H83.0227C83.0227 145.022 81.8448 145.051 80.932 145.051C80.2841 145.051 78.7528 145.111 76.5442 145.169C75.7491 145.228 74.8951 145.258 74.0117 145.287Z" fill="#391966"/>
<path d="M92.4193 140.219C92.3015 140.219 92.2131 140.161 92.1837 140.043C92.1542 139.925 92.2131 139.778 92.3603 139.719C93.6561 139.336 94.9517 138.864 96.1592 138.364C96.7187 138.127 97.2487 137.892 97.7493 137.657C99.3984 136.89 103.256 135.064 104.051 133.444C104.139 133.237 104.198 133.06 104.198 132.884C104.198 132.825 104.169 132.707 104.051 132.56C103.344 131.646 101.136 132.707 98.6033 133.944C96.8659 134.799 94.8929 135.741 92.9493 136.301C92.0365 136.566 91.4769 136.655 91.2708 136.685H91.2413C88.9444 137.067 86.5885 136.89 84.2622 136.213C84.1149 136.183 84.0561 136.036 84.0855 135.889C84.1149 135.771 84.2622 135.683 84.4094 135.712C86.677 136.36 88.9444 136.508 91.1825 136.154H91.2119C91.418 136.125 91.9187 136.036 92.8315 135.801C94.7456 135.271 96.6892 134.327 98.3971 133.473C101.224 132.088 103.491 130.998 104.463 132.236C104.611 132.442 104.699 132.618 104.699 132.855C104.699 133.12 104.64 133.385 104.493 133.679C103.609 135.447 99.6339 137.303 97.9555 138.127C97.4548 138.364 96.8953 138.599 96.3652 138.835C95.1284 139.366 93.8328 139.807 92.5076 140.219C92.4487 140.219 92.4487 140.219 92.4193 140.219Z" fill="#391966"/>
<path d="M92.8875 141.753C92.7696 141.753 92.6813 141.693 92.6519 141.576C92.6225 141.428 92.6813 141.311 92.8286 141.251C96.4802 140.191 99.3954 139.16 101.575 138.188C102.222 137.893 102.812 137.598 103.312 137.303C104.284 136.773 104.961 136.243 105.344 135.742C105.579 135.447 105.697 135.182 105.697 134.947C105.727 134.505 105.639 134.181 105.432 133.975C105.226 133.768 104.814 133.71 104.284 133.798C104.137 133.827 104.019 133.739 103.989 133.592C103.96 133.445 104.049 133.326 104.195 133.297C104.902 133.15 105.462 133.268 105.786 133.621C106.08 133.915 106.227 134.387 106.198 134.977C106.169 135.33 106.022 135.684 105.727 136.066C105.314 136.596 104.579 137.156 103.577 137.746C103.077 138.04 102.459 138.335 101.781 138.659C99.6016 139.66 96.6273 140.691 92.9758 141.753C92.9464 141.753 92.9169 141.753 92.8875 141.753Z" fill="#391966"/>
<path d="M93.1844 142.96C93.0666 142.96 92.9782 142.901 92.9487 142.783C92.9194 142.636 92.9782 142.518 93.1255 142.488C98.7795 140.898 102.726 139.395 104.493 138.158C104.493 138.158 104.493 138.158 104.521 138.158L104.551 138.128C105.169 137.686 105.494 137.274 105.523 136.921C105.553 136.508 105.406 136.214 105.317 136.066C105.258 135.949 105.288 135.801 105.406 135.713C105.523 135.654 105.671 135.684 105.759 135.801C105.876 135.978 106.053 136.391 106.024 136.921C105.994 137.421 105.611 137.952 104.846 138.512L104.669 138.335L104.816 138.541L104.786 138.57C102.49 140.191 97.2776 141.841 93.3022 142.96C93.2432 142.96 93.2138 142.96 93.1844 142.96Z" fill="#391966"/>
<path d="M78.2227 131.087L76.5148 144.963C75.7491 144.993 74.8951 145.022 74.0117 145.051C74.6006 142.93 75.2191 140.809 75.8375 138.717C76.5442 136.213 77.2804 133.71 77.9872 131.206V131.176C78.046 131.117 78.1344 131.087 78.2227 131.087Z" fill="#391966"/>
</g>
</g>
</g>
</g>
</g>
<defs>
<clipPath id="clip0_5340_50975">
<rect width="176" height="176" fill="white"/>
</clipPath>
<clipPath id="clip1_5340_50975">
<rect width="176" height="176" fill="white"/>
</clipPath>
<clipPath id="clip2_5340_50975">
<rect width="176" height="176" fill="white"/>
</clipPath>
</defs>
</svg>
