<svg width="176" height="176" viewBox="0 0 176 176" fill="none" xmlns="http://www.w3.org/2000/svg">
<g clip-path="url(#clip0_5340_51082)">
<g clip-path="url(#clip1_5340_51082)">
<g clip-path="url(#clip2_5340_51082)">
<mask id="mask0_5340_51082" style="mask-type:luminance" maskUnits="userSpaceOnUse" x="0" y="0" width="176" height="176">
<path d="M176 88C176 39.3989 136.601 0 88 0C39.3989 0 0 39.3989 0 88C0 136.601 39.3989 176 88 176C136.601 176 176 136.601 176 88Z" fill="white"/>
</mask>
<g mask="url(#mask0_5340_51082)">
<path d="M176 88C176 39.3989 136.601 0 88 0C39.3989 0 0 39.3989 0 88C0 136.601 39.3989 176 88 176C136.601 176 176 136.601 176 88Z" fill="#E3E0FF"/>
<mask id="mask1_5340_51082" style="mask-type:luminance" maskUnits="userSpaceOnUse" x="-66" y="11" width="321" height="246">
<path d="M254.791 11.2559H-65.4883V256.837H254.791V11.2559Z" fill="white"/>
</mask>
<g mask="url(#mask1_5340_51082)">
<path d="M56.8427 17.6831C56.8088 17.6831 56.7748 17.6831 56.7408 17.6491C56.6048 17.581 56.5368 17.445 56.6048 17.3091L58.9848 11.3922C59.0528 11.2562 59.1887 11.1881 59.3247 11.2562C59.4608 11.3242 59.5288 11.4602 59.4608 11.5962L57.0807 17.5131C57.0468 17.6151 56.9447 17.6831 56.8427 17.6831Z" fill="#0C0080"/>
<path d="M33.7582 68.2817C33.6901 68.2817 33.5882 68.2476 33.5541 68.1797L30.0862 62.7729C30.0182 62.6709 30.0521 62.5009 30.1541 62.4329C30.2562 62.3648 30.4261 62.3989 30.4942 62.5009L33.9622 67.9076C34.0301 68.0096 33.9962 68.1797 33.8941 68.2476C33.8602 68.2476 33.8261 68.2817 33.7582 68.2817Z" fill="#0C0080"/>
<path d="M81.6982 163.155C81.6641 163.155 81.6301 163.155 81.5961 163.121L75.7142 160.196C75.5782 160.129 75.5441 159.993 75.6121 159.857C75.6802 159.721 75.8162 159.687 75.9522 159.754L81.8341 162.679C81.9701 162.747 82.0041 162.884 81.9362 163.02C81.8681 163.087 81.8001 163.155 81.6982 163.155Z" fill="#0C0080"/>
<path d="M112.842 128.301C112.775 128.301 112.673 128.267 112.639 128.198C112.57 128.096 112.57 127.926 112.706 127.859L118.011 124.05C118.112 123.981 118.283 123.981 118.351 124.118C118.418 124.22 118.418 124.39 118.283 124.458L113.012 128.232C112.945 128.267 112.911 128.301 112.842 128.301Z" fill="#0C0080"/>
<path d="M90.811 99.2598C90.7431 99.2598 90.6411 99.2258 90.6071 99.1578C90.573 99.0898 90.5391 99.0218 90.5391 98.9537L92.7831 87.5283C92.817 87.3922 92.9191 87.3242 93.0211 87.3242C93.1571 87.3242 93.2591 87.4262 93.2591 87.5283C93.2591 87.5622 93.2591 87.6303 93.2591 87.6642C92.579 91.1667 91.8991 94.6352 91.219 98.0017L91.0151 99.0218C91.0491 99.1578 90.947 99.2598 90.811 99.2598Z" fill="#0C0080"/>
<path d="M98.5964 99.2602C98.5284 99.2602 98.4264 99.2263 98.3923 99.1582C98.3584 99.0903 98.3244 99.0222 98.3244 98.9542L100.568 87.5287L96.9644 68.9282L95.7404 75.219C94.9584 79.2655 94.1423 83.4822 93.2924 87.6987C93.2584 87.8347 93.1563 87.9027 93.0544 87.9027C92.9184 87.9027 92.8164 87.8007 92.8164 87.6987V87.6306C92.8164 87.5967 92.8164 87.5627 92.8164 87.5287L96.7264 67.534L95.9104 63.2834C95.9104 63.2494 95.9104 63.2494 95.9104 63.2153C95.9104 63.0794 96.0123 62.9434 96.1483 62.9434C96.2844 62.9434 96.3863 63.0454 96.3863 63.1474L97.2364 67.4659V67.4999V67.534L100.874 86.2365C101.86 81.2378 102.812 76.2391 103.73 71.6145L104.546 67.4659C104.581 67.2959 104.614 67.1259 104.648 66.9559L104.717 66.6158C104.751 66.4798 104.887 66.3778 105.023 66.4118C105.159 66.4458 105.26 66.5819 105.226 66.7178L105.159 67.0579C105.124 67.2279 105.09 67.3979 105.056 67.568L104.24 71.7165C103.255 76.7492 102.2 82.19 101.146 87.5967C101.146 87.5967 101.146 87.5967 101.146 87.6306C100.398 91.4732 99.6504 95.3498 98.9024 99.0562C98.8344 99.1582 98.7324 99.2602 98.5964 99.2602Z" fill="#0C0080"/>
<path d="M95.0271 57.9443C94.8911 57.9443 94.7891 57.8423 94.7891 57.7403V57.7062C94.7891 57.6723 94.7891 57.6723 94.7891 57.6383C94.7891 57.5022 94.8911 57.3662 95.0271 57.3662C95.1631 57.3662 95.2651 57.4682 95.2651 57.5702V57.6383C95.2991 57.7743 95.197 57.9103 95.061 57.9443C95.061 57.9443 95.061 57.9443 95.0271 57.9443Z" fill="#0C0080"/>
<path d="M96.9657 67.772C96.8296 67.772 96.7277 67.67 96.7277 67.568L95.8777 63.2494C95.8437 63.1134 95.9456 62.9774 96.0817 62.9434C96.2177 62.9094 96.3537 63.0114 96.3877 63.1474L96.9657 66.1738L97.5776 63.0114C97.6117 62.8753 97.7477 62.7733 97.8837 62.8074C98.0197 62.8414 98.1217 62.9774 98.0877 63.1133L97.2036 67.568C97.1696 67.704 97.0676 67.772 96.9657 67.772Z" fill="#0C0080"/>
<path d="M95.0592 57.9443C94.9232 57.9443 94.8212 57.8423 94.8212 57.7403V57.7063C94.7872 57.5703 94.8551 57.4342 94.9911 57.4003C95.1271 57.3663 95.2631 57.4342 95.2971 57.5703C95.2971 57.6043 95.2972 57.6383 95.3311 57.6723C95.3651 57.8083 95.2631 57.9443 95.1271 57.9443C95.0592 57.9443 95.0592 57.9443 95.0592 57.9443Z" fill="#0C0080"/>
<path d="M103.869 63.1131C103.732 63.1131 103.63 63.0451 103.63 62.9091L103.596 62.671C103.563 62.535 103.664 62.399 103.8 62.365C103.936 62.3309 104.072 62.433 104.106 62.569L104.14 62.8071C104.175 62.943 104.072 63.079 103.936 63.1131C103.902 63.1131 103.869 63.1131 103.869 63.1131Z" fill="#0C0080"/>
<path d="M100.84 87.8001C100.704 87.8001 100.602 87.6981 100.602 87.5961C100.025 84.6378 99.4465 81.6793 98.8685 78.7209L96.7266 67.6694V67.6354C96.7266 67.6354 96.7266 67.6015 96.7266 67.5674L97.6106 63.0788C97.6445 62.9428 97.7805 62.8408 97.9165 62.8747C98.0525 62.9088 98.1545 63.0448 98.1205 63.1808L97.2705 67.6354L99.4125 78.6529C99.8885 81.1692 100.399 83.7196 100.875 86.236L104.547 67.4995C104.581 67.3634 104.717 67.2613 104.853 67.2954C104.989 67.3294 105.09 67.4654 105.056 67.6014L101.147 87.6302C101.078 87.6981 100.976 87.8001 100.84 87.8001Z" fill="#0C0080"/>
<path d="M103.869 63.1131C103.732 63.1131 103.63 63.0451 103.63 62.9091L103.596 62.671C103.563 62.535 103.664 62.399 103.8 62.365C103.936 62.3309 104.072 62.433 104.106 62.569L104.14 62.8071C104.175 62.943 104.072 63.079 103.936 63.1131C103.902 63.1131 103.869 63.1131 103.869 63.1131Z" fill="#0C0080"/>
<path d="M73.5727 67.84H73.5387C73.4027 67.8061 73.3007 67.6701 73.3347 67.534L76.1907 52.776C76.2247 52.64 76.3607 52.538 76.4967 52.572C76.6327 52.606 76.7347 52.742 76.7007 52.878L73.8447 67.636C73.8107 67.738 73.7087 67.84 73.5727 67.84Z" fill="#0C0080"/>
<path d="M95.2292 99.2601C95.0932 99.2601 94.9912 99.1921 94.9912 99.056L93.1892 89.6708C93.0532 89.0248 92.9512 88.3787 92.8152 87.7326C92.7811 87.5965 92.8831 87.4605 93.0191 87.4265C93.1551 87.3925 93.2911 87.4945 93.3252 87.6306L93.6992 89.5688C94.2092 92.1532 94.6852 94.7035 95.1952 97.2879L95.5352 98.9881C95.5692 99.1241 95.4672 99.2601 95.3312 99.2942C95.2631 99.2601 95.2631 99.2601 95.2292 99.2601Z" fill="#0C0080"/>
<path d="M78.4341 92.7989C78.2981 92.7989 78.1961 92.7309 78.1961 92.5949V92.5609C77.278 87.8343 76.394 83.3457 76.3261 83.0396C75.85 80.5913 74.9661 76.0687 74.2181 72.2941L73.3001 67.6695C72.62 64.2351 72.008 61.0726 71.498 58.3183L70.4441 52.8435C70.4101 52.7075 70.512 52.5715 70.648 52.5375C70.7841 52.5034 70.9201 52.6055 70.9541 52.7415L77.482 86.202L81.086 67.5675C80.338 63.657 79.624 60.0525 79.0461 57.0261L78.23 52.8095C78.1961 52.6735 78.2981 52.5375 78.4341 52.5034C78.5701 52.4695 78.7061 52.5715 78.74 52.7075L81.358 66.1393L83.1601 56.89C83.398 55.6318 83.636 54.3737 83.908 53.0816L83.976 52.6735C84.01 52.5375 84.146 52.4355 84.282 52.4695C84.4181 52.5034 84.52 52.6394 84.486 52.7755L81.63 67.4655L85.574 87.5622C85.574 87.5962 85.574 87.6303 85.574 87.6642V87.7323C85.5401 87.8683 85.4381 87.9362 85.336 87.9362C85.2 87.9362 85.098 87.8342 85.098 87.7323L84.622 85.284C83.5 79.6052 82.4121 73.9944 81.4261 68.8597L77.8221 87.4602L78.774 92.3909V92.4249C78.8081 92.5609 78.7061 92.6969 78.5701 92.7309C78.468 92.799 78.4681 92.7989 78.4341 92.7989Z" fill="#0C0080"/>
<path d="M90.436 61.3792H90.402C90.266 61.3453 90.1639 61.2093 90.198 61.0732L90.3 60.5632C90.334 60.4271 90.47 60.3251 90.606 60.3592C90.742 60.3931 90.844 60.5291 90.8099 60.6652L90.708 61.1752C90.6739 61.3113 90.572 61.3792 90.436 61.3792Z" fill="#0C0080"/>
<path d="M91.0493 58.2506H91.0153C90.8793 58.2167 90.7773 58.0806 90.8113 57.9446L90.9473 57.2985C90.9813 57.1625 91.1173 57.0605 91.2533 57.0945C91.3893 57.1285 91.4912 57.2645 91.4572 57.4005L91.3213 58.0466C91.2873 58.1486 91.1853 58.2506 91.0493 58.2506Z" fill="#0C0080"/>
<path d="M85.3384 88.1409C85.2024 88.1409 85.1004 88.0389 85.1004 87.9369L85.0664 87.7328C85.0664 87.6988 85.0664 87.6648 85.0664 87.6308L88.9424 67.6701L88.0924 63.2835V63.2495C88.0924 63.1135 88.1604 63.0115 88.2964 63.0115C88.4324 62.9774 88.5684 63.0794 88.6024 63.2155L89.2144 66.3439L89.7924 63.4535C89.8264 63.3176 89.9624 63.2155 90.0984 63.2495C90.2344 63.2835 90.3364 63.4196 90.3024 63.5556L89.4864 67.7381C89.5203 67.8062 89.5203 67.8401 89.5203 67.9081C88.1944 74.9131 86.9024 81.4759 85.6443 87.9369C85.5764 88.0389 85.4744 88.1409 85.3384 88.1409Z" fill="#0C0080"/>
<path d="M87.9537 61.651C87.8177 61.651 87.7156 61.5829 87.7156 61.4469L87.5457 60.5968C87.5116 60.4608 87.6136 60.3247 87.7496 60.2908C87.8856 60.2568 88.0216 60.3588 88.0557 60.4948L88.2256 61.3449C88.2596 61.4809 88.1576 61.6169 88.0216 61.651C87.9876 61.651 87.9876 61.651 87.9537 61.651Z" fill="#0C0080"/>
<path d="M87.3444 58.5223C87.2084 58.5223 87.1064 58.4542 87.1064 58.3182L86.9023 57.2641C86.9023 57.196 86.9023 57.1281 86.9704 57.06C87.0044 56.992 87.1064 56.958 87.1743 56.958C87.3104 56.958 87.4123 57.06 87.4123 57.162L87.6164 58.2162C87.6503 58.3522 87.5483 58.4882 87.4123 58.5223C87.3784 58.5223 87.3784 58.5223 87.3444 58.5223Z" fill="#0C0080"/>
<path d="M90.4712 61.3792H90.4371C90.3011 61.3453 90.1991 61.2093 90.2332 61.0732L90.3351 60.5632C90.3692 60.4271 90.5052 60.3251 90.6412 60.3592C90.7771 60.3931 90.8792 60.5291 90.8451 60.6652L90.7432 61.1752C90.7091 61.3113 90.6072 61.3792 90.4712 61.3792Z" fill="#0C0080"/>
<path d="M91.0805 58.2506H91.0466C90.9106 58.2167 90.8085 58.0806 90.8425 57.9446L90.9785 57.2985C91.0126 57.1625 91.1486 57.0605 91.2846 57.0945C91.4206 57.1285 91.5226 57.2645 91.4885 57.4005L91.3525 58.0466C91.2846 58.1486 91.1825 58.2506 91.0805 58.2506Z" fill="#0C0080"/>
<path d="M93.0225 87.8347C92.8865 87.8347 92.7845 87.7667 92.7845 87.6308L88.9766 67.874C88.9766 67.8401 88.9766 67.806 88.9766 67.772L89.7925 63.3854C89.8266 63.2494 89.9626 63.1474 90.0986 63.1814C90.2345 63.2154 90.3366 63.3514 90.3025 63.4874L89.4866 67.806L93.2946 87.5287C93.3286 87.6647 93.2266 87.8007 93.0906 87.8347C93.0566 87.8347 93.0566 87.8347 93.0225 87.8347Z" fill="#0C0080"/>
<path d="M86.6967 55.1564C86.5607 55.1564 86.4587 55.0883 86.4587 54.9523L86.3907 54.5103L86.0847 52.878C86.0507 52.742 86.1527 52.606 86.2887 52.572C86.4247 52.538 86.5607 52.64 86.5947 52.776L87.0027 54.8503V54.8843C87.0027 55.0203 86.9347 55.1223 86.7987 55.1223C86.7307 55.1564 86.7307 55.1564 86.6967 55.1564Z" fill="#0C0080"/>
<path d="M93.0223 87.8345C92.8863 87.8345 92.7843 87.7324 92.7843 87.6304L91.1863 79.3673C91.1523 79.2313 91.2543 79.0952 91.3903 79.0613C91.5263 79.0273 91.6623 79.1293 91.6963 79.2653L93.2943 87.5284V87.5624C93.2943 87.7324 93.1924 87.8345 93.0223 87.8345C93.0563 87.8345 93.0563 87.8345 93.0223 87.8345Z" fill="#0C0080"/>
<path d="M94.4476 54.4762H68.6758V51.1777H88.0897C87.5456 51.2458 87.1037 51.4157 86.7976 51.7898C86.7297 51.8578 86.4577 52.1979 86.5257 52.5719C86.6956 53.286 88.1576 53.5241 89.2796 53.6941C90.1636 53.8301 91.0137 53.9661 91.8296 54.1021C92.7477 54.2041 93.5977 54.3402 94.4476 54.4762Z" fill="#0C0080"/>
<path d="M101.046 52.8437C96.6255 52.2995 93.4636 51.8235 90.9816 51.3475C90.6076 51.2794 90.0976 51.1774 89.5195 51.1094H97.6115C99.2096 52.0956 101.046 52.8437 101.046 52.8437Z" fill="#0C0080"/>
<path d="M109.441 51.1436V54.442H109.068C108.524 54.136 108.014 53.8299 107.503 53.5239C106.007 52.6398 104.682 51.8577 103.492 51.1436H109.441Z" fill="#0C0080"/>
<path d="M66.9754 102.627C67.9614 100.62 69.2194 98.172 70.1714 96.5398C70.2734 96.3358 70.4433 96.0978 70.6134 95.8598C70.8173 95.5877 71.0553 95.3157 71.2934 95.1456C71.3273 95.1117 71.3273 95.1116 71.3614 95.1116C71.4293 95.0776 71.4974 95.0436 71.5653 95.0096C71.6674 94.9756 71.8033 94.9416 71.9393 94.9416C72.1434 94.9416 72.3814 95.0776 72.5513 95.2137C72.6534 95.3157 72.7214 95.4177 72.7894 95.5196C72.7894 95.5537 72.8233 95.5537 72.8233 95.5877C72.9593 95.8937 72.8914 96.2338 72.7894 96.5398C72.7214 96.7438 72.6194 96.9139 72.5174 97.0499C71.3954 98.9542 70.3413 100.926 70.4433 100.96C70.5114 101.028 71.9393 99.3962 73.7073 97.662C74.2173 97.1519 74.7614 96.6418 75.2714 96.1317C75.3393 96.0638 75.4413 95.9618 75.5433 95.8937C76.4273 95.1116 77.3113 94.3975 78.0593 93.9555C78.3313 93.8195 78.5693 93.6834 78.7734 93.6154C78.8754 93.5814 78.9433 93.5474 79.0453 93.5474C79.2833 93.4794 79.4874 93.4794 79.6573 93.5474C79.7594 93.5814 80.2013 93.7514 80.3033 94.1254C80.4393 94.6016 79.9633 95.1117 79.6234 95.4177C79.5553 95.4857 79.4874 95.5537 79.4533 95.5877C79.1134 95.8937 76.2574 98.6821 75.3393 99.6342C75.9173 99.2942 76.4613 98.9542 76.9713 98.6481C77.2434 98.4781 77.5154 98.3081 77.7873 98.138C78.3654 97.798 78.8413 97.458 79.3173 97.1519C79.4533 97.0839 79.5553 96.9819 79.6913 96.9138C79.8614 96.7778 80.0313 96.6758 80.2013 96.5738C80.2354 96.5398 80.2694 96.5398 80.2694 96.5058C80.6434 96.2677 81.0174 95.9957 81.3914 95.7917C82.0034 95.4517 82.5813 95.2476 83.0233 95.4857C83.3293 95.6557 83.5673 96.0297 83.5673 96.3697C83.5673 96.9479 82.9894 97.3899 82.5473 97.696L82.2073 97.9C81.8674 98.1041 81.5273 98.3421 81.1194 98.614C80.9153 98.7501 80.7113 98.8861 80.5074 99.0221C79.5553 99.7023 78.4333 100.484 77.1074 101.47C78.3313 101.062 79.3173 100.62 80.0653 100.246C80.2694 100.144 80.4393 100.042 80.6094 99.9743C80.9153 99.8042 81.2213 99.6342 81.5273 99.4642C82.3093 98.9882 82.9553 98.5801 83.4653 98.376C83.4994 98.376 83.5333 98.3421 83.6013 98.3081C83.7713 98.2401 83.9413 98.172 84.1114 98.2061C84.3834 98.2061 84.5873 98.41 84.6553 98.512C84.7574 98.6481 84.8253 98.7841 84.8594 98.9201C84.9273 99.5322 84.1453 100.11 83.4653 100.518C83.4313 100.552 83.3973 100.552 83.3634 100.586C83.0573 100.79 82.7173 100.994 82.3433 101.232C81.4253 101.777 80.2694 102.457 78.8754 103.17C80.0313 103.069 80.9153 102.763 81.4934 102.491C81.9353 102.287 82.3093 102.083 82.6493 101.913C83.0573 101.708 83.3634 101.504 83.6693 101.436C83.8734 101.368 84.0773 101.368 84.2813 101.47C84.5533 101.572 84.7913 101.845 84.8253 102.117C84.8594 102.457 84.5873 102.763 84.2813 103C84.0433 103.205 83.7374 103.375 83.5333 103.511C83.4994 103.545 83.4653 103.545 83.4313 103.578C82.0373 104.361 79.3513 105.619 77.1074 106.639C76.9034 106.741 76.6993 106.809 76.4954 106.911C76.0194 107.115 75.5433 107.353 75.1354 107.523C74.2854 107.898 73.6733 108.17 73.4353 108.271C73.4014 108.305 73.3333 108.373 73.2654 108.441C73.2314 108.51 73.1973 108.577 73.1634 108.612C73.8433 108.918 74.3874 109.088 74.6594 109.19C74.9654 109.291 75.2374 109.36 75.2374 109.36C75.3053 109.394 75.3734 109.394 75.4754 109.427C76.0194 109.564 76.5633 109.666 77.1074 109.733C80.0993 110.108 83.0233 109.496 85.5054 108.135C85.7434 107.999 86.0153 107.863 86.2534 107.693C86.4573 107.557 86.6613 107.421 86.8654 107.286C89.1093 105.653 90.8093 103.341 91.5913 100.552C91.6253 100.484 91.6253 100.416 91.6593 100.348C92.4753 97.2879 91.9993 94.2275 90.6393 91.6091C90.5713 91.4391 90.4693 91.3031 90.3674 91.133C88.7013 88.2767 85.8794 86.0664 82.3093 85.1483C82.1733 85.1142 82.0034 85.0803 81.8674 85.0463C81.7314 85.0122 81.5613 84.9782 81.4253 84.9443C79.1813 84.5362 76.9713 84.6722 74.8974 85.3183C74.5913 85.4203 74.3193 85.5223 74.0134 85.6243C73.5713 85.7944 73.1294 85.9644 72.7214 86.2024C70.2394 87.4606 68.1654 89.5008 66.9413 92.0512C66.6694 92.6293 66.4313 93.2074 66.2614 93.8535C66.2274 93.9215 66.2274 93.9894 66.1933 94.0575C65.3434 97.0158 65.6834 100.042 66.9754 102.627Z" fill="#7566FF"/>
<path d="M77.1106 110.005C76.9746 110.005 76.8387 109.903 76.8387 109.767C76.9066 108.748 76.9066 107.728 76.8047 106.673C76.8047 106.536 76.9067 106.401 77.0427 106.401C77.1787 106.401 77.3147 106.503 77.3147 106.639C77.4167 107.693 77.4167 108.781 77.3487 109.802C77.3826 109.903 77.2466 110.005 77.1106 110.005Z" fill="#0C0080"/>
<path d="M71.399 95.349C71.331 95.349 71.263 95.315 71.229 95.281C69.937 94.0908 68.441 93.0707 66.843 92.2886C66.707 92.2206 66.6731 92.0845 66.741 91.9485C66.809 91.8125 66.945 91.7785 67.081 91.8465C68.747 92.6627 70.243 93.7168 71.603 94.9409C71.705 95.043 71.705 95.213 71.603 95.3149C71.5351 95.3149 71.467 95.349 71.399 95.349Z" fill="#0C0080"/>
<path d="M73.7082 97.9343C73.6402 97.9343 73.5382 97.9003 73.5042 97.8322C73.4702 97.7983 73.4362 97.7302 73.4022 97.6962C73.1302 97.3562 72.8582 97.0161 72.6202 96.71C72.5182 96.608 72.5522 96.438 72.6542 96.336C72.7562 96.234 72.9262 96.268 73.0282 96.37C73.3002 96.6761 73.5722 97.0161 73.8442 97.3902C73.8782 97.4582 73.9122 97.4922 73.9462 97.5603C74.0142 97.6622 73.9802 97.8322 73.8782 97.9003C73.8103 97.9003 73.7422 97.9343 73.7082 97.9343Z" fill="#0C0080"/>
<path d="M91.2532 101.845C91.2192 101.845 91.1511 101.845 91.1172 101.811C88.9412 100.587 87.0712 98.9884 85.5752 97.0841C82.0052 92.5615 81.5632 87.5968 81.6312 85.0124C81.6312 84.8764 81.7672 84.7744 81.9031 84.7744C82.0391 84.7744 82.1412 84.9104 82.1412 85.0465C82.0732 87.5288 82.5152 92.3914 85.9832 96.778C87.4452 98.6143 89.2811 100.179 91.3891 101.369C91.5251 101.437 91.5591 101.607 91.4912 101.709C91.4231 101.811 91.3552 101.845 91.2532 101.845Z" fill="#0C0080"/>
<path d="M78.7735 93.8878C78.6715 93.8878 78.5695 93.8197 78.5355 93.7518L74.6595 85.4546C74.5915 85.3186 74.6595 85.1826 74.7955 85.1146C74.9315 85.0465 75.0675 85.1146 75.1355 85.2506L79.0115 93.5477C79.0795 93.6837 79.0115 93.8197 78.8755 93.8878C78.8415 93.8538 78.8075 93.8878 78.7735 93.8878Z" fill="#0C0080"/>
<path d="M81.493 99.7357C81.391 99.7357 81.289 99.6676 81.255 99.5997C81.119 99.3276 80.983 99.0216 80.847 98.7496C80.779 98.6135 80.847 98.4775 80.983 98.4094C81.119 98.3415 81.255 98.4096 81.323 98.5455C81.459 98.8175 81.595 99.1236 81.731 99.3957C81.799 99.5317 81.731 99.6676 81.595 99.7357C81.561 99.7357 81.527 99.7357 81.493 99.7357Z" fill="#0C0080"/>
<path d="M85.5406 108.407C85.4386 108.407 85.3367 108.339 85.3026 108.271L83.1946 103.714C83.1267 103.578 83.1946 103.442 83.3307 103.375C83.4667 103.306 83.6027 103.375 83.6706 103.511L85.7786 108.067C85.8467 108.203 85.7786 108.339 85.6427 108.407C85.6087 108.373 85.5746 108.407 85.5406 108.407Z" fill="#0C0080"/>
<path d="M82.6527 102.185C82.5507 102.185 82.4827 102.117 82.4147 102.049C82.3127 101.811 82.2106 101.607 82.1087 101.369C82.0407 101.233 82.1087 101.097 82.2447 101.029C82.3807 100.961 82.5167 101.029 82.5846 101.165C82.6867 101.403 82.7887 101.607 82.8907 101.845C82.9586 101.981 82.8907 102.117 82.7547 102.185C82.7206 102.185 82.6867 102.185 82.6527 102.185Z" fill="#0C0080"/>
<path d="M80.1329 96.8452C80.0309 96.8452 79.9289 96.7773 79.8949 96.7092L79.7249 96.3011C79.5889 96.0292 79.4869 95.791 79.3509 95.5191C79.2829 95.3831 79.3509 95.247 79.4869 95.179C79.6229 95.111 79.7589 95.179 79.8268 95.315C79.9289 95.587 80.0648 95.8251 80.2009 96.0971L80.3709 96.5052C80.4388 96.6412 80.3709 96.7773 80.2349 96.8452C80.2009 96.8452 80.1669 96.8452 80.1329 96.8452Z" fill="#0C0080"/>
<path d="M82.992 95.7579C82.89 95.7579 82.822 95.7239 82.754 95.6218C82.6859 95.4859 82.754 95.3499 82.856 95.2818L90.5059 91.4053C90.6419 91.3373 90.7779 91.4053 90.846 91.5073C90.9139 91.6433 90.846 91.7793 90.7439 91.8474L83.094 95.7239C83.0599 95.7579 83.0259 95.7579 82.992 95.7579Z" fill="#0C0080"/>
<path d="M144.938 84.4C143.748 87.0184 140.79 93.1732 137.219 94.9074C136.947 95.0435 136.71 95.1455 136.71 95.1455C133.412 96.5056 130.284 96.0636 129.161 95.8595C120.967 94.5674 116.208 86.7463 110.631 77.6331C108.965 74.8787 106.926 71.2402 104.919 66.6837V66.6496C104.716 66.2075 104.512 65.7315 104.307 65.2554C104.035 64.5753 103.729 63.8953 103.457 63.1812C103.593 63.0791 103.695 62.9771 103.832 62.8751C103.934 62.7731 104.07 62.705 104.171 62.603C106.79 60.4948 109.441 58.3525 112.06 56.2102C112.468 55.9042 112.875 55.5641 113.25 55.2581C118.622 63.4531 124.028 71.6823 129.4 79.8774C131.813 73.5186 136.098 63.5892 142.728 54.612C145.244 51.2115 148.133 47.913 152.894 46.2809C153.778 45.9748 157.551 44.7166 160.985 45.5328C167.309 47.029 170.437 55.0201 174.517 69.064C177.101 77.9731 180.161 89.7048 182.983 103.817C156.599 112.93 147.113 116.194 146.331 116.466C145.005 116.908 143.645 117.384 143.645 117.384H143.612C143.612 117.384 143.476 117.453 143.442 117.453C143.985 106.401 144.461 95.3835 144.938 84.4Z" fill="#7566FF"/>
<path d="M144.328 85.9301C144.294 85.9301 144.26 85.9301 144.225 85.8961C144.09 85.8281 144.056 85.6921 144.124 85.5561L149.734 74.1986C149.802 74.0625 149.938 74.0285 150.074 74.0965C150.209 74.1645 150.244 74.3006 150.176 74.4366L144.566 85.7941C144.531 85.8961 144.43 85.9301 144.328 85.9301Z" fill="#0C0080"/>
<path d="M153.811 38.1542C153.675 38.1542 153.539 38.0522 153.539 37.8822C153.539 37.7122 153.641 37.6101 153.811 37.6101C155.375 37.6101 156.667 36.386 156.667 34.9238C156.667 33.4276 155.409 32.2374 153.811 32.2374C152.927 32.2374 152.111 32.6115 151.567 33.2916C151.465 33.3936 151.329 33.4276 151.193 33.3256C151.091 33.2235 151.058 33.0875 151.159 32.9516C151.806 32.1694 152.757 31.6934 153.811 31.6934C155.647 31.6934 157.178 33.1215 157.178 34.8898C157.143 36.726 155.647 38.1542 153.811 38.1542Z" fill="#0C0080"/>
<path d="M141.473 25.0965C141.54 25.7426 141.779 26.8988 142.594 28.0209C144.261 30.2652 146.981 30.5373 147.457 30.6052C148.272 32.4755 149.123 34.3457 149.938 36.216C150.346 36.012 150.788 35.774 151.197 35.5699C151.163 35.434 150.788 34.0737 151.706 33.0196C152.217 32.4415 152.863 32.2034 153.168 32.1355C154.664 31.7614 155.821 32.7135 155.855 32.7476C156.67 33.4277 156.806 34.3457 156.841 34.6518C156.875 34.9239 156.976 35.91 156.263 36.7941C155.855 37.3042 155.345 37.5422 155.073 37.6442C155.515 38.9364 155.957 40.1945 156.399 41.4867C157.248 41.2147 158.099 40.9427 158.914 40.6366C158.71 39.4804 158.507 38.3243 158.302 37.1682C158.88 36.2841 159.697 34.8218 160.07 32.8495C160.546 30.1972 160.173 26.9327 158.608 24.9945C155.922 21.594 148.442 20.9479 141.473 25.0965Z" fill="#0C0080"/>
<path d="M160.614 45.669C160.513 45.669 160.41 45.6011 160.377 45.4991L158.472 40.6704C158.404 40.5343 158.472 40.3984 158.608 40.3304C158.744 40.2624 158.881 40.3304 158.948 40.4664L160.852 45.295C160.92 45.431 160.852 45.567 160.716 45.6351C160.682 45.669 160.648 45.669 160.614 45.669Z" fill="#0C0080"/>
<path d="M150.276 47.6755C150.175 47.6755 150.072 47.6076 150.039 47.5056C149.869 47.0635 149.699 46.6215 149.528 46.1793L149.086 45.0232C149.086 45.0232 149.086 45.0232 149.086 44.9892L148.882 44.4791C148.338 44.6152 147.795 44.6831 147.319 44.7172C146.366 44.7851 145.482 44.6491 144.666 44.3431C142.967 43.697 141.572 42.2008 140.654 40.1605C139.328 37.1341 139.294 33.3596 140.518 30.3332C140.518 30.3332 141.029 29.041 142.15 27.5448C142.253 27.4428 142.389 27.4088 142.525 27.5108C142.661 27.6128 142.661 27.7488 142.559 27.8848C141.471 29.3131 140.994 30.5372 140.994 30.5372C139.804 33.3936 139.872 37.1001 141.096 39.9906C141.947 41.9288 143.273 43.323 144.803 43.901C145.551 44.1731 146.366 44.3091 147.25 44.2411C147.761 44.2071 148.304 44.139 148.848 43.9691C148.882 43.9691 148.882 43.9691 148.916 43.9691H148.951C149.086 43.935 149.188 44.0031 149.257 44.139L149.528 44.8532C149.528 44.8532 149.528 44.8532 149.528 44.8871L149.97 46.0773C150.141 46.5194 150.311 46.9615 150.481 47.4035C150.514 47.5395 150.481 47.6755 150.344 47.7436C150.344 47.6755 150.311 47.6755 150.276 47.6755Z" fill="#0C0080"/>
<path d="M152.349 41.4521C152.282 41.9621 152.077 42.6423 151.67 43.3904C151.058 44.5125 150.208 45.2266 149.596 45.6347C149.527 45.3966 149.426 45.1586 149.323 44.8866C149.187 44.5466 149.018 44.2745 148.848 44.0365C149.221 43.9345 149.698 43.7644 150.139 43.4924C151.329 42.8803 152.01 41.9962 152.349 41.4521Z" fill="#0C0080"/>
<path d="M111.927 56.3808C111.892 56.3808 111.824 56.3808 111.79 56.3467C108.323 54.2725 105.228 52.4362 102.746 50.974L100.264 49.5119C99.3122 48.9677 97.1362 47.6416 96.1163 48.3216C95.9122 48.4577 95.7423 48.6957 95.7083 48.9337C95.5382 50.0559 98.3942 51.6881 101.114 52.7423C101.25 52.7763 101.318 52.9463 101.25 53.0823C101.216 53.2183 101.046 53.2864 100.91 53.2183C99.4823 52.6742 94.8922 50.736 95.1982 48.8658C95.2662 48.4917 95.5042 48.1517 95.8443 47.9137C97.1023 47.0635 99.4142 48.4236 100.502 49.1038L102.984 50.5659C105.466 52.0282 108.594 53.8644 112.028 55.9387C112.164 56.0067 112.198 56.1768 112.13 56.2788C112.096 56.3467 111.994 56.3808 111.927 56.3808Z" fill="#0C0080"/>
<path d="M90.6734 63.7256C90.4695 63.7256 90.2315 63.7256 90.0275 63.7256C89.9935 63.7256 89.9595 63.7256 89.9595 63.7256C89.2795 63.6916 88.7015 63.6236 88.2595 63.4876C87.6814 63.3176 87.3074 63.0455 87.1714 62.7055C87.0695 62.3995 87.0695 62.0254 87.2395 61.7534C87.3755 61.5154 87.5795 61.3453 87.8515 61.2093C88.4975 60.9033 89.4154 60.9033 89.8575 60.9033C90.0614 60.9033 90.2315 60.9033 90.4015 60.9033H90.4354C90.5035 60.9033 90.6055 60.9033 90.6734 60.9033C90.6055 60.9033 90.5714 60.9033 90.5035 60.9033H90.4695C89.6195 60.8693 88.8715 60.8352 88.2255 60.8352H88.1575C88.0215 60.8352 87.8855 60.8352 87.7155 60.8352C86.5595 60.8012 85.8455 60.5293 85.5735 59.9851C85.5395 59.9171 85.3355 59.4751 85.5055 59.033C85.7095 58.523 86.2535 58.2169 87.2395 58.0468C87.8175 57.9448 88.5654 57.8769 89.5175 57.8428C89.8235 57.8428 90.2655 57.8088 90.9454 57.7749H90.9795C91.3195 57.7408 91.6594 57.7408 91.9995 57.7068C91.6594 57.6728 91.3535 57.6728 91.0815 57.6388H91.0474C89.5514 57.5368 88.3275 57.5028 87.3755 57.5028C87.2735 57.5028 87.1714 57.5028 87.0354 57.5028C85.7775 57.4688 84.9955 57.1967 84.6895 56.6526C84.6555 56.6187 84.4515 56.1766 84.6215 55.7005C84.8255 55.1905 85.4375 54.8504 86.5255 54.6804C87.0695 54.5784 87.7495 54.5444 88.6335 54.5104C89.3134 54.4764 90.6395 54.4764 91.5574 54.4764C91.6594 54.4764 91.7275 54.4764 91.8295 54.4764C90.9795 54.3404 89.6874 54.1023 87.8175 53.7623C87.3415 53.6602 86.3895 53.4903 86.1855 52.8101C86.1515 52.6741 86.1515 52.4361 86.1855 52.2321C86.2535 51.8921 86.3895 51.654 86.4575 51.586C86.4915 51.552 86.8315 51.1099 87.6814 50.9739C88.5654 50.8379 93.7675 51.586 100.941 52.8101C101.077 52.8442 101.179 52.9802 101.145 53.1162C101.111 53.2522 100.975 53.3542 100.839 53.3202C92.7135 51.926 88.4294 51.4159 87.7155 51.518C87.0695 51.62 86.8315 51.8921 86.8315 51.926C86.7974 51.96 86.6955 52.1301 86.6615 52.3681C86.6275 52.5381 86.6615 52.6741 86.6615 52.7081C86.7974 53.1162 87.5795 53.2522 87.9194 53.3202C91.6594 54.0683 93.1215 54.2384 93.1554 54.2384C93.6994 54.3063 94.5494 54.4083 95.6035 54.5444C95.7395 54.5784 95.8415 54.6804 95.8415 54.8164C95.8415 54.9524 95.7054 55.0544 95.6035 55.0544C95.6035 55.0544 95.0935 55.0544 94.3795 55.0544C93.6315 55.0544 92.6115 55.0544 91.6255 55.0885C90.6734 55.0885 89.3815 55.1225 88.7015 55.1225C87.8515 55.1564 87.1714 55.1905 86.6615 55.2925C85.7775 55.4285 85.2675 55.6665 85.1315 55.9726C85.0295 56.2106 85.1654 56.4827 85.1654 56.5167C85.3695 56.8908 86.0155 57.0947 87.0354 57.0947C87.2055 57.0947 87.3415 57.0947 87.4435 57.0947C88.3955 57.0947 89.6195 57.1288 91.0815 57.2308C91.0815 57.2308 91.0815 57.2308 91.1155 57.2308C92.1015 57.2987 93.2914 57.3668 94.9574 57.5028L95.3655 57.5368C95.5015 57.5368 95.6035 57.6728 95.6035 57.7749C95.6035 57.9108 95.5015 58.0129 95.3655 58.0468C95.3655 58.0468 95.2295 58.0468 94.9574 58.0809C94.1415 58.1489 92.3735 58.2849 90.9795 58.3869H90.9454C90.2655 58.4209 89.7894 58.4549 89.4835 58.4549C88.5315 58.4889 87.8174 58.5569 87.2735 58.6589C86.4915 58.7949 86.0494 59.0329 85.9135 59.339C85.8114 59.5771 85.9475 59.8491 85.9475 59.8831C86.0835 60.1212 86.4915 60.4272 87.6475 60.4612C87.8175 60.4612 87.9535 60.4612 88.0554 60.4612H88.1235C88.7695 60.4612 89.5175 60.4952 90.3675 60.5292H90.4015C91.6594 60.5972 93.1554 60.6992 94.9915 60.8352C95.1275 60.8352 95.2295 60.9713 95.2295 61.0733C95.2295 61.2093 95.1275 61.3453 94.9915 61.3453C93.0194 61.4813 91.4895 61.5493 90.2994 61.5493H90.2655C90.0955 61.5493 89.8915 61.5493 89.7215 61.5493C89.2794 61.5493 88.4294 61.5493 87.8855 61.7873C87.7155 61.8894 87.5795 61.9914 87.5115 62.1274C87.4095 62.2974 87.4094 62.5015 87.4775 62.6375C87.5454 62.8415 87.8175 63.0116 88.2255 63.1136C88.6335 63.2496 89.1774 63.3176 89.8234 63.3176H89.8915C90.6395 63.3516 91.3535 63.3176 91.7615 63.2836C93.0194 63.2156 94.4134 63.1476 95.9434 63.0455L97.6434 62.9435C97.6434 62.9435 97.6434 62.9435 97.6774 62.9435C99.6494 62.8415 101.655 62.7055 103.627 62.4675H103.73C103.866 62.4675 104.002 62.5695 104.002 62.7055C104.002 62.8415 103.9 62.9775 103.763 62.9775H103.661C101.689 63.1815 99.6834 63.3516 97.6774 63.4536C97.6774 63.4536 97.6774 63.4536 97.6434 63.4536L95.9434 63.5556C94.4134 63.6577 93.0194 63.7256 91.7615 63.7936C91.5574 63.7256 91.1155 63.7256 90.6734 63.7256Z" fill="#0C0080"/>
<path d="M111.654 55.9385C108.492 58.2168 105.33 60.495 102.168 62.7393C102.814 62.7054 103.426 62.7054 104.071 62.6714C104.446 62.3653 105.874 61.2431 106.248 60.9371C108.186 59.3729 110.158 57.7747 112.096 56.2105C111.96 56.1425 111.79 56.0405 111.654 55.9385Z" fill="#0C0080"/>
<path d="M155.374 223.616C155.307 223.616 155.273 223.581 155.204 223.547C155.137 223.513 155.103 223.445 155.103 223.377L153.335 202.43L146.059 116.467C146.059 116.33 146.161 116.194 146.297 116.194C146.433 116.194 146.569 116.297 146.569 116.433L153.845 202.397L155.579 223.071L173.701 221.303L173.395 191.787L172.545 107.456C172.545 107.32 172.647 107.184 172.783 107.184C172.919 107.184 173.02 107.286 173.055 107.422L174.21 221.507C174.21 221.643 174.109 221.745 173.973 221.779L155.374 223.616Z" fill="#0C0080"/>
<path d="M153.608 202.397C149.97 197.637 145.38 191.482 140.144 184.272C131.44 172.303 128.312 167.474 128.312 160.741C128.312 158.531 128.958 156.184 130.216 151.458C132.801 141.903 135.588 136.869 140.144 126.091C141.062 123.88 142.286 120.922 143.646 117.385C144.53 117.079 145.448 116.773 146.332 116.467L153.608 202.397Z" fill="#0C0080"/>
<path d="M172.819 107.422C164.047 110.992 155.276 114.528 146.503 118.099L146.367 116.433C155.173 113.441 163.979 110.448 172.819 107.422Z" fill="#0C0080"/>
<path d="M73.4385 108.271C72.9965 114.902 70.7185 144.35 60.7566 145.881C58.6486 146.221 55.0106 145.439 49.5706 138.501C49.0606 141.392 45.5246 157.034 44.2327 161.386C38.1466 160.435 31.6187 159.21 24.7166 157.544C18.6986 156.116 13.0887 154.518 7.88672 152.851C11.7627 142.548 22.1667 117.113 37.8066 105.789C40.7306 103.681 43.7906 102.083 46.9186 102.694C56.4386 104.632 58.1386 125.58 58.2066 126.634C60.5186 119.663 62.8645 112.726 65.1766 105.755C67.9305 106.639 70.6845 107.456 73.4385 108.271Z" fill="#0C0080"/>
<path d="M73.4386 108.543C73.4046 108.543 73.4046 108.543 73.3707 108.543L65.3126 106.197C65.2447 106.163 65.1766 106.129 65.1427 106.061C65.1087 105.993 65.1087 105.925 65.1427 105.857C65.4487 105.245 66.0267 104.054 66.7407 102.558L67.3186 101.334C69.5626 96.6755 70.4807 94.7713 71.8747 94.8052C71.9426 94.8052 72.5887 94.8393 72.8946 95.2814C73.3026 95.8594 72.8947 96.6755 72.3166 97.7637L72.2147 97.9677C71.9426 98.4778 71.6706 99.0219 71.3986 99.5319C72.8946 97.9336 75.0706 95.6893 76.8046 94.3632C77.5526 93.7852 78.6406 93.071 79.6266 93.3771C79.9667 93.4791 80.2046 93.6831 80.3066 93.9211C80.5786 94.5333 79.9326 95.2133 79.6266 95.5533C78.9466 96.3014 78.0626 97.2196 77.2467 98.0017C78.1986 97.4236 79.1167 96.8115 80.0686 96.2675C81.1226 95.6214 82.4486 94.8393 83.2646 95.3493C83.7067 95.6214 83.7746 96.1655 83.7746 96.2335C83.8427 97.1516 82.8226 97.8317 81.4966 98.6478L81.0887 98.9199C80.3066 99.4298 79.5246 99.974 78.7427 100.552C79.7966 100.076 80.7826 99.5659 81.7006 99.0219L81.9046 98.8858C82.8226 98.3077 83.8766 97.6956 84.5907 98.1037C84.8627 98.2738 85.0666 98.6138 85.1007 98.9538C85.1346 99.77 84.2167 100.314 82.3806 101.402L82.3467 101.436C81.9727 101.64 81.3607 102.014 80.4086 102.558C80.7147 102.491 81.0206 102.388 81.2926 102.286C81.7686 102.082 82.2107 101.878 82.5847 101.674C83.2986 101.3 83.8766 100.994 84.4206 101.266C84.5226 101.3 84.9306 101.538 84.9986 101.98C85.1686 102.933 83.4687 103.714 80.1027 105.279C79.2527 105.687 78.3006 106.129 77.2467 106.605C75.9887 107.217 74.6966 107.829 73.5067 108.476C73.5067 108.509 73.4727 108.543 73.4386 108.543ZM65.7207 105.788L73.4046 107.999C74.5947 107.387 75.8527 106.775 77.0766 106.163C78.1307 105.652 79.0827 105.21 79.9326 104.837C82.5506 103.612 84.6246 102.66 84.5226 102.116C84.4886 101.946 84.2846 101.81 84.2167 101.776C83.9106 101.64 83.5026 101.81 82.8226 102.184C82.4487 102.388 82.0066 102.593 81.4966 102.796C80.7486 103.069 79.9667 103.272 79.1167 103.341C78.9807 103.341 78.8787 103.272 78.8447 103.17C78.8106 103.069 78.8447 102.933 78.9466 102.864C80.5446 101.946 81.5646 101.334 82.0746 101.028L82.1087 100.994C83.6726 100.076 84.5907 99.5319 84.5566 99.0219C84.5566 98.8518 84.4547 98.6478 84.3186 98.5797C83.8766 98.3077 82.8906 98.9199 82.1766 99.3619L81.9386 99.4979C80.5106 100.348 78.9126 101.13 77.1786 101.742C77.0767 101.776 76.9406 101.742 76.8727 101.64C76.8046 101.538 76.8387 101.402 76.9406 101.3C78.1986 100.28 79.4907 99.3619 80.8166 98.5118L81.2586 98.2397C82.3806 97.5257 83.3327 96.9136 83.2986 96.3014C83.2986 96.3014 83.2646 95.9614 83.0266 95.7913C82.4827 95.4513 81.2247 96.1994 80.3747 96.7095C78.7427 97.6956 77.0767 98.7498 75.4446 99.8039C75.3427 99.872 75.1726 99.8379 75.1047 99.7359C75.0366 99.6339 75.0366 99.4979 75.1386 99.3959C75.9547 98.6138 78.0286 96.5735 79.3206 95.1793C79.4907 94.9753 80.0346 94.3972 79.8986 94.0912C79.8647 93.9892 79.7287 93.8872 79.5246 93.8531C78.6746 93.5811 77.5186 94.4652 77.1446 94.7713C74.9346 96.4715 71.8747 99.77 70.6506 101.13C70.5827 101.232 70.4126 101.232 70.3106 101.164C70.2087 101.096 70.1746 100.96 70.2087 100.858C70.7187 99.77 71.2287 98.7158 71.7387 97.7297L71.8747 97.4916C72.3507 96.5735 72.7247 95.8594 72.4867 95.5194C72.3507 95.3153 71.9767 95.2473 71.8407 95.2473C70.7866 95.2133 69.8347 97.1855 67.7607 101.504L67.1826 102.728C66.5707 104.054 66.0606 105.109 65.7207 105.788Z" fill="#0C0080"/>
<path d="M44.1643 98.1376C43.6543 98.1376 42.9063 98.0356 42.2263 97.4915C41.4783 96.9134 41.0703 96.0293 41.0703 95.1452C41.1043 94.261 41.5803 93.3429 42.3283 92.6968C42.9743 92.1528 43.6883 91.9487 44.4023 92.0507C45.8983 92.2887 46.5783 93.989 46.5783 94.0569C46.6123 94.193 46.5443 94.329 46.4423 94.3971C46.3063 94.431 46.1703 94.363 46.1023 94.261C46.1023 94.261 45.5242 92.7648 44.3003 92.5948C43.7563 92.4928 43.1442 92.6968 42.6343 93.1389C41.9883 93.6829 41.5803 94.465 41.5803 95.2131C41.5463 95.9612 41.9203 96.6753 42.5323 97.1514C43.4163 97.8315 44.4703 97.6954 44.6402 97.6615C44.7763 97.6275 44.9123 97.7295 44.9463 97.8655C44.9803 98.0015 44.8783 98.1376 44.7423 98.1715C44.6063 98.1035 44.4023 98.1376 44.1643 98.1376Z" fill="#0C0080"/>
<path d="M55.2801 87.3927C52.9001 88.0727 50.5201 88.7869 48.1402 89.4669L46.2362 93.7515C46.1681 93.5815 45.9301 92.9014 45.2161 92.5274C44.4682 92.1193 43.7201 92.3234 43.4141 92.3913C42.2582 92.6974 41.7142 93.6155 41.6462 93.7515C41.1362 94.6697 41.1362 95.9279 41.9521 96.8459C42.8702 97.9001 44.2642 97.8661 44.4341 97.8661C44.5361 98.1041 44.6042 98.4442 44.5701 98.8183C44.4682 100.076 43.2782 100.757 43.1082 100.859C43.1422 100.757 43.3462 100.042 43.3802 99.9743C43.4141 99.9064 43.5841 99.2943 43.6182 99.2262C43.1422 98.8862 42.4962 98.3761 41.8842 97.6621C41.7482 97.492 40.8642 96.4039 40.4221 94.9757C39.4361 91.8133 41.1022 88.8548 41.3742 88.4128C41.8161 87.6987 43.6522 84.5363 47.4601 83.9922C50.3842 83.6181 53.4101 84.9443 55.2801 87.3927Z" fill="#0C0080"/>
<path d="M50.8967 105.21C50.8626 105.21 50.8626 105.21 50.8287 105.21C50.6927 105.177 50.6246 105.041 50.6587 104.904L51.5767 101.81C51.6106 101.708 51.6787 101.64 51.7807 101.64C51.8826 101.64 52.0187 101.606 52.1206 101.606C52.9367 101.47 53.6847 101.198 54.3307 100.79C57.5267 98.784 58.2067 93.8193 56.8466 90.4189C56.0307 88.4126 54.4327 86.5423 52.5627 85.4202C50.9307 84.434 49.1967 84.0599 47.4627 84.2979C45.2187 84.604 43.2467 85.9302 41.8866 88.0385C40.4927 90.1809 40.0507 92.7992 40.6627 94.9415C41.2407 96.9138 42.6687 98.2739 43.7566 99.0561C43.8587 99.124 43.8927 99.226 43.8587 99.328C43.7227 99.8381 43.5527 100.314 43.4167 100.824V100.858L42.7027 103.272C42.6687 103.408 42.5327 103.477 42.3967 103.442C42.2606 103.408 42.1927 103.272 42.2267 103.136L42.9407 100.688V100.654C43.0767 100.212 43.2127 99.7701 43.3147 99.362C42.1587 98.5119 40.7647 97.1177 40.1527 95.0774C39.4727 92.7652 39.9827 90.0448 41.4447 87.7665C42.8727 85.5561 44.9807 84.128 47.3947 83.788C49.2307 83.5159 51.1007 83.924 52.8347 84.9781C54.8067 86.1683 56.4726 88.1065 57.3227 90.2148C59.1927 94.8055 57.3566 99.4981 54.6026 101.232C53.8887 101.674 53.1066 101.946 52.2227 102.116C52.1547 102.116 52.0867 102.15 52.0187 102.15L51.1687 105.074C51.1007 105.143 50.9986 105.21 50.8967 105.21Z" fill="#0C0080"/>
<path d="M52.1176 101.674C51.9817 101.947 51.8457 102.219 51.7097 102.558C51.6077 102.797 51.5056 103 51.4377 103.205C50.8936 102.967 49.9417 102.422 49.2277 101.369C48.9557 100.994 48.7856 100.62 48.6836 100.28C49.1256 100.688 50.0096 101.369 51.2676 101.607C51.5396 101.64 51.8457 101.674 52.1176 101.674Z" fill="#0C0080"/>
<path d="M46.8143 241.57C46.6783 241.57 46.5763 241.468 46.5763 241.331C45.6243 231.606 44.6723 221.881 43.7204 212.122L42.2583 197.228C35.6623 190.665 29.2364 183.966 23.6943 177.879C22.7083 176.791 21.7904 175.77 20.9064 174.819C19.2064 172.915 17.6424 171.113 16.2144 169.446C14.4463 167.372 11.1484 163.495 10.3664 157.783C10.1964 156.423 10.1624 155.028 10.2644 153.668C10.2644 153.532 10.4004 153.43 10.5364 153.43C10.6724 153.43 10.7744 153.566 10.7744 153.702C10.6724 155.028 10.6724 156.354 10.8764 157.68C11.6244 163.223 14.8544 167.032 16.5884 169.072C18.0164 170.738 19.5803 172.54 21.2804 174.444C22.1304 175.397 23.0823 176.451 24.0683 177.505C29.6444 183.592 36.0703 190.325 42.6663 196.887C42.7003 196.922 42.7344 196.99 42.7344 197.058L44.1963 212.054C45.1483 221.712 46.0663 231.368 47.0183 241.025C49.5683 241.025 52.0843 240.992 54.6343 240.992L62.2162 240.958C62.3863 232.457 62.5563 216.441 61.8763 203.178C61.7403 200.22 61.5023 197.262 60.3462 193.453C59.5643 190.903 58.5443 188.285 52.3223 178.117C50.2823 174.819 48.1743 171.452 46.0323 168.12C44.5363 165.909 43.0063 163.529 41.5103 161.149C41.4423 161.013 41.4764 160.877 41.5783 160.808C41.7143 160.741 41.8504 160.775 41.9183 160.877C43.4143 163.291 44.9443 165.637 46.4403 167.847C48.5823 171.18 50.7242 174.547 52.7643 177.846C59.0203 188.08 60.0742 190.699 60.8562 193.317C62.0123 197.16 62.2503 200.153 62.3863 203.145C63.0662 216.577 62.8963 232.763 62.7262 241.23C62.7262 241.366 62.6243 241.468 62.4883 241.468L54.6343 241.501C52.0163 241.536 49.3983 241.57 46.8143 241.57Z" fill="#0C0080"/>
<path d="M-3.98099 235.483C-4.015 235.483 -4.01499 235.483 -4.04899 235.483L-11.393 233.341C-13.841 232.627 -16.255 231.913 -18.7029 231.198C-18.7709 231.165 -18.839 231.131 -18.873 231.062C-18.9069 230.995 -18.9069 230.926 -18.873 230.859C-11.0529 209.844 -3.19899 188.795 4.62098 167.78L9.92497 153.532C9.95896 153.396 10.129 153.327 10.265 153.396C10.401 153.43 10.469 153.6 10.401 153.736L5.09698 167.984C-2.72299 188.931 -10.509 209.878 -18.329 230.79C-15.983 231.47 -13.637 232.151 -11.2909 232.83L-4.15099 234.906L23.5929 177.607C23.6609 177.471 23.7969 177.437 23.9329 177.505C24.0689 177.574 24.1029 177.71 24.0349 177.846L-3.74298 235.348C-3.81099 235.415 -3.87899 235.483 -3.98099 235.483Z" fill="#0C0080"/>
<path d="M56.2337 241.501C56.0977 241.501 55.9957 241.4 55.9957 241.264L55.9617 241.094C54.1936 223.037 52.9016 210.014 52.5276 205.287V205.151C52.4256 203.756 52.1876 200.526 51.2357 196.242C51.2357 196.208 50.7936 194.235 50.2836 192.5C48.7537 187.231 44.1637 179.647 36.9557 170.602C35.7657 169.106 34.6437 167.541 33.5217 166.011C32.1277 164.073 30.6996 162.101 29.1357 160.23C28.9317 159.993 28.7277 159.754 28.5237 159.517C28.2177 159.176 27.9457 158.836 27.6397 158.497C27.5377 158.394 27.5718 158.224 27.6737 158.122C27.7757 158.02 27.9458 158.055 28.0477 158.156C28.3198 158.497 28.6257 158.836 28.8977 159.176C29.1017 159.415 29.3057 159.653 29.5097 159.89C31.0738 161.761 32.5357 163.767 33.9297 165.672C35.0177 167.202 36.1397 168.766 37.3297 170.228C44.5716 179.341 49.1956 186.959 50.7257 192.297C51.2357 194.065 51.6776 196.038 51.6776 196.072C52.6297 200.39 52.8677 203.654 52.9697 205.049V205.185C53.3096 209.911 54.6017 222.969 56.4036 240.992L56.4376 241.161C56.5057 241.366 56.4036 241.501 56.2337 241.501Z" fill="#0C0080"/>
<path d="M-9.82908 233.783C-9.86308 233.783 -9.89708 233.783 -9.93107 233.749C-10.0671 233.68 -10.1351 233.544 -10.0671 233.408C-2.17909 214.91 11.7948 182.061 16.7928 169.956C16.8609 169.82 16.9969 169.751 17.1328 169.82C17.2688 169.887 17.3369 170.024 17.2688 170.16C12.2708 182.266 -1.70309 215.114 -9.59108 233.613C-9.62508 233.714 -9.72708 233.783 -9.82908 233.783Z" fill="#0C0080"/>
</g>
</g>
</g>
</g>
</g>
<defs>
<clipPath id="clip0_5340_51082">
<rect width="176" height="176" fill="white"/>
</clipPath>
<clipPath id="clip1_5340_51082">
<rect width="176" height="176" fill="white"/>
</clipPath>
<clipPath id="clip2_5340_51082">
<rect width="176" height="176" fill="white"/>
</clipPath>
</defs>
</svg>
